<svg width="404" height="282" viewBox="0 0 404 282" fill="none" xmlns="http://www.w3.org/2000/svg">
<path d="M69.5002 59.5H130.562M69.5002 59.5V154.814M69.5002 59.5H50.6569C24.3367 59.5 3 80.8367 3 107.157V107.157C3 133.477 24.3367 154.814 50.6569 154.814H69.5002M130.562 59.5V154.814M130.562 59.5L274.465 5.11532C281.006 2.64316 288 7.47663 288 14.4696V184.888C288 191.487 281.719 196.277 275.355 194.531L130.562 154.814M130.562 154.814C108.546 145.107 95.1896 145.039 69.5002 154.814M130.562 154.814L128.491 155.999C124.41 158.335 122.507 163.198 123.919 167.682L125.751 173.5M69.5002 154.814L78.0747 158.371C80.583 159.412 82.5602 161.428 83.5519 163.956L115.01 244.152C116.512 247.981 120.206 250.5 124.319 250.5H136.367C143.122 250.5 147.934 243.94 145.905 237.496L135.75 205.25M135.75 205.25L142.183 198.139C146.294 193.596 145.39 186.458 140.276 183.083L125.751 173.5M135.75 205.25L125.751 173.5" stroke="#30395C" stroke-width="5"/>
<rect x="303.905" y="136" width="84" height="4" rx="2" transform="rotate(13.0697 303.905 136)" fill="#30395C"/>
<rect x="309" y="93" width="95" height="4" rx="2" fill="#30395C"/>
<rect x="303" y="53.507" width="78" height="4" rx="2" transform="rotate(-12.2177 303 53.507)" fill="#30395C"/>
<rect x="108" y="226" width="25" height="4" rx="2" fill="#30395C"/>
<rect x="102" y="213" width="25" height="4" rx="2" fill="#30395C"/>
<rect x="97" y="200" width="25" height="4" rx="2" fill="#30395C"/>
<rect x="21" y="126" width="30" height="4" rx="2" fill="#30395C"/>
<rect x="16" y="113" width="40" height="4" rx="2" fill="#30395C"/>
<rect x="16" y="100" width="40" height="4" rx="2" fill="#30395C"/>
<rect x="21" y="87" width="30" height="4" rx="2" fill="#30395C"/>
<circle cx="91.5" cy="156.5" r="2.5" fill="#30395C"/>
<circle cx="111.5" cy="156.5" r="2.5" fill="#30395C"/>
<circle cx="101.5" cy="154.5" r="2.5" fill="#30395C"/>
<path d="M208.999 136.999C200.499 159.5 228.5 218.5 197.5 243.5C166.5 268.5 134.499 254.25 102.999 261C71.4991 267.75 71.1557 282.923 48.9982 274.5C26.8406 266.077 29.5 199 42.5 157.5" stroke="white" stroke-width="10"/>
<path d="M208.999 136.999C200.499 159.5 228.5 218.5 197.5 243.5C166.5 268.5 134.499 254.25 102.999 261C71.4991 267.75 71.1557 282.923 48.9982 274.5C26.8406 266.077 22.7835 194.009 42.5 155.5" stroke="#30395C" stroke-width="5"/>
<path d="M184 82.5C184 79.7386 186.239 77.5 189 77.5H227C229.761 77.5 232 79.7386 232 82.5V124.195C232 125.051 231.781 125.892 231.363 126.638L226.432 135.443C225.548 137.022 223.879 138 222.069 138H194.331C192.575 138 190.947 137.079 190.043 135.572L184.713 126.688C184.246 125.91 184 125.021 184 124.115V82.5Z" stroke="#30395C" stroke-width="5"/>
<circle cx="216.5" cy="124.5" r="2.5" fill="#30395C"/>
<circle cx="207.5" cy="124.5" r="2.5" fill="#30395C"/>
<circle cx="198.5" cy="124.5" r="2.5" fill="#30395C"/>
<rect x="193" y="107" width="30" height="3" rx="1.5" fill="#30395C"/>
<rect x="193" y="101" width="30" height="3" rx="1.5" fill="#30395C"/>
<rect x="193" y="95" width="30" height="3" rx="1.5" fill="#30395C"/>
<rect x="193" y="89" width="30" height="3" rx="1.5" fill="#30395C"/>
</svg>
