<svg width="294" height="342" viewBox="0 0 294 342" fill="none" xmlns="http://www.w3.org/2000/svg">
<path d="M238.19 260.543H168.476C165.268 260.543 162.667 263.144 162.667 266.352V337.229" stroke="#30395C" stroke-width="5.80952"/>
<path d="M253 145V22.8095C253 19.601 250.399 17 247.19 17H23" stroke="#30395C" stroke-width="5.80952"/>
<path d="M265 139V8.80952C265 5.60101 262.399 3 259.19 3H45" stroke="#30395C" stroke-width="5.80952"/>
<path d="M5.80952 29.9048H238.19C239.795 29.9048 241.095 31.2053 241.095 32.8095V259.311C241.095 260.077 240.792 260.813 240.252 261.357L164.052 338.113C163.507 338.663 162.765 338.971 161.991 338.971H5.80952C4.20527 338.971 2.90476 337.671 2.90476 336.067V32.8095C2.90476 31.2053 4.20526 29.9048 5.80952 29.9048Z" stroke="#30395C" stroke-width="5.80952"/>
<line x1="29" y1="56.5" x2="134" y2="56.5" stroke="#30395C" stroke-width="3"/>
<line x1="29" y1="86.5" x2="116" y2="86.5" stroke="#30395C" stroke-width="3"/>
<line x1="29" y1="71.5" x2="159" y2="71.5" stroke="#30395C" stroke-width="3"/>
<line x1="29" y1="178.5" x2="159" y2="178.5" stroke="#30395C" stroke-width="3"/>
<line x1="29" y1="146.5" x2="145" y2="146.5" stroke="#30395C" stroke-width="3"/>
<line x1="29" y1="162.5" x2="165" y2="162.5" stroke="#30395C" stroke-width="3"/>
<line x1="29" y1="255.5" x2="116" y2="255.5" stroke="#30395C" stroke-width="3"/>
<line x1="29" y1="223.5" x2="125" y2="223.5" stroke="#30395C" stroke-width="3"/>
<line x1="29" y1="239.5" x2="102" y2="239.5" stroke="#30395C" stroke-width="3"/>
<line x1="29" y1="131.5" x2="125" y2="131.5" stroke="#30395C" stroke-width="3"/>
<path d="M153.182 240.768L154.636 242.802L156.67 241.348L284.376 150.024C287.745 147.614 288.523 142.93 286.114 139.561L279.715 130.613C277.306 127.244 272.622 126.465 269.252 128.875L141.546 220.199L139.512 221.653L140.966 223.687L153.182 240.768Z" fill="white" stroke="white" stroke-width="5"/>
<path d="M282.093 146.77L155.607 237.222L145.137 222.58L271.623 132.129C273.195 131.004 275.381 131.367 276.506 132.94L282.904 141.887C284.029 143.46 283.666 145.646 282.093 146.77Z" fill="white" stroke="#30395C" stroke-width="3"/>
<path d="M149.506 241.584C143.974 245.54 140.162 246.444 135.315 247.522C135.214 247.544 135.112 247.567 135.01 247.589C130.952 248.491 126.226 249.541 119.48 252.521C124.623 247.125 127.128 242.72 129.27 238.873C129.315 238.791 129.361 238.71 129.406 238.629C131.878 234.188 133.844 230.656 139.036 226.943L144.323 223.162L154.794 237.803L149.506 241.584Z" stroke="#30395C" stroke-width="3"/>
<path d="M150.488 229.203L138.286 237.928" stroke="#30395C" stroke-width="2"/>
<circle cx="138.286" cy="237.928" r="3" transform="rotate(144.431 138.286 237.928)" fill="#30395C"/>
<rect x="165.366" y="225.94" width="2" height="12" rx="1" transform="rotate(144.431 165.366 225.94)" fill="#30395C"/>
<rect x="177.567" y="217.215" width="2" height="12" rx="1" transform="rotate(144.431 177.567 217.215)" fill="#30395C"/>
<rect x="173.5" y="220.123" width="2" height="12" rx="1" transform="rotate(144.431 173.5 220.123)" fill="#30395C"/>
<rect x="169.433" y="223.032" width="2" height="12" rx="1" transform="rotate(144.431 169.433 223.032)" fill="#30395C"/>
<path d="M277.628 137.042C268.052 143.712 256.125 151.257 255.501 151.651C255.48 151.664 255.466 151.673 255.445 151.686C255.181 151.86 253.219 153.152 252.222 153.994L246.611 159.096C246.199 159.47 246.133 160.092 246.456 160.545C246.78 160.997 247.391 161.135 247.877 160.867L254.519 157.207C255.638 156.535 257.495 155.096 257.745 154.902C257.764 154.887 257.777 154.876 257.796 154.861C258.371 154.398 269.367 145.551 278.774 138.646C279.209 138.326 279.307 137.717 278.993 137.277C278.679 136.838 278.071 136.733 277.628 137.042Z" fill="#30395C"/>
</svg>
