<svg width="467" height="466" viewBox="0 0 467 466" fill="none" xmlns="http://www.w3.org/2000/svg">
<circle cx="233.761" cy="232.771" r="176.974" transform="rotate(23.44 233.761 232.771)" fill="white" stroke="#30395C" stroke-width="5.89914"/>
<mask id="path-2-inside-1" fill="white">
<path fill-rule="evenodd" clip-rule="evenodd" d="M395.178 305.328C395.5 304.612 395.818 303.892 396.131 303.17C396.601 302.085 397.06 300.998 397.507 299.908L237.334 230.463L258.453 181.752L410.167 247.53C410.342 245.445 410.479 243.361 410.579 241.278L260.8 176.339L281.92 127.628L402.684 179.988C401.892 177.458 401.044 174.946 400.14 172.455L284.266 122.216L306.318 71.3543C305.602 71.0325 304.882 70.7149 304.159 70.4015C303.074 69.9311 301.987 69.4724 300.898 69.0254L278.854 119.869L164.062 70.0995C161.626 71.1427 159.214 72.2403 156.826 73.3917L276.507 125.282L255.388 173.993L106.692 109.523C105.24 111.019 103.812 112.544 102.41 114.096L253.041 179.405L231.922 228.116L72.831 159.139C72.3416 160.21 71.8616 161.288 71.3912 162.373C71.0779 163.096 70.7697 163.819 70.4667 164.544L229.575 233.528L208.456 282.239L57.4632 216.774C57.2743 218.852 57.1227 220.93 57.0083 223.006L206.109 287.652L184.989 336.363L64.3811 284.071C65.1447 286.587 65.9638 289.086 66.8377 291.566L182.643 341.775L160.129 393.701C161.2 394.191 162.278 394.671 163.363 395.141C164.085 395.455 164.809 395.763 165.534 396.066L188.055 344.121L304.943 394.8C307.35 393.743 309.734 392.633 312.092 391.47L190.402 338.709L211.521 289.998L361.704 355.113C363.142 353.61 364.555 352.079 365.943 350.521L213.868 284.586L234.987 235.875L395.178 305.328Z"/>
</mask>
<path fill-rule="evenodd" clip-rule="evenodd" d="M395.178 305.328C395.5 304.612 395.818 303.892 396.131 303.17C396.601 302.085 397.06 300.998 397.507 299.908L237.334 230.463L258.453 181.752L410.167 247.53C410.342 245.445 410.479 243.361 410.579 241.278L260.8 176.339L281.92 127.628L402.684 179.988C401.892 177.458 401.044 174.946 400.14 172.455L284.266 122.216L306.318 71.3543C305.602 71.0325 304.882 70.7149 304.159 70.4015C303.074 69.9311 301.987 69.4724 300.898 69.0254L278.854 119.869L164.062 70.0995C161.626 71.1427 159.214 72.2403 156.826 73.3917L276.507 125.282L255.388 173.993L106.692 109.523C105.24 111.019 103.812 112.544 102.41 114.096L253.041 179.405L231.922 228.116L72.831 159.139C72.3416 160.21 71.8616 161.288 71.3912 162.373C71.0779 163.096 70.7697 163.819 70.4667 164.544L229.575 233.528L208.456 282.239L57.4632 216.774C57.2743 218.852 57.1227 220.93 57.0083 223.006L206.109 287.652L184.989 336.363L64.3811 284.071C65.1447 286.587 65.9638 289.086 66.8377 291.566L182.643 341.775L160.129 393.701C161.2 394.191 162.278 394.671 163.363 395.141C164.085 395.455 164.809 395.763 165.534 396.066L188.055 344.121L304.943 394.8C307.35 393.743 309.734 392.633 312.092 391.47L190.402 338.709L211.521 289.998L361.704 355.113C363.142 353.61 364.555 352.079 365.943 350.521L213.868 284.586L234.987 235.875L395.178 305.328Z" fill="#30395C"/>
<path d="M395.178 305.328L394.709 306.411L395.777 306.874L396.254 305.812L395.178 305.328ZM397.507 299.908L398.598 300.356L399.038 299.286L397.976 298.826L397.507 299.908ZM237.334 230.463L236.252 229.993L235.782 231.076L236.865 231.545L237.334 230.463ZM258.453 181.752L258.923 180.669L257.84 180.2L257.371 181.282L258.453 181.752ZM410.167 247.53L409.698 248.612L411.206 249.266L411.343 247.628L410.167 247.53ZM410.579 241.278L411.757 241.335L411.796 240.52L411.048 240.196L410.579 241.278ZM260.8 176.339L259.718 175.87L259.248 176.952L260.331 177.422L260.8 176.339ZM281.92 127.628L282.389 126.546L281.306 126.077L280.837 127.159L281.92 127.628ZM402.684 179.988L402.214 181.07L404.58 182.096L403.81 179.635L402.684 179.988ZM400.14 172.455L401.249 172.053L401.076 171.575L400.61 171.373L400.14 172.455ZM284.266 122.216L283.184 121.747L282.714 122.829L283.797 123.298L284.266 122.216ZM306.318 71.3543L307.401 71.8236L307.864 70.7552L306.802 70.278L306.318 71.3543ZM300.898 69.0254L301.346 67.9339L300.276 67.4946L299.816 68.556L300.898 69.0254ZM278.854 119.869L278.385 120.952L279.467 121.421L279.936 120.339L278.854 119.869ZM164.062 70.0995L164.532 69.017L164.065 68.8148L163.598 69.0149L164.062 70.0995ZM156.826 73.3917L156.313 72.3289L153.991 73.4486L156.356 74.4742L156.826 73.3917ZM276.507 125.282L277.59 125.751L278.059 124.669L276.977 124.199L276.507 125.282ZM255.388 173.993L254.918 175.075L256.001 175.544L256.47 174.462L255.388 173.993ZM106.692 109.523L107.161 108.44L106.413 108.116L105.845 108.701L106.692 109.523ZM102.41 114.096L101.534 113.305L100.433 114.525L101.941 115.179L102.41 114.096ZM253.041 179.405L254.124 179.874L254.593 178.792L253.51 178.323L253.041 179.405ZM231.922 228.116L231.452 229.198L232.535 229.668L233.004 228.585L231.922 228.116ZM72.831 159.139L73.3003 158.057L72.2389 157.597L71.758 158.649L72.831 159.139ZM70.4667 164.544L69.3782 164.089L68.929 165.163L69.9974 165.627L70.4667 164.544ZM229.575 233.528L230.657 233.998L231.127 232.915L230.044 232.446L229.575 233.528ZM208.456 282.239L207.986 283.322L209.069 283.791L209.538 282.709L208.456 282.239ZM57.4632 216.774L57.9325 215.691L56.4359 215.042L56.2882 216.667L57.4632 216.774ZM57.0083 223.006L55.8302 222.941L55.785 223.762L56.5389 224.089L57.0083 223.006ZM206.109 287.652L207.191 288.121L207.661 287.038L206.578 286.569L206.109 287.652ZM184.989 336.363L184.52 337.445L185.603 337.914L186.072 336.832L184.989 336.363ZM64.3811 284.071L64.8505 282.988L62.5122 281.974L63.2521 284.413L64.3811 284.071ZM66.8377 291.566L65.725 291.958L65.8961 292.443L66.3684 292.648L66.8377 291.566ZM182.643 341.775L183.725 342.244L184.195 341.162L183.112 340.692L182.643 341.775ZM160.129 393.701L159.047 393.232L158.586 394.293L159.639 394.774L160.129 393.701ZM165.534 396.066L165.079 397.154L166.153 397.603L166.616 396.535L165.534 396.066ZM188.055 344.121L188.524 343.039L187.442 342.57L186.973 343.652L188.055 344.121ZM304.943 394.8L304.473 395.883L304.946 396.087L305.417 395.88L304.943 394.8ZM312.092 391.47L312.614 392.529L314.9 391.402L312.562 390.388L312.092 391.47ZM190.402 338.709L189.319 338.24L188.85 339.322L189.932 339.792L190.402 338.709ZM211.521 289.998L211.991 288.916L210.908 288.446L210.439 289.529L211.521 289.998ZM361.704 355.113L361.235 356.195L361.989 356.522L362.557 355.928L361.704 355.113ZM365.943 350.521L366.824 351.305L367.909 350.087L366.412 349.438L365.943 350.521ZM213.868 284.586L212.785 284.117L212.316 285.199L213.399 285.668L213.868 284.586ZM234.987 235.875L235.457 234.792L234.374 234.323L233.905 235.406L234.987 235.875ZM395.048 302.7C394.737 303.418 394.422 304.133 394.102 304.845L396.254 305.812C396.578 305.091 396.898 304.366 397.213 303.639L395.048 302.7ZM396.416 299.46C395.971 300.542 395.516 301.622 395.048 302.7L397.213 303.639C397.687 302.547 398.149 301.453 398.598 300.356L396.416 299.46ZM236.865 231.545L397.038 300.991L397.976 298.826L237.803 229.38L236.865 231.545ZM257.371 181.282L236.252 229.993L238.416 230.932L259.536 182.221L257.371 181.282ZM410.636 246.447L258.923 180.669L257.984 182.834L409.698 248.612L410.636 246.447ZM409.4 241.222C409.301 243.29 409.165 245.36 408.991 247.431L411.343 247.628C411.519 245.529 411.657 243.431 411.757 241.335L409.4 241.222ZM260.331 177.422L410.109 242.361L411.048 240.196L261.269 175.257L260.331 177.422ZM280.837 127.159L259.718 175.87L261.883 176.809L283.002 128.098L280.837 127.159ZM403.153 178.905L282.389 126.546L281.45 128.711L402.214 181.07L403.153 178.905ZM399.031 172.858C399.929 175.332 400.771 177.827 401.558 180.34L403.81 179.635C403.013 177.089 402.159 174.56 401.249 172.053L399.031 172.858ZM283.797 123.298L399.671 173.538L400.61 171.373L284.736 121.134L283.797 123.298ZM305.236 70.885L283.184 121.747L285.349 122.685L307.401 71.8236L305.236 70.885ZM303.69 71.484C304.408 71.7953 305.123 72.1108 305.835 72.4305L306.802 70.278C306.08 69.9541 305.356 69.6344 304.629 69.319L303.69 71.484ZM300.45 70.1168C301.532 70.5609 302.612 71.0166 303.69 71.484L304.629 69.319C303.537 68.8456 302.442 68.3839 301.346 67.9339L300.45 70.1168ZM279.936 120.339L301.981 69.4947L299.816 68.556L277.771 119.4L279.936 120.339ZM163.593 71.182L278.385 120.952L279.323 118.787L164.532 69.017L163.593 71.182ZM157.338 74.4544C159.71 73.3107 162.107 72.2203 164.527 71.1841L163.598 69.0149C161.146 70.065 158.717 71.1699 156.313 72.3289L157.338 74.4544ZM276.977 124.199L157.295 72.3092L156.356 74.4742L276.038 126.364L276.977 124.199ZM256.47 174.462L277.59 125.751L275.425 124.812L254.305 173.523L256.47 174.462ZM106.222 110.605L254.918 175.075L255.857 172.91L107.161 108.44L106.222 110.605ZM103.285 114.887C104.678 113.345 106.096 111.831 107.538 110.344L105.845 108.701C104.383 110.207 102.946 111.742 101.534 113.305L103.285 114.887ZM253.51 178.323L102.879 113.014L101.941 115.179L252.572 180.487L253.51 178.323ZM233.004 228.585L254.124 179.874L251.959 178.936L230.839 227.647L233.004 228.585ZM72.3617 160.222L231.452 229.198L232.391 227.033L73.3003 158.057L72.3617 160.222ZM72.4737 162.842C72.941 161.764 73.4179 160.694 73.9041 159.63L71.758 158.649C71.2654 159.727 70.7822 160.812 70.3088 161.904L72.4737 162.842ZM71.5552 164.999C71.8562 164.279 72.1624 163.56 72.4737 162.842L70.3088 161.904C69.9934 162.631 69.6832 163.36 69.3782 164.089L71.5552 164.999ZM230.044 232.446L70.936 163.462L69.9974 165.627L229.106 234.611L230.044 232.446ZM209.538 282.709L230.657 233.998L228.493 233.059L207.373 281.77L209.538 282.709ZM56.9939 217.856L207.986 283.322L208.925 281.157L57.9325 215.691L56.9939 217.856ZM58.1863 223.071C58.3 221.009 58.4505 218.945 58.6382 216.881L56.2882 216.667C56.098 218.759 55.9455 220.851 55.8302 222.941L58.1863 223.071ZM206.578 286.569L57.4776 221.924L56.5389 224.089L205.64 288.734L206.578 286.569ZM186.072 336.832L207.191 288.121L205.026 287.182L183.907 335.893L186.072 336.832ZM63.9118 285.153L184.52 337.445L185.459 335.28L64.8505 282.988L63.9118 285.153ZM67.9504 291.173C67.0823 288.711 66.2687 286.228 65.5101 283.728L63.2521 284.413C64.0208 286.947 64.8453 289.462 65.725 291.958L67.9504 291.173ZM183.112 340.692L67.307 290.483L66.3684 292.648L182.173 342.857L183.112 340.692ZM161.212 394.171L183.725 342.244L181.56 341.306L159.047 393.232L161.212 394.171ZM163.832 394.059C162.754 393.591 161.683 393.115 160.62 392.628L159.639 394.774C160.716 395.267 161.801 395.75 162.893 396.224L163.832 394.059ZM165.989 394.977C165.269 394.676 164.55 394.37 163.832 394.059L162.893 396.224C163.621 396.539 164.349 396.849 165.079 397.154L165.989 394.977ZM186.973 343.652L164.451 395.596L166.616 396.535L189.138 344.591L186.973 343.652ZM305.412 393.718L188.524 343.039L187.586 345.204L304.473 395.883L305.412 393.718ZM311.571 390.412C309.228 391.567 306.859 392.67 304.468 393.72L305.417 395.88C307.84 394.817 310.24 393.699 312.614 392.529L311.571 390.412ZM189.932 339.792L311.623 392.553L312.562 390.388L190.871 337.627L189.932 339.792ZM210.439 289.529L189.319 338.24L191.484 339.178L212.604 290.468L210.439 289.529ZM362.174 354.03L211.991 288.916L211.052 291.081L361.235 356.195L362.174 354.03ZM365.062 349.736C363.683 351.284 362.279 352.805 360.852 354.297L362.557 355.928C364.004 354.415 365.426 352.874 366.824 351.305L365.062 349.736ZM213.399 285.668L365.473 351.603L366.412 349.438L214.337 283.503L213.399 285.668ZM233.905 235.406L212.785 284.117L214.95 285.055L236.07 236.344L233.905 235.406ZM395.647 304.246L235.457 234.792L234.518 236.957L394.709 306.411L395.647 304.246Z" fill="#30395C" mask="url(#path-2-inside-1)"/>
<circle cx="233.761" cy="232.771" r="176.974" transform="rotate(23.44 233.761 232.771)" stroke="#30395C" stroke-width="5.89914"/>
<ellipse cx="233.761" cy="232.768" rx="117.983" ry="176.974" transform="rotate(23.44 233.761 232.768)" stroke="#30395C" stroke-width="5.89914"/>
<ellipse cx="233.762" cy="232.768" rx="58.9914" ry="176.974" transform="rotate(23.44 233.762 232.768)" stroke="#30395C" stroke-width="5.89914"/>
<path d="M188.685 359.356H214.393H262.595H288.303H331.797C333.221 360.042 334.818 360.427 336.505 360.427H362.213C368.208 360.427 373.068 355.567 373.068 349.571V251.379C373.068 250.765 373.017 250.162 372.919 249.576C376.787 247.915 379.495 244.072 379.495 239.596V218.225C379.495 214.156 377.22 210.428 373.601 208.569L243.455 141.7C240.341 140.1 236.647 140.1 233.533 141.7L103.388 208.569C99.7683 210.428 97.4929 214.156 97.4929 218.225V239.596C97.4929 244.025 100.145 247.834 103.948 249.523C103.929 249.782 103.92 250.044 103.92 250.308V348.5C103.92 354.495 108.78 359.356 114.776 359.356H188.685Z" fill="white" stroke="white" stroke-width="11"/>
<path d="M104.493 215.955H372.493M114.783 356.429H140.491C143.449 356.429 145.846 354.031 145.846 351.073V252.881C145.846 249.923 143.449 247.525 140.491 247.525H114.783C111.825 247.525 109.427 249.923 109.427 252.881V351.073C109.427 354.031 111.825 356.429 114.783 356.429ZM336.512 357.5H362.22C365.178 357.5 367.576 355.102 367.576 352.144V253.952C367.576 250.994 365.178 248.596 362.22 248.596H336.512C333.554 248.596 331.156 250.994 331.156 253.952V352.144C331.156 355.102 333.554 357.5 336.512 357.5ZM188.693 356.429H214.4C217.358 356.429 219.756 354.031 219.756 351.073V252.881C219.756 249.923 217.358 247.525 214.4 247.525H188.693C185.735 247.525 183.337 249.923 183.337 252.881V351.073C183.337 354.031 185.735 356.429 188.693 356.429ZM262.602 356.429H288.31C291.268 356.429 293.666 354.031 293.666 351.073V252.881C293.666 249.923 291.268 247.525 288.31 247.525H262.602C259.645 247.525 257.247 249.923 257.247 252.881V351.073C257.247 354.031 259.645 356.429 262.602 356.429ZM368.647 245.952H108.356C105.398 245.952 103 243.554 103 240.596V219.225C103 217.217 104.123 215.378 105.908 214.461L236.054 147.592C237.59 146.803 239.413 146.803 240.949 147.592L371.095 214.461C372.88 215.378 374.003 217.217 374.003 219.225V240.596C374.003 243.554 371.605 245.952 368.647 245.952Z" stroke="#30395C" stroke-width="5.35578"/>
<path d="M69.5747 323.697C74.1916 308.781 90.1814 300.589 104.985 305.555L146.884 319.61C152.603 321.529 158.543 322.711 164.561 323.127L238.526 328.241C245.818 328.746 253.144 328.449 260.371 327.356L319.755 318.38C329.949 316.839 339.322 311.894 346.348 304.35L362.075 287.464C373.037 275.694 391.938 276.561 401.777 289.284V289.284C408.006 297.339 408.976 308.283 404.26 317.307L391.016 342.654C385.748 352.736 378.125 361.397 368.795 367.904L328.296 396.147C314.329 405.887 298.105 411.9 281.163 413.614L232.356 418.553C226.131 419.183 219.86 419.227 213.626 418.685L184.148 416.122C171.819 415.05 159.795 411.698 148.689 406.238L120.179 392.221C110.486 387.455 101.839 380.805 94.7445 372.659L75.17 350.185C68.8432 342.921 66.7263 332.9 69.5747 323.697V323.697Z" fill="white"/>
<path d="M424.013 301.449C414.194 295.889 406.252 292.925 398.348 292.893C390.426 292.861 382.775 295.774 373.535 301.463C372.251 302.254 371.479 303.659 371.479 305.154V314.323C371.479 316.733 373.433 318.686 375.842 318.686H421.848C424.257 318.686 426.211 316.733 426.211 314.323V305.227C426.211 303.671 425.376 302.22 424.013 301.449Z" stroke="white" stroke-width="3.04205"/>
<path d="M398.845 291.015C406.173 291.015 412.114 285.075 412.114 277.747C412.114 270.419 406.173 264.479 398.845 264.479C391.517 264.479 385.576 270.419 385.576 277.747C385.576 285.075 391.517 291.015 398.845 291.015Z" stroke="white" stroke-width="3.04205"/>
<path d="M374.482 303C383.592 297.391 390.902 294.668 398.341 294.698C405.784 294.728 413.4 297.514 423.124 303.02C423.915 303.468 424.406 304.316 424.406 305.227V314.323C424.406 315.736 423.26 316.881 421.848 316.881H375.842C374.43 316.881 373.284 315.736 373.284 314.323V305.154C373.284 304.278 373.738 303.458 374.482 303Z" fill="#30395C" stroke="#30395C" stroke-width="0.568464"/>
<path d="M410.308 277.747C410.308 284.078 405.176 289.21 398.845 289.21C392.514 289.21 387.381 284.078 387.381 277.747C387.381 271.416 392.514 266.284 398.845 266.284C405.176 266.284 410.308 271.416 410.308 277.747Z" fill="#30395C" stroke="#30395C" stroke-width="0.568464"/>
<path d="M393.013 324.449C383.194 318.89 375.252 315.925 367.348 315.893C359.426 315.861 351.776 318.775 342.535 324.463C341.251 325.254 340.479 326.66 340.479 328.155V337.323C340.479 339.733 342.433 341.686 344.842 341.686H390.848C393.257 341.686 395.211 339.733 395.211 337.323V328.227C395.211 326.671 394.376 325.221 393.013 324.449Z" stroke="white" stroke-width="3.04205"/>
<path d="M367.845 314.016C375.173 314.016 381.114 308.075 381.114 300.747C381.114 293.419 375.173 287.479 367.845 287.479C360.517 287.479 354.576 293.419 354.576 300.747C354.576 308.075 360.517 314.016 367.845 314.016Z" stroke="white" stroke-width="3.04205"/>
<path d="M343.482 326.001C352.592 320.392 359.902 317.669 367.341 317.699C374.784 317.729 382.4 320.515 392.124 326.02C392.915 326.469 393.406 327.316 393.406 328.227V337.323C393.406 338.736 392.26 339.881 390.848 339.881H344.842C343.43 339.881 342.284 338.736 342.284 337.323V328.155C342.284 327.279 342.738 326.459 343.482 326.001Z" fill="#30395C" stroke="#30395C" stroke-width="0.568464"/>
<path d="M379.308 300.747C379.308 307.078 374.176 312.211 367.845 312.211C361.514 312.211 356.381 307.078 356.381 300.747C356.381 294.416 361.514 289.284 367.845 289.284C374.176 289.284 379.308 294.416 379.308 300.747Z" fill="#30395C" stroke="#30395C" stroke-width="0.568464"/>
<path d="M177.417 345.206C167.598 339.646 159.656 336.682 151.753 336.65C143.83 336.617 136.18 339.531 126.939 345.22C125.655 346.01 124.883 347.416 124.883 348.911V358.08C124.883 360.489 126.837 362.443 129.246 362.443H175.252C177.662 362.443 179.615 360.489 179.615 358.08V348.984C179.615 347.428 178.78 345.977 177.417 345.206Z" stroke="white" stroke-width="3.04205"/>
<path d="M152.249 334.772C159.577 334.772 165.518 328.832 165.518 321.504C165.518 314.176 159.577 308.236 152.249 308.236C144.921 308.236 138.98 314.176 138.98 321.504C138.98 328.832 144.921 334.772 152.249 334.772Z" stroke="white" stroke-width="3.04205"/>
<path d="M127.886 346.757C136.996 341.148 144.306 338.425 151.745 338.455C159.188 338.485 166.804 341.271 176.528 346.777C177.319 347.225 177.81 348.072 177.81 348.984V358.08C177.81 359.492 176.665 360.638 175.252 360.638H129.246C127.834 360.638 126.688 359.492 126.688 358.08V348.911C126.688 348.035 127.142 347.215 127.886 346.757Z" fill="#30395C" stroke="#30395C" stroke-width="0.568464"/>
<path d="M163.712 321.504C163.712 327.835 158.58 332.967 152.249 332.967C145.918 332.967 140.785 327.835 140.785 321.504C140.785 315.173 145.918 310.041 152.249 310.041C158.58 310.041 163.712 315.173 163.712 321.504Z" fill="#30395C" stroke="#30395C" stroke-width="0.568464"/>
<path d="M120.013 329.449C110.194 323.889 102.252 320.925 94.3485 320.893C86.4263 320.86 78.7755 323.774 69.5351 329.463C68.2506 330.253 67.479 331.659 67.479 333.154V342.323C67.479 344.732 69.4325 346.686 71.8423 346.686H117.848C120.257 346.686 122.211 344.732 122.211 342.323V333.227C122.211 331.671 121.376 330.22 120.013 329.449Z" stroke="white" stroke-width="3.04205"/>
<path d="M94.8449 319.015C102.173 319.015 108.114 313.075 108.114 305.747C108.114 298.419 102.173 292.479 94.8449 292.479C87.5168 292.479 81.5761 298.419 81.5761 305.747C81.5761 313.075 87.5168 319.015 94.8449 319.015Z" stroke="white" stroke-width="3.04205"/>
<path d="M70.4815 331C79.5923 325.391 86.9019 322.668 94.3411 322.698C101.784 322.728 109.4 325.514 119.124 331.02C119.915 331.468 120.406 332.315 120.406 333.227V342.323C120.406 343.735 119.26 344.881 117.848 344.881H71.8423C70.4295 344.881 69.2842 343.735 69.2842 342.323V333.154C69.2842 332.278 69.7375 331.458 70.4815 331Z" fill="#30395C" stroke="#30395C" stroke-width="0.568464"/>
<path d="M106.308 305.747C106.308 312.078 101.176 317.21 94.8449 317.21C88.5138 317.21 83.3814 312.078 83.3814 305.747C83.3814 299.416 88.5138 294.284 94.8449 294.284C101.176 294.284 106.308 299.416 106.308 305.747Z" fill="#30395C" stroke="#30395C" stroke-width="0.568464"/>
<path d="M355.377 346.727C345.558 341.167 337.616 338.203 329.712 338.171C321.79 338.139 314.139 341.052 304.899 346.741C303.615 347.532 302.843 348.937 302.843 350.432V359.601C302.843 362.011 304.797 363.964 307.206 363.964H353.212C355.622 363.964 357.575 362.011 357.575 359.601V350.505C357.575 348.949 356.74 347.498 355.377 346.727Z" stroke="white" stroke-width="3.04205"/>
<path d="M330.209 336.293C337.537 336.293 343.478 330.353 343.478 323.025C343.478 315.697 337.537 309.757 330.209 309.757C322.881 309.757 316.94 315.697 316.94 323.025C316.94 330.353 322.881 336.293 330.209 336.293Z" stroke="white" stroke-width="3.04205"/>
<path d="M305.846 348.278C314.956 342.669 322.266 339.946 329.705 339.976C337.148 340.006 344.764 342.792 354.488 348.298C355.279 348.746 355.77 349.593 355.77 350.505V359.601C355.77 361.014 354.624 362.159 353.212 362.159H307.206C305.794 362.159 304.648 361.014 304.648 359.601V350.432C304.648 349.556 305.102 348.736 305.846 348.278Z" fill="#30395C" stroke="#30395C" stroke-width="0.568464"/>
<path d="M341.672 323.025C341.672 329.356 336.54 334.488 330.209 334.488C323.878 334.488 318.745 329.356 318.745 323.025C318.745 316.694 323.878 311.562 330.209 311.562C336.54 311.562 341.672 316.694 341.672 323.025Z" fill="#30395C" stroke="#30395C" stroke-width="0.568464"/>
<path d="M134.013 360.449C124.194 354.889 116.252 351.925 108.348 351.893C100.426 351.861 92.7755 354.774 83.5351 360.463C82.2506 361.254 81.479 362.659 81.479 364.154V373.323C81.479 375.733 83.4325 377.686 85.8423 377.686H131.848C134.257 377.686 136.211 375.733 136.211 373.323V364.227C136.211 362.671 135.376 361.22 134.013 360.449Z" stroke="white" stroke-width="3.04205"/>
<path d="M108.845 350.015C116.173 350.015 122.114 344.075 122.114 336.747C122.114 329.419 116.173 323.479 108.845 323.479C101.517 323.479 95.5761 329.419 95.5761 336.747C95.5761 344.075 101.517 350.015 108.845 350.015Z" stroke="white" stroke-width="3.04205"/>
<path d="M84.4815 362C93.5923 356.391 100.902 353.668 108.341 353.698C115.784 353.728 123.4 356.514 133.124 362.02C133.915 362.468 134.406 363.316 134.406 364.227V373.323C134.406 374.736 133.26 375.881 131.848 375.881H85.8423C84.4295 375.881 83.2842 374.736 83.2842 373.323V364.154C83.2842 363.278 83.7375 362.458 84.4815 362Z" fill="#30395C" stroke="#30395C" stroke-width="0.568464"/>
<path d="M120.308 336.747C120.308 343.078 115.176 348.21 108.845 348.21C102.514 348.21 97.3814 343.078 97.3814 336.747C97.3814 330.416 102.514 325.284 108.845 325.284C115.176 325.284 120.308 330.416 120.308 336.747Z" fill="#30395C" stroke="#30395C" stroke-width="0.568464"/>
<path d="M237.013 351.449C227.194 345.889 219.252 342.925 211.348 342.893C203.426 342.86 195.775 345.774 186.535 351.463C185.251 352.253 184.479 353.659 184.479 355.154V364.323C184.479 366.732 186.433 368.686 188.842 368.686H234.848C237.257 368.686 239.211 366.732 239.211 364.323V355.227C239.211 353.671 238.376 352.22 237.013 351.449Z" stroke="white" stroke-width="3.04205"/>
<path d="M211.844 341.015C219.172 341.015 225.113 335.075 225.113 327.747C225.113 320.419 219.172 314.479 211.844 314.479C204.516 314.479 198.576 320.419 198.576 327.747C198.576 335.075 204.516 341.015 211.844 341.015Z" stroke="white" stroke-width="3.04205"/>
<path d="M187.482 353C196.592 347.391 203.902 344.668 211.341 344.698C218.784 344.728 226.4 347.514 236.124 353.02C236.915 353.468 237.406 354.315 237.406 355.227V364.323C237.406 365.735 236.26 366.881 234.848 366.881H188.842C187.43 366.881 186.284 365.735 186.284 364.323V355.154C186.284 354.278 186.738 353.458 187.482 353Z" fill="#30395C" stroke="#30395C" stroke-width="0.568464"/>
<path d="M223.308 327.747C223.308 334.078 218.176 339.21 211.844 339.21C205.513 339.21 200.381 334.078 200.381 327.747C200.381 321.416 205.513 316.284 211.844 316.284C218.176 316.284 223.308 321.416 223.308 327.747Z" fill="#30395C" stroke="#30395C" stroke-width="0.568464"/>
<path d="M211.013 369.449C201.194 363.889 193.252 360.925 185.348 360.893C177.426 360.861 169.775 363.774 160.535 369.463C159.251 370.254 158.479 371.659 158.479 373.154V382.323C158.479 384.733 160.433 386.686 162.842 386.686H208.848C211.257 386.686 213.211 384.733 213.211 382.323V373.227C213.211 371.671 212.376 370.22 211.013 369.449Z" stroke="white" stroke-width="3.04205"/>
<path d="M185.845 359.015C193.173 359.015 199.114 353.075 199.114 345.747C199.114 338.419 193.173 332.479 185.845 332.479C178.517 332.479 172.576 338.419 172.576 345.747C172.576 353.075 178.517 359.015 185.845 359.015Z" stroke="white" stroke-width="3.04205"/>
<path d="M161.482 371C170.592 365.391 177.902 362.668 185.341 362.698C192.784 362.728 200.4 365.514 210.124 371.02C210.915 371.468 211.406 372.316 211.406 373.227V382.323C211.406 383.736 210.26 384.881 208.848 384.881H162.842C161.43 384.881 160.284 383.736 160.284 382.323V373.154C160.284 372.278 160.738 371.458 161.482 371Z" fill="#30395C" stroke="#30395C" stroke-width="0.568464"/>
<path d="M197.308 345.747C197.308 352.078 192.176 357.21 185.845 357.21C179.514 357.21 174.381 352.078 174.381 345.747C174.381 339.416 179.514 334.284 185.845 334.284C192.176 334.284 197.308 339.416 197.308 345.747Z" fill="#30395C" stroke="#30395C" stroke-width="0.568464"/>
<path d="M285.41 352.811C275.591 347.251 267.649 344.287 259.745 344.255C251.823 344.223 244.172 347.136 234.932 352.825C233.648 353.616 232.876 355.021 232.876 356.516V365.685C232.876 368.095 234.829 370.048 237.239 370.048H283.245C285.654 370.048 287.608 368.095 287.608 365.685V356.589C287.608 355.033 286.773 353.583 285.41 352.811Z" stroke="white" stroke-width="3.04205"/>
<path d="M260.242 342.377C267.57 342.377 273.511 336.437 273.511 329.109C273.511 321.781 267.57 315.841 260.242 315.841C252.914 315.841 246.973 321.781 246.973 329.109C246.973 336.437 252.914 342.377 260.242 342.377Z" stroke="white" stroke-width="3.04205"/>
<path d="M235.879 354.362C244.989 348.753 252.299 346.03 259.738 346.06C267.181 346.09 274.797 348.876 284.521 354.382C285.312 354.83 285.803 355.678 285.803 356.589V365.685C285.803 367.098 284.657 368.243 283.245 368.243H237.239C235.827 368.243 234.681 367.098 234.681 365.685V356.516C234.681 355.64 235.134 354.82 235.879 354.362Z" fill="#30395C" stroke="#30395C" stroke-width="0.568464"/>
<path d="M271.705 329.109C271.705 335.44 266.573 340.572 260.242 340.572C253.911 340.572 248.778 335.44 248.778 329.109C248.778 322.778 253.911 317.646 260.242 317.646C266.573 317.646 271.705 322.778 271.705 329.109Z" fill="#30395C" stroke="#30395C" stroke-width="0.568464"/>
<path d="M405.013 355.449C395.194 349.89 387.252 346.925 379.348 346.893C371.426 346.861 363.776 349.775 354.535 355.463C353.251 356.254 352.479 357.66 352.479 359.155V368.323C352.479 370.733 354.433 372.686 356.842 372.686H402.848C405.257 372.686 407.211 370.733 407.211 368.323V359.227C407.211 357.671 406.376 356.221 405.013 355.449Z" stroke="white" stroke-width="3.04205"/>
<path d="M379.845 345.016C387.173 345.016 393.114 339.075 393.114 331.747C393.114 324.419 387.173 318.479 379.845 318.479C372.517 318.479 366.576 324.419 366.576 331.747C366.576 339.075 372.517 345.016 379.845 345.016Z" stroke="white" stroke-width="3.04205"/>
<path d="M355.482 357.001C364.592 351.392 371.902 348.669 379.341 348.699C386.784 348.729 394.4 351.515 404.124 357.02C404.915 357.469 405.406 358.316 405.406 359.227V368.323C405.406 369.735 404.26 370.881 402.848 370.881H356.842C355.43 370.881 354.284 369.736 354.284 368.323V359.155C354.284 358.279 354.738 357.459 355.482 357.001Z" fill="#30395C" stroke="#30395C" stroke-width="0.568464"/>
<path d="M391.308 331.747C391.308 338.078 386.176 343.211 379.845 343.211C373.514 343.211 368.381 338.078 368.381 331.747C368.381 325.416 373.514 320.284 379.845 320.284C386.176 320.284 391.308 325.416 391.308 331.747Z" fill="#30395C" stroke="#30395C" stroke-width="0.568464"/>
<path d="M323.013 368.449C313.194 362.889 305.252 359.925 297.348 359.893C289.426 359.861 281.775 362.774 272.535 368.463C271.251 369.254 270.479 370.659 270.479 372.154V381.323C270.479 383.733 272.433 385.686 274.842 385.686H320.848C323.257 385.686 325.211 383.733 325.211 381.323V372.227C325.211 370.671 324.376 369.22 323.013 368.449Z" stroke="white" stroke-width="3.04205"/>
<path d="M297.844 358.015C305.172 358.015 311.113 352.075 311.113 344.747C311.113 337.419 305.172 331.479 297.844 331.479C290.516 331.479 284.576 337.419 284.576 344.747C284.576 352.075 290.516 358.015 297.844 358.015Z" stroke="white" stroke-width="3.04205"/>
<path d="M273.482 370C282.592 364.391 289.902 361.668 297.341 361.698C304.784 361.728 312.4 364.514 322.124 370.02C322.915 370.468 323.406 371.316 323.406 372.227V381.323C323.406 382.736 322.26 383.881 320.848 383.881H274.842C273.43 383.881 272.284 382.736 272.284 381.323V372.154C272.284 371.278 272.738 370.458 273.482 370Z" fill="#30395C" stroke="#30395C" stroke-width="0.568464"/>
<path d="M309.308 344.747C309.308 351.078 304.176 356.21 297.844 356.21C291.513 356.21 286.381 351.078 286.381 344.747C286.381 338.416 291.513 333.284 297.844 333.284C304.176 333.284 309.308 338.416 309.308 344.747Z" fill="#30395C" stroke="#30395C" stroke-width="0.568464"/>
<path d="M173.013 382.449C163.194 376.889 155.252 373.925 147.348 373.893C139.426 373.86 131.775 376.774 122.535 382.463C121.251 383.253 120.479 384.659 120.479 386.154V395.323C120.479 397.732 122.433 399.686 124.842 399.686H170.848C173.257 399.686 175.211 397.732 175.211 395.323V386.227C175.211 384.671 174.376 383.22 173.013 382.449Z" stroke="white" stroke-width="3.04205"/>
<path d="M147.844 372.015C155.172 372.015 161.113 366.075 161.113 358.747C161.113 351.419 155.172 345.479 147.844 345.479C140.516 345.479 134.576 351.419 134.576 358.747C134.576 366.075 140.516 372.015 147.844 372.015Z" stroke="white" stroke-width="3.04205"/>
<path d="M123.482 384C132.592 378.391 139.902 375.668 147.341 375.698C154.784 375.728 162.4 378.514 172.124 384.02C172.915 384.468 173.406 385.315 173.406 386.227V395.323C173.406 396.735 172.26 397.881 170.848 397.881H124.842C123.43 397.881 122.284 396.735 122.284 395.323V386.154C122.284 385.278 122.738 384.458 123.482 384Z" fill="#30395C" stroke="#30395C" stroke-width="0.568464"/>
<path d="M159.308 358.747C159.308 365.078 154.176 370.21 147.844 370.21C141.513 370.21 136.381 365.078 136.381 358.747C136.381 352.416 141.513 347.284 147.844 347.284C154.176 347.284 159.308 352.416 159.308 358.747Z" fill="#30395C" stroke="#30395C" stroke-width="0.568464"/>
<path d="M263.013 382.449C253.194 376.889 245.252 373.925 237.348 373.893C229.426 373.861 221.775 376.774 212.535 382.463C211.251 383.254 210.479 384.659 210.479 386.154V395.323C210.479 397.733 212.433 399.686 214.842 399.686H260.848C263.257 399.686 265.211 397.733 265.211 395.323V386.227C265.211 384.671 264.376 383.22 263.013 382.449Z" stroke="white" stroke-width="3.04205"/>
<path d="M237.845 372.015C245.173 372.015 251.114 366.075 251.114 358.747C251.114 351.419 245.173 345.479 237.845 345.479C230.517 345.479 224.576 351.419 224.576 358.747C224.576 366.075 230.517 372.015 237.845 372.015Z" stroke="white" stroke-width="3.04205"/>
<path d="M213.482 384C222.592 378.391 229.902 375.668 237.341 375.698C244.784 375.728 252.4 378.514 262.124 384.02C262.915 384.468 263.406 385.316 263.406 386.227V395.323C263.406 396.736 262.26 397.881 260.848 397.881H214.842C213.43 397.881 212.284 396.736 212.284 395.323V386.154C212.284 385.278 212.738 384.458 213.482 384Z" fill="#30395C" stroke="#30395C" stroke-width="0.568464"/>
<path d="M249.308 358.747C249.308 365.078 244.176 370.21 237.845 370.21C231.514 370.21 226.381 365.078 226.381 358.747C226.381 352.416 231.514 347.284 237.845 347.284C244.176 347.284 249.308 352.416 249.308 358.747Z" fill="#30395C" stroke="#30395C" stroke-width="0.568464"/>
<path d="M237.013 400.449C227.194 394.889 219.252 391.925 211.348 391.893C203.426 391.86 195.775 394.774 186.535 400.463C185.251 401.253 184.479 402.659 184.479 404.154V413.323C184.479 415.732 186.433 417.686 188.842 417.686H234.848C237.257 417.686 239.211 415.732 239.211 413.323V404.227C239.211 402.671 238.376 401.22 237.013 400.449Z" stroke="white" stroke-width="3.04205"/>
<path d="M211.845 390.015C219.173 390.015 225.114 384.075 225.114 376.747C225.114 369.419 219.173 363.479 211.845 363.479C204.517 363.479 198.576 369.419 198.576 376.747C198.576 384.075 204.517 390.015 211.845 390.015Z" stroke="white" stroke-width="3.04205"/>
<path d="M187.482 402C196.592 396.391 203.902 393.668 211.341 393.698C218.784 393.728 226.4 396.514 236.124 402.02C236.915 402.468 237.406 403.315 237.406 404.227V413.323C237.406 414.735 236.26 415.881 234.848 415.881H188.842C187.43 415.881 186.284 414.735 186.284 413.323V404.154C186.284 403.278 186.738 402.458 187.482 402Z" fill="#30395C" stroke="#30395C" stroke-width="0.568464"/>
<path d="M223.308 376.747C223.308 383.078 218.176 388.21 211.845 388.21C205.514 388.21 200.381 383.078 200.381 376.747C200.381 370.416 205.514 365.284 211.845 365.284C218.176 365.284 223.308 370.416 223.308 376.747Z" fill="#30395C" stroke="#30395C" stroke-width="0.568464"/>
<path d="M301.013 397.449C291.194 391.889 283.252 388.925 275.348 388.893C267.426 388.86 259.775 391.774 250.535 397.463C249.251 398.253 248.479 399.659 248.479 401.154V410.323C248.479 412.732 250.433 414.686 252.842 414.686H298.848C301.257 414.686 303.211 412.732 303.211 410.323V401.227C303.211 399.671 302.376 398.22 301.013 397.449Z" stroke="white" stroke-width="3.04205"/>
<path d="M275.845 387.015C283.173 387.015 289.114 381.075 289.114 373.747C289.114 366.419 283.173 360.479 275.845 360.479C268.517 360.479 262.576 366.419 262.576 373.747C262.576 381.075 268.517 387.015 275.845 387.015Z" stroke="white" stroke-width="3.04205"/>
<path d="M251.482 399C260.592 393.391 267.902 390.668 275.341 390.698C282.784 390.728 290.4 393.514 300.124 399.02C300.915 399.468 301.406 400.315 301.406 401.227V410.323C301.406 411.735 300.26 412.881 298.848 412.881H252.842C251.43 412.881 250.284 411.735 250.284 410.323V401.154C250.284 400.278 250.738 399.458 251.482 399Z" fill="#30395C" stroke="#30395C" stroke-width="0.568464"/>
<path d="M287.308 373.747C287.308 380.078 282.176 385.21 275.845 385.21C269.514 385.21 264.381 380.078 264.381 373.747C264.381 367.416 269.514 362.284 275.845 362.284C282.176 362.284 287.308 367.416 287.308 373.747Z" fill="#30395C" stroke="#30395C" stroke-width="0.568464"/>
<path d="M367.013 384.449C357.194 378.889 349.252 375.925 341.348 375.893C333.426 375.86 325.775 378.774 316.535 384.463C315.251 385.253 314.479 386.659 314.479 388.154V397.323C314.479 399.732 316.433 401.686 318.842 401.686H364.848C367.257 401.686 369.211 399.732 369.211 397.323V388.227C369.211 386.671 368.376 385.22 367.013 384.449Z" stroke="white" stroke-width="3.04205"/>
<path d="M341.845 374.015C349.173 374.015 355.114 368.075 355.114 360.747C355.114 353.419 349.173 347.479 341.845 347.479C334.517 347.479 328.576 353.419 328.576 360.747C328.576 368.075 334.517 374.015 341.845 374.015Z" stroke="white" stroke-width="3.04205"/>
<path d="M317.482 386C326.592 380.391 333.902 377.668 341.341 377.698C348.784 377.728 356.4 380.514 366.124 386.02C366.915 386.468 367.406 387.315 367.406 388.227V397.323C367.406 398.735 366.26 399.881 364.848 399.881H318.842C317.43 399.881 316.284 398.735 316.284 397.323V388.154C316.284 387.278 316.738 386.458 317.482 386Z" fill="#30395C" stroke="#30395C" stroke-width="0.568464"/>
<path d="M353.308 360.747C353.308 367.078 348.176 372.21 341.845 372.21C335.514 372.21 330.381 367.078 330.381 360.747C330.381 354.416 335.514 349.284 341.845 349.284C348.176 349.284 353.308 354.416 353.308 360.747Z" fill="#30395C" stroke="#30395C" stroke-width="0.568464"/>
</svg>
