<svg width="293" height="290" viewBox="0 0 293 290" fill="none" xmlns="http://www.w3.org/2000/svg">
<path d="M139 20C150.999 48.0265 154.204 64.7304 128 103.5M139 20C192.456 19.0026 218.17 29.337 257.5 64.5M139 20C66.4124 44.4511 41.6682 70.1966 24.5 136.5M139 20C183.672 79.3939 211.337 112.022 150.5 198.5M128 103.5C187.655 96.5161 216.96 103.595 241.5 151.5M128 103.5C172.614 70.3276 200.352 59.9366 257.5 64.5M128 103.5C85.3013 88.289 62.4742 93.4737 24.5 136.5M128 103.5C113.548 148.611 117.33 169.761 150.5 198.5M128 103.5C58.5071 149.997 59.9851 188.356 84.5 261.5M257.5 64.5C235.673 94.9304 230.146 113.519 241.5 151.5M257.5 64.5C295.151 137.492 309.774 178.421 251.5 251.5M241.5 151.5C213.98 192.609 194.337 203.718 150.5 198.5M241.5 151.5C227.549 195.817 231.895 217.076 251.5 251.5M24.5 136.5C12.9544 209.326 27.6195 235.643 84.5 261.5M24.5 136.5C66.0662 197.311 95.8424 200.4 150.5 198.5M84.5 261.5C125.341 248.569 138.025 233.406 150.5 198.5M84.5 261.5C178.615 280.416 210.75 274.727 251.5 251.5M150.5 198.5C186.5 236.52 208.59 248.332 251.5 251.5" stroke="#30395C" stroke-width="3"/>
<circle cx="251.5" cy="255.5" r="24.5" fill="white"/>
<path d="M233.975 259.52C240.533 255.472 245.789 253.505 251.139 253.527C256.492 253.548 261.969 255.56 268.969 259.533C269.49 259.828 269.813 260.386 269.813 260.985V267.758C269.813 268.686 269.06 269.439 268.131 269.439H234.869C233.94 269.439 233.187 268.686 233.187 267.758V260.937C233.187 260.361 233.486 259.821 233.975 259.52Z" fill="#30395C" stroke="#30395C" stroke-width="0.373737"/>
<circle cx="251.5" cy="241.409" r="8.22222" fill="#30395C" stroke="#30395C" stroke-width="0.373737"/>
<circle cx="241.5" cy="155.5" r="24.5" fill="white"/>
<path d="M223.975 159.52C230.533 155.472 235.789 153.505 241.139 153.527C246.492 153.548 251.969 155.56 258.969 159.533C259.49 159.828 259.813 160.386 259.813 160.985V167.758C259.813 168.686 259.06 169.439 258.131 169.439H224.869C223.94 169.439 223.187 168.686 223.187 167.758V160.937C223.187 160.361 223.486 159.821 223.975 159.52Z" fill="#30395C" stroke="#30395C" stroke-width="0.373737"/>
<circle cx="241.5" cy="141.409" r="8.22222" fill="#30395C" stroke="#30395C" stroke-width="0.373737"/>
<circle cx="127.5" cy="107.5" r="24.5" fill="white"/>
<path d="M109.975 111.52C116.533 107.472 121.789 105.505 127.139 105.527C132.492 105.548 137.969 107.56 144.969 111.533C145.49 111.828 145.813 112.386 145.813 112.985V119.758C145.813 120.686 145.06 121.439 144.131 121.439H110.869C109.94 121.439 109.187 120.686 109.187 119.758V112.937C109.187 112.361 109.486 111.821 109.975 111.52Z" fill="#30395C" stroke="#30395C" stroke-width="0.373737"/>
<circle cx="127.5" cy="93.4091" r="8.22222" fill="#30395C" stroke="#30395C" stroke-width="0.373737"/>
<circle cx="257.5" cy="68.5" r="24.5" fill="white"/>
<path d="M239.975 72.5196C246.533 68.4717 251.789 66.5049 257.139 66.5266C262.492 66.5484 267.969 68.5602 274.969 72.5328C275.49 72.8281 275.813 73.3858 275.813 73.9848V80.7576C275.813 81.6864 275.06 82.4394 274.131 82.4394H240.869C239.94 82.4394 239.187 81.6864 239.187 80.7576V73.9371C239.187 73.3612 239.486 72.8215 239.975 72.5196Z" fill="#30395C" stroke="#30395C" stroke-width="0.373737"/>
<circle cx="257.5" cy="54.4091" r="8.22222" fill="#30395C" stroke="#30395C" stroke-width="0.373737"/>
<circle cx="139.5" cy="24.5" r="24.5" fill="white"/>
<path d="M121.975 28.5196C128.533 24.4717 133.789 22.5049 139.139 22.5266C144.492 22.5484 149.969 24.5602 156.969 28.5328C157.49 28.8281 157.813 29.3858 157.813 29.9848V36.7576C157.813 37.6864 157.06 38.4394 156.131 38.4394H122.869C121.94 38.4394 121.187 37.6864 121.187 36.7576V29.9371C121.187 29.3612 121.486 28.8215 121.975 28.5196Z" fill="#30395C" stroke="#30395C" stroke-width="0.373737"/>
<circle cx="139.5" cy="10.4091" r="8.22222" fill="#30395C" stroke="#30395C" stroke-width="0.373737"/>
<circle cx="24.5" cy="140.5" r="24.5" fill="white"/>
<path d="M6.97486 144.52C13.5334 140.472 18.789 138.505 24.1395 138.527C29.4922 138.548 34.9687 140.56 41.9694 144.533C42.4898 144.828 42.8131 145.386 42.8131 145.985V152.758C42.8131 153.686 42.0602 154.439 41.1313 154.439H7.86869C6.93984 154.439 6.18687 153.686 6.18687 152.758V145.937C6.18687 145.361 6.48578 144.821 6.97486 144.52Z" fill="#30395C" stroke="#30395C" stroke-width="0.373737"/>
<circle cx="24.5" cy="126.409" r="8.22222" fill="#30395C" stroke="#30395C" stroke-width="0.373737"/>
<circle cx="84.5" cy="265.5" r="24.5" fill="white"/>
<path d="M66.9749 269.52C73.5334 265.472 78.789 263.505 84.1395 263.527C89.4922 263.548 94.9687 265.56 101.969 269.533C102.49 269.828 102.813 270.386 102.813 270.985V277.758C102.813 278.686 102.06 279.439 101.131 279.439H67.8687C66.9398 279.439 66.1869 278.686 66.1869 277.758V270.937C66.1869 270.361 66.4858 269.821 66.9749 269.52Z" fill="#30395C" stroke="#30395C" stroke-width="0.373737"/>
<circle cx="84.5" cy="251.409" r="8.22222" fill="#30395C" stroke="#30395C" stroke-width="0.373737"/>
<circle cx="150.5" cy="202.5" r="24.5" fill="white"/>
<path d="M132.975 206.52C139.533 202.472 144.789 200.505 150.139 200.527C155.492 200.548 160.969 202.56 167.969 206.533C168.49 206.828 168.813 207.386 168.813 207.985V214.758C168.813 215.686 168.06 216.439 167.131 216.439H133.869C132.94 216.439 132.187 215.686 132.187 214.758V207.937C132.187 207.361 132.486 206.821 132.975 206.52Z" fill="#30395C" stroke="#30395C" stroke-width="0.373737"/>
<circle cx="150.5" cy="188.409" r="8.22222" fill="#30395C" stroke="#30395C" stroke-width="0.373737"/>
</svg>
