<svg width="265" height="376" viewBox="0 0 265 376" fill="none" xmlns="http://www.w3.org/2000/svg">
<rect x="2.5" y="2.5" width="260" height="371" rx="2.5" stroke="#30395C" stroke-width="5"/>
<rect x="173.5" y="295.969" width="47" height="47" rx="3.5" stroke="#30395C" stroke-width="3"/>
<path d="M178 317.469C183.844 320.616 189.285 327.401 192.867 336.007C193.243 336.909 194.6 336.858 194.875 335.92C199.117 321.43 203.839 310.356 216 301.469" stroke="#30395C" stroke-width="5"/>
<rect x="44.5" y="295.969" width="47" height="47" rx="3.5" stroke="#30395C" stroke-width="3"/>
<path d="M30.3 163.04L35.34 154H38.7L29.46 168.88L24.86 154H28.06L30.3 163.04ZM37.8356 161C37.9956 159.973 38.3223 159.02 38.8156 158.14C39.309 157.26 39.929 156.493 40.6756 155.84C41.4223 155.173 42.2623 154.653 43.1956 154.28C44.1423 153.907 45.1423 153.72 46.1956 153.72C47.2356 153.72 48.1623 153.913 48.9756 154.3C49.789 154.687 50.4623 155.22 50.9956 155.9C51.5423 156.567 51.9223 157.34 52.1356 158.22C52.3623 159.087 52.4023 160.013 52.2556 161C52.0956 162.013 51.769 162.967 51.2756 163.86C50.7956 164.753 50.1823 165.54 49.4356 166.22C48.689 166.887 47.8423 167.413 46.8956 167.8C45.949 168.173 44.9423 168.36 43.8756 168.36C42.8223 168.36 41.889 168.167 41.0756 167.78C40.2623 167.38 39.589 166.84 39.0556 166.16C38.5356 165.467 38.1623 164.68 37.9356 163.8C37.7223 162.92 37.689 161.987 37.8356 161ZM40.8356 161C40.7156 161.787 40.7556 162.527 40.9556 163.22C41.169 163.913 41.5423 164.48 42.0756 164.92C42.6223 165.36 43.3223 165.58 44.1756 165.58C45.0423 165.593 45.829 165.393 46.5356 164.98C47.2556 164.553 47.849 163.993 48.3156 163.3C48.7956 162.593 49.109 161.827 49.2556 161C49.389 160.213 49.349 159.473 49.1356 158.78C48.9356 158.073 48.5623 157.507 48.0156 157.08C47.4823 156.64 46.7823 156.413 45.9156 156.4C45.049 156.4 44.2556 156.613 43.5356 157.04C42.8156 157.453 42.2223 158.007 41.7556 158.7C41.289 159.393 40.9823 160.16 40.8356 161ZM53.1323 156.6L53.5923 154H63.7723L63.3123 156.6H59.6523L57.6923 168H54.8523L56.8123 156.6H53.1323ZM65.2648 154H73.9848L73.5648 156.44H67.6048L67.1048 159.38H72.6648L72.2448 161.76H66.6848L66.0448 165.56H72.0048L71.5848 168H62.8848L65.2648 154ZM37.4215 179.28C37.4615 178.84 37.6482 178.46 37.9815 178.14C38.3148 177.82 38.7082 177.66 39.1615 177.66C39.6282 177.66 40.0015 177.827 40.2815 178.16C40.5748 178.493 40.7015 178.873 40.6615 179.3C40.6215 179.74 40.4348 180.12 40.1015 180.44C39.7682 180.747 39.3682 180.9 38.9015 180.9C38.4482 180.9 38.0748 180.74 37.7815 180.42C37.5015 180.087 37.3815 179.707 37.4215 179.28ZM67.38 182.76L71.62 174H74.98L66.96 188.82L64.1 179.68L58.36 188.82L54.94 174H58.22L59.72 182.74L65.04 173.24L67.38 182.76ZM74.2419 181C74.4019 179.973 74.7285 179.02 75.2219 178.14C75.7152 177.26 76.3352 176.493 77.0819 175.84C77.8285 175.173 78.6685 174.653 79.6019 174.28C80.5485 173.907 81.5485 173.72 82.6019 173.72C83.6419 173.72 84.5685 173.913 85.3819 174.3C86.1952 174.687 86.8685 175.22 87.4019 175.9C87.9485 176.567 88.3285 177.34 88.5419 178.22C88.7685 179.087 88.8085 180.013 88.6619 181C88.5019 182.013 88.1752 182.967 87.6819 183.86C87.2019 184.753 86.5885 185.54 85.8419 186.22C85.0952 186.887 84.2485 187.413 83.3019 187.8C82.3552 188.173 81.3485 188.36 80.2819 188.36C79.2285 188.36 78.2952 188.167 77.4819 187.78C76.6685 187.38 75.9952 186.84 75.4619 186.16C74.9419 185.467 74.5685 184.68 74.3419 183.8C74.1285 182.92 74.0952 181.987 74.2419 181ZM77.2419 181C77.1219 181.787 77.1619 182.527 77.3619 183.22C77.5752 183.913 77.9485 184.48 78.4819 184.92C79.0285 185.36 79.7285 185.58 80.5819 185.58C81.4485 185.593 82.2352 185.393 82.9419 184.98C83.6619 184.553 84.2552 183.993 84.7219 183.3C85.2019 182.593 85.5152 181.827 85.6619 181C85.7952 180.213 85.7552 179.473 85.5419 178.78C85.3419 178.073 84.9685 177.507 84.4219 177.08C83.8885 176.64 83.1885 176.413 82.3219 176.4C81.4552 176.4 80.6619 176.613 79.9419 177.04C79.2219 177.453 78.6285 178.007 78.1619 178.7C77.6952 179.393 77.3885 180.16 77.2419 181ZM91.9641 174H96.4841C97.4707 174 98.3174 174.187 99.0241 174.56C99.7307 174.933 100.251 175.46 100.584 176.14C100.931 176.807 101.044 177.587 100.924 178.48C100.777 179.493 100.377 180.36 99.7241 181.08C99.0841 181.787 98.2774 182.293 97.3041 182.6L100.044 188H96.8041L94.4841 182.92H93.2841L92.4041 188H89.5841L91.9641 174ZM96.0441 176.48H94.3841L93.6641 180.64H95.1841C95.8774 180.64 96.4841 180.46 97.0041 180.1C97.5374 179.727 97.8641 179.207 97.9841 178.54C98.0907 177.913 97.9574 177.413 97.5841 177.04C97.2241 176.667 96.7107 176.48 96.0441 176.48ZM103.976 174H106.836L104.856 185.48H110.276L109.836 188H101.576L103.976 174ZM116.101 188H111.381L113.761 174H118.321C119.734 174 120.928 174.307 121.901 174.92C122.874 175.533 123.581 176.367 124.021 177.42C124.461 178.473 124.581 179.667 124.381 181C124.168 182.373 123.674 183.587 122.901 184.64C122.141 185.693 121.174 186.52 120.001 187.12C118.841 187.707 117.541 188 116.101 188ZM117.961 176.6H116.241L114.721 185.38H116.301C117.154 185.38 117.941 185.207 118.661 184.86C119.394 184.513 120.001 184.013 120.481 183.36C120.974 182.707 121.301 181.92 121.461 181C121.661 179.667 121.441 178.6 120.801 177.8C120.161 177 119.214 176.6 117.961 176.6ZM133.663 174H138.003C138.99 174 139.83 174.187 140.523 174.56C141.23 174.92 141.75 175.433 142.083 176.1C142.417 176.767 142.53 177.56 142.423 178.48C142.317 179.413 141.997 180.213 141.463 180.88C140.93 181.533 140.25 182.033 139.423 182.38C138.597 182.727 137.677 182.907 136.663 182.92H134.983L134.103 188H131.283L133.663 174ZM137.743 176.44H136.083L135.403 180.48H136.903C137.597 180.467 138.203 180.293 138.723 179.96C139.243 179.613 139.563 179.113 139.683 178.46C139.79 177.833 139.657 177.34 139.283 176.98C138.923 176.62 138.41 176.44 137.743 176.44ZM145.304 174H154.024L153.604 176.44H147.644L147.144 179.38H152.704L152.284 181.76H146.724L146.084 185.56H152.044L151.624 188H142.924L145.304 174ZM163.531 188L162.651 184.84H158.031L156.071 188H152.811L162.291 173.12L166.651 188H163.531ZM161.391 178.56L159.051 182.56H162.391L161.391 178.56ZM170.994 181C170.86 181.813 170.92 182.56 171.174 183.24C171.427 183.92 171.834 184.467 172.394 184.88C172.967 185.293 173.66 185.5 174.474 185.5C175.407 185.513 176.247 185.333 176.994 184.96C177.754 184.573 178.427 184.127 179.014 183.62L178.534 186.84C177.894 187.28 177.214 187.633 176.494 187.9C175.787 188.153 174.974 188.28 174.054 188.28C173 188.28 172.06 188.087 171.234 187.7C170.42 187.313 169.74 186.787 169.194 186.12C168.647 185.453 168.26 184.687 168.034 183.82C167.807 182.94 167.767 182 167.914 181C168.074 179.96 168.4 179 168.894 178.12C169.387 177.24 170.007 176.473 170.754 175.82C171.514 175.153 172.367 174.64 173.314 174.28C174.274 173.907 175.287 173.72 176.354 173.72C177.234 173.72 178 173.847 178.654 174.1C179.307 174.34 179.914 174.7 180.474 175.18L179.974 178.4C179.547 177.813 179.02 177.347 178.394 177C177.78 176.653 177.047 176.48 176.194 176.48C175.354 176.493 174.567 176.7 173.834 177.1C173.1 177.487 172.48 178.02 171.974 178.7C171.467 179.38 171.14 180.147 170.994 181ZM183.37 174H192.09L191.67 176.44H185.71L185.21 179.38H190.77L190.35 181.76H184.79L184.15 185.56H190.11L189.69 188H180.99L183.37 174ZM37.4215 199.28C37.4615 198.84 37.6482 198.46 37.9815 198.14C38.3148 197.82 38.7082 197.66 39.1615 197.66C39.6282 197.66 40.0015 197.827 40.2815 198.16C40.5748 198.493 40.7015 198.873 40.6615 199.3C40.6215 199.74 40.4348 200.12 40.1015 200.44C39.7682 200.747 39.3682 200.9 38.9015 200.9C38.4482 200.9 38.0748 200.74 37.7815 200.42C37.5015 200.087 37.3815 199.707 37.4215 199.28ZM61.38 202.8L61.8 200.52H68.5C68.3667 201.56 68.0933 202.553 67.68 203.5C67.2667 204.433 66.72 205.267 66.04 206C65.36 206.733 64.5533 207.313 63.62 207.74C62.7 208.153 61.66 208.36 60.5 208.36C59.4333 208.36 58.4867 208.167 57.66 207.78C56.8333 207.393 56.14 206.86 55.58 206.18C55.0333 205.5 54.6467 204.72 54.42 203.84C54.2067 202.947 54.1733 202 54.32 201C54.48 199.96 54.8067 199 55.3 198.12C55.8067 197.227 56.44 196.453 57.2 195.8C57.9733 195.133 58.84 194.62 59.8 194.26C60.76 193.9 61.78 193.72 62.86 193.72C64.14 193.72 65.2467 194.007 66.18 194.58C67.1133 195.153 67.86 195.94 68.42 196.94L65.82 198.34C65.5267 197.727 65.1133 197.233 64.58 196.86C64.0467 196.473 63.38 196.28 62.58 196.28C61.7133 196.28 60.9 196.493 60.14 196.92C59.3933 197.333 58.7667 197.893 58.26 198.6C57.7667 199.307 57.4467 200.107 57.3 201C57.1667 201.84 57.2133 202.627 57.44 203.36C57.6667 204.08 58.06 204.667 58.62 205.12C59.1933 205.56 59.92 205.78 60.8 205.78C61.8933 205.78 62.7933 205.493 63.5 204.92C64.2067 204.333 64.7667 203.627 65.18 202.8H61.38ZM71.8664 194H74.7264L72.7464 205.48H78.1664L77.7264 208H69.4664L71.8664 194ZM79.0661 201C79.2261 199.973 79.5528 199.02 80.0461 198.14C80.5394 197.26 81.1594 196.493 81.9061 195.84C82.6528 195.173 83.4928 194.653 84.4261 194.28C85.3728 193.907 86.3728 193.72 87.4261 193.72C88.4661 193.72 89.3928 193.913 90.2061 194.3C91.0194 194.687 91.6928 195.22 92.2261 195.9C92.7728 196.567 93.1528 197.34 93.3661 198.22C93.5928 199.087 93.6328 200.013 93.4861 201C93.3261 202.013 92.9994 202.967 92.5061 203.86C92.0261 204.753 91.4128 205.54 90.6661 206.22C89.9194 206.887 89.0728 207.413 88.1261 207.8C87.1794 208.173 86.1728 208.36 85.1061 208.36C84.0528 208.36 83.1194 208.167 82.3061 207.78C81.4928 207.38 80.8194 206.84 80.2861 206.16C79.7661 205.467 79.3928 204.68 79.1661 203.8C78.9528 202.92 78.9194 201.987 79.0661 201ZM82.0661 201C81.9461 201.787 81.9861 202.527 82.1861 203.22C82.3994 203.913 82.7728 204.48 83.3061 204.92C83.8528 205.36 84.5528 205.58 85.4061 205.58C86.2728 205.593 87.0594 205.393 87.7661 204.98C88.4861 204.553 89.0794 203.993 89.5461 203.3C90.0261 202.593 90.3394 201.827 90.4861 201C90.6194 200.213 90.5794 199.473 90.3661 198.78C90.1661 198.073 89.7928 197.507 89.2461 197.08C88.7128 196.64 88.0128 196.413 87.1461 196.4C86.2794 196.4 85.4861 196.613 84.7661 197.04C84.0461 197.453 83.4528 198.007 82.9861 198.7C82.5194 199.393 82.2128 200.16 82.0661 201ZM105.028 204.02C104.895 204.94 104.555 205.693 104.008 206.28C103.475 206.867 102.802 207.3 101.988 207.58C101.175 207.86 100.288 208 99.3283 208H94.3883L96.7883 194H101.268C102.082 194 102.815 194.133 103.468 194.4C104.135 194.653 104.648 195.047 105.008 195.58C105.368 196.1 105.488 196.753 105.368 197.54C105.248 198.273 104.948 198.887 104.468 199.38C103.988 199.86 103.408 200.227 102.728 200.48C103.475 200.747 104.075 201.173 104.528 201.76C104.995 202.333 105.162 203.087 105.028 204.02ZM100.788 196.28H99.2483L98.6683 199.6H100.088C100.648 199.6 101.148 199.453 101.588 199.16C102.028 198.853 102.295 198.44 102.388 197.92C102.482 197.413 102.368 197.02 102.048 196.74C101.742 196.447 101.322 196.293 100.788 196.28ZM97.6083 205.72H99.3083C100.002 205.707 100.622 205.533 101.168 205.2C101.728 204.853 102.068 204.333 102.188 203.64C102.295 202.987 102.142 202.5 101.728 202.18C101.315 201.86 100.788 201.693 100.148 201.68H98.3083L97.6083 205.72ZM115.601 208L114.721 204.84H110.101L108.141 208H104.881L114.361 193.12L118.721 208H115.601ZM113.461 198.56L111.121 202.56H114.461L113.461 198.56ZM122.57 194H125.43L123.45 205.48H128.87L128.43 208H120.17L122.57 194ZM138.351 194H147.071L146.651 196.44H140.691L140.191 199.38H145.751L145.331 201.76H139.771L139.131 205.56H145.091L144.671 208H135.971L138.351 194ZM147.757 201C147.918 199.973 148.244 199.02 148.738 198.14C149.231 197.26 149.858 196.493 150.618 195.84C151.378 195.173 152.231 194.653 153.178 194.28C154.124 193.907 155.124 193.72 156.178 193.72C157.218 193.72 158.137 193.913 158.938 194.3C159.751 194.687 160.418 195.22 160.938 195.9C161.471 196.567 161.844 197.34 162.058 198.22C162.284 199.087 162.324 200.013 162.178 201C162.044 201.867 161.791 202.693 161.418 203.48C161.044 204.253 160.578 204.953 160.018 205.58L162.238 208.16H159.218L158.278 207.06C157.638 207.473 156.944 207.793 156.198 208.02C155.451 208.247 154.664 208.36 153.838 208.36C152.784 208.36 151.851 208.167 151.038 207.78C150.224 207.38 149.544 206.84 148.998 206.16C148.464 205.467 148.084 204.68 147.858 203.8C147.644 202.92 147.611 201.987 147.757 201ZM150.758 201C150.638 201.827 150.691 202.6 150.918 203.32C151.158 204.04 151.558 204.627 152.118 205.08C152.691 205.52 153.411 205.747 154.278 205.76C154.718 205.76 155.138 205.707 155.538 205.6C155.938 205.493 156.318 205.347 156.678 205.16L154.018 202H156.958L158.378 203.66C158.898 202.953 159.238 202.16 159.398 201.28C159.518 200.48 159.471 199.713 159.258 198.98C159.044 198.233 158.658 197.62 158.098 197.14C157.538 196.66 156.798 196.413 155.878 196.4C155.011 196.4 154.218 196.613 153.498 197.04C152.778 197.453 152.178 198.007 151.698 198.7C151.218 199.393 150.904 200.16 150.758 201ZM165.986 194H168.806L167.206 203.24C167.139 203.693 167.152 204.12 167.246 204.52C167.352 204.92 167.552 205.24 167.846 205.48C168.152 205.72 168.572 205.84 169.106 205.84C169.959 205.853 170.626 205.607 171.106 205.1C171.586 204.58 171.886 203.953 172.006 203.22L173.606 194H176.446L174.846 203.4C174.686 204.427 174.332 205.32 173.786 206.08C173.252 206.827 172.559 207.413 171.706 207.84C170.866 208.253 169.906 208.46 168.826 208.46C167.812 208.46 166.946 208.247 166.226 207.82C165.519 207.393 164.999 206.8 164.666 206.04C164.332 205.28 164.239 204.4 164.386 203.4L165.986 194ZM186.07 208L185.19 204.84H180.57L178.61 208H175.35L184.83 193.12L189.19 208H186.07ZM183.93 198.56L181.59 202.56H184.93L183.93 198.56ZM193.038 194H195.898L193.918 205.48H199.338L198.898 208H190.638L193.038 194ZM202.823 194H205.723L203.303 208H200.443L202.823 194ZM206.765 196.6L207.225 194H217.405L216.945 196.6H213.285L211.325 208H208.485L210.445 196.6H206.765ZM227.023 194H230.343L224.203 202.26L223.223 208H220.323L221.363 202.14L218.103 194H221.263L223.183 199.58L227.023 194ZM37.4215 219.28C37.4615 218.84 37.6482 218.46 37.9815 218.14C38.3148 217.82 38.7082 217.66 39.1615 217.66C39.6282 217.66 40.0015 217.827 40.2815 218.16C40.5748 218.493 40.7015 218.873 40.6615 219.3C40.6215 219.74 40.4348 220.12 40.1015 220.44C39.7682 220.747 39.3682 220.9 38.9015 220.9C38.4482 220.9 38.0748 220.74 37.7815 220.42C37.5015 220.087 37.3815 219.707 37.4215 219.28ZM57.4 221C57.2667 221.813 57.3267 222.56 57.58 223.24C57.8333 223.92 58.24 224.467 58.8 224.88C59.3733 225.293 60.0667 225.5 60.88 225.5C61.8133 225.513 62.6533 225.333 63.4 224.96C64.16 224.573 64.8333 224.127 65.42 223.62L64.94 226.84C64.3 227.28 63.62 227.633 62.9 227.9C62.1933 228.153 61.38 228.28 60.46 228.28C59.4067 228.28 58.4667 228.087 57.64 227.7C56.8267 227.313 56.1467 226.787 55.6 226.12C55.0533 225.453 54.6667 224.687 54.44 223.82C54.2133 222.94 54.1733 222 54.32 221C54.48 219.96 54.8067 219 55.3 218.12C55.7933 217.24 56.4133 216.473 57.16 215.82C57.92 215.153 58.7733 214.64 59.72 214.28C60.68 213.907 61.6933 213.72 62.76 213.72C63.64 213.72 64.4067 213.847 65.06 214.1C65.7133 214.34 66.32 214.7 66.88 215.18L66.38 218.4C65.9533 217.813 65.4267 217.347 64.8 217C64.1867 216.653 63.4533 216.48 62.6 216.48C61.76 216.493 60.9733 216.7 60.24 217.1C59.5067 217.487 58.8867 218.02 58.38 218.7C57.8733 219.38 57.5467 220.147 57.4 221ZM69.7766 214H72.6366L70.6566 225.48H76.0766L75.6366 228H67.3766L69.7766 214ZM79.5617 214H82.4617L80.0417 228H77.1817L79.5617 214ZM87.3634 220.18L85.1234 228H82.1234L86.6834 213.28L90.8234 222.28L98.1434 213.2L97.6234 228H94.6834L95.1434 220.28L90.1434 226.72L87.3634 220.18ZM108.96 228L108.08 224.84H103.46L101.5 228H98.2403L107.72 213.12L112.08 228H108.96ZM106.82 218.56L104.48 222.56H107.82L106.82 218.56ZM112.703 216.6L113.163 214H123.343L122.883 216.6H119.223L117.263 228H114.423L116.383 216.6H112.703ZM124.835 214H133.555L133.135 216.44H127.175L126.675 219.38H132.235L131.815 221.76H126.255L125.615 225.56H131.575L131.155 228H122.455L124.835 214ZM136.678 229.52C136.865 229.707 137.078 229.867 137.318 230C137.558 230.133 137.825 230.193 138.118 230.18C138.491 230.18 138.831 230.027 139.138 229.72C139.458 229.427 139.658 229.027 139.738 228.52L142.218 214H145.218L142.658 229.12C142.525 229.907 142.238 230.56 141.798 231.08C141.371 231.613 140.831 232.007 140.178 232.26C139.525 232.527 138.818 232.66 138.058 232.66C137.418 232.66 136.825 232.547 136.278 232.32C135.731 232.093 135.265 231.833 134.878 231.54L136.678 229.52ZM147.997 214H150.817L149.217 223.24C149.151 223.693 149.164 224.12 149.257 224.52C149.364 224.92 149.564 225.24 149.857 225.48C150.164 225.72 150.584 225.84 151.117 225.84C151.971 225.853 152.637 225.607 153.117 225.1C153.597 224.58 153.897 223.953 154.017 223.22L155.617 214H158.457L156.857 223.4C156.697 224.427 156.344 225.32 155.797 226.08C155.264 226.827 154.571 227.413 153.717 227.84C152.877 228.253 151.917 228.46 150.837 228.46C149.824 228.46 148.957 228.247 148.237 227.82C147.531 227.393 147.011 226.8 146.677 226.04C146.344 225.28 146.251 224.4 146.397 223.4L147.997 214ZM160.781 223.28C161.115 224.027 161.521 224.64 162.001 225.12C162.481 225.6 163.101 225.84 163.861 225.84C164.501 225.84 165.028 225.66 165.441 225.3C165.855 224.927 166.075 224.493 166.101 224C166.128 223.6 166.035 223.273 165.821 223.02C165.621 222.767 165.328 222.547 164.941 222.36C164.568 222.16 164.148 221.96 163.681 221.76C163.215 221.547 162.735 221.273 162.241 220.94C161.748 220.593 161.335 220.16 161.001 219.64C160.681 219.107 160.548 218.46 160.601 217.7C160.655 216.913 160.908 216.22 161.361 215.62C161.828 215.02 162.428 214.553 163.161 214.22C163.895 213.887 164.708 213.72 165.601 213.72C166.415 213.72 167.115 213.86 167.701 214.14C168.301 214.42 168.801 214.793 169.201 215.26C169.601 215.713 169.915 216.213 170.141 216.76L167.821 217.98C167.581 217.513 167.275 217.1 166.901 216.74C166.528 216.367 166.015 216.18 165.361 216.18C164.801 216.18 164.355 216.32 164.021 216.6C163.688 216.867 163.508 217.207 163.481 217.62C163.455 217.967 163.561 218.273 163.801 218.54C164.041 218.807 164.368 219.047 164.781 219.26C165.208 219.46 165.661 219.653 166.141 219.84C166.701 220.067 167.208 220.36 167.661 220.72C168.128 221.067 168.488 221.5 168.741 222.02C169.008 222.54 169.121 223.16 169.081 223.88C169.015 224.773 168.721 225.56 168.201 226.24C167.681 226.907 167.021 227.427 166.221 227.8C165.435 228.173 164.595 228.36 163.701 228.36C162.875 228.36 162.121 228.2 161.441 227.88C160.761 227.56 160.175 227.127 159.681 226.58C159.201 226.033 158.841 225.42 158.601 224.74L160.781 223.28ZM171.082 216.6L171.542 214H181.722L181.262 216.6H177.602L175.642 228H172.802L174.762 216.6H171.082ZM183.214 214H186.114L183.694 228H180.834L183.214 214ZM190.076 221C189.942 221.813 190.002 222.56 190.256 223.24C190.509 223.92 190.916 224.467 191.476 224.88C192.049 225.293 192.742 225.5 193.556 225.5C194.489 225.513 195.329 225.333 196.076 224.96C196.836 224.573 197.509 224.127 198.096 223.62L197.616 226.84C196.976 227.28 196.296 227.633 195.576 227.9C194.869 228.153 194.056 228.28 193.136 228.28C192.082 228.28 191.142 228.087 190.316 227.7C189.502 227.313 188.822 226.787 188.276 226.12C187.729 225.453 187.342 224.687 187.116 223.82C186.889 222.94 186.849 222 186.996 221C187.156 219.96 187.482 219 187.976 218.12C188.469 217.24 189.089 216.473 189.836 215.82C190.596 215.153 191.449 214.64 192.396 214.28C193.356 213.907 194.369 213.72 195.436 213.72C196.316 213.72 197.082 213.847 197.736 214.1C198.389 214.34 198.996 214.7 199.556 215.18L199.056 218.4C198.629 217.813 198.102 217.347 197.476 217C196.862 216.653 196.129 216.48 195.276 216.48C194.436 216.493 193.649 216.7 192.916 217.1C192.182 217.487 191.562 218.02 191.056 218.7C190.549 219.38 190.222 220.147 190.076 221ZM202.452 214H211.172L210.752 216.44H204.792L204.292 219.38H209.852L209.432 221.76H203.872L203.232 225.56H209.192L208.772 228H200.072L202.452 214ZM37.4215 239.28C37.4615 238.84 37.6482 238.46 37.9815 238.14C38.3148 237.82 38.7082 237.66 39.1615 237.66C39.6282 237.66 40.0015 237.827 40.2815 238.16C40.5748 238.493 40.7015 238.873 40.6615 239.3C40.6215 239.74 40.4348 240.12 40.1015 240.44C39.7682 240.747 39.3682 240.9 38.9015 240.9C38.4482 240.9 38.0748 240.74 37.7815 240.42C37.5015 240.087 37.3815 239.707 37.4215 239.28ZM61.38 242.8L61.8 240.52H68.5C68.3667 241.56 68.0933 242.553 67.68 243.5C67.2667 244.433 66.72 245.267 66.04 246C65.36 246.733 64.5533 247.313 63.62 247.74C62.7 248.153 61.66 248.36 60.5 248.36C59.4333 248.36 58.4867 248.167 57.66 247.78C56.8333 247.393 56.14 246.86 55.58 246.18C55.0333 245.5 54.6467 244.72 54.42 243.84C54.2067 242.947 54.1733 242 54.32 241C54.48 239.96 54.8067 239 55.3 238.12C55.8067 237.227 56.44 236.453 57.2 235.8C57.9733 235.133 58.84 234.62 59.8 234.26C60.76 233.9 61.78 233.72 62.86 233.72C64.14 233.72 65.2467 234.007 66.18 234.58C67.1133 235.153 67.86 235.94 68.42 236.94L65.82 238.34C65.5267 237.727 65.1133 237.233 64.58 236.86C64.0467 236.473 63.38 236.28 62.58 236.28C61.7133 236.28 60.9 236.493 60.14 236.92C59.3933 237.333 58.7667 237.893 58.26 238.6C57.7667 239.307 57.4467 240.107 57.3 241C57.1667 241.84 57.2133 242.627 57.44 243.36C57.6667 244.08 58.06 244.667 58.62 245.12C59.1933 245.56 59.92 245.78 60.8 245.78C61.8933 245.78 62.7933 245.493 63.5 244.92C64.2067 244.333 64.7667 243.627 65.18 242.8H61.38ZM71.8664 234H74.7264L72.7464 245.48H78.1664L77.7264 248H69.4664L71.8664 234ZM79.0661 241C79.2261 239.973 79.5528 239.02 80.0461 238.14C80.5394 237.26 81.1594 236.493 81.9061 235.84C82.6528 235.173 83.4928 234.653 84.4261 234.28C85.3728 233.907 86.3728 233.72 87.4261 233.72C88.4661 233.72 89.3928 233.913 90.2061 234.3C91.0194 234.687 91.6928 235.22 92.2261 235.9C92.7728 236.567 93.1528 237.34 93.3661 238.22C93.5928 239.087 93.6328 240.013 93.4861 241C93.3261 242.013 92.9994 242.967 92.5061 243.86C92.0261 244.753 91.4128 245.54 90.6661 246.22C89.9194 246.887 89.0728 247.413 88.1261 247.8C87.1794 248.173 86.1728 248.36 85.1061 248.36C84.0528 248.36 83.1194 248.167 82.3061 247.78C81.4928 247.38 80.8194 246.84 80.2861 246.16C79.7661 245.467 79.3928 244.68 79.1661 243.8C78.9528 242.92 78.9194 241.987 79.0661 241ZM82.0661 241C81.9461 241.787 81.9861 242.527 82.1861 243.22C82.3994 243.913 82.7728 244.48 83.3061 244.92C83.8528 245.36 84.5528 245.58 85.4061 245.58C86.2728 245.593 87.0594 245.393 87.7661 244.98C88.4861 244.553 89.0794 243.993 89.5461 243.3C90.0261 242.593 90.3394 241.827 90.4861 241C90.6194 240.213 90.5794 239.473 90.3661 238.78C90.1661 238.073 89.7928 237.507 89.2461 237.08C88.7128 236.64 88.0128 236.413 87.1461 236.4C86.2794 236.4 85.4861 236.613 84.7661 237.04C84.0461 237.453 83.4528 238.007 82.9861 238.7C82.5194 239.393 82.2128 240.16 82.0661 241ZM105.028 244.02C104.895 244.94 104.555 245.693 104.008 246.28C103.475 246.867 102.802 247.3 101.988 247.58C101.175 247.86 100.288 248 99.3283 248H94.3883L96.7883 234H101.268C102.082 234 102.815 234.133 103.468 234.4C104.135 234.653 104.648 235.047 105.008 235.58C105.368 236.1 105.488 236.753 105.368 237.54C105.248 238.273 104.948 238.887 104.468 239.38C103.988 239.86 103.408 240.227 102.728 240.48C103.475 240.747 104.075 241.173 104.528 241.76C104.995 242.333 105.162 243.087 105.028 244.02ZM100.788 236.28H99.2483L98.6683 239.6H100.088C100.648 239.6 101.148 239.453 101.588 239.16C102.028 238.853 102.295 238.44 102.388 237.92C102.482 237.413 102.368 237.02 102.048 236.74C101.742 236.447 101.322 236.293 100.788 236.28ZM97.6083 245.72H99.3083C100.002 245.707 100.622 245.533 101.168 245.2C101.728 244.853 102.068 244.333 102.188 243.64C102.295 242.987 102.142 242.5 101.728 242.18C101.315 241.86 100.788 241.693 100.148 241.68H98.3083L97.6083 245.72ZM115.601 248L114.721 244.84H110.101L108.141 248H104.881L114.361 233.12L118.721 248H115.601ZM113.461 238.56L111.121 242.56H114.461L113.461 238.56ZM122.57 234H125.43L123.45 245.48H128.87L128.43 248H120.17L122.57 234ZM58.64 268H53.92L56.3 254H60.86C62.2733 254 63.4667 254.307 64.44 254.92C65.4133 255.533 66.12 256.367 66.56 257.42C67 258.473 67.12 259.667 66.92 261C66.7067 262.373 66.2133 263.587 65.44 264.64C64.68 265.693 63.7133 266.52 62.54 267.12C61.38 267.707 60.08 268 58.64 268ZM60.5 256.6H58.78L57.26 265.38H58.84C59.6933 265.38 60.48 265.207 61.2 264.86C61.9333 264.513 62.54 264.013 63.02 263.36C63.5133 262.707 63.84 261.92 64 261C64.2 259.667 63.98 258.6 63.34 257.8C62.7 257 61.7533 256.6 60.5 256.6ZM70.2063 254H78.9263L78.5063 256.44H72.5463L72.0462 259.38H77.6063L77.1862 261.76H71.6263L70.9863 265.56H76.9463L76.5263 268H67.8263L70.2063 254ZM83.633 260.18L81.393 268H78.393L82.953 253.28L87.093 262.28L94.413 253.2L93.893 268H90.953L91.413 260.28L86.413 266.72L83.633 260.18ZM96.4098 261C96.5698 259.973 96.8965 259.02 97.3898 258.14C97.8832 257.26 98.5032 256.493 99.2498 255.84C99.9965 255.173 100.837 254.653 101.77 254.28C102.717 253.907 103.717 253.72 104.77 253.72C105.81 253.72 106.737 253.913 107.55 254.3C108.363 254.687 109.037 255.22 109.57 255.9C110.117 256.567 110.497 257.34 110.71 258.22C110.937 259.087 110.977 260.013 110.83 261C110.67 262.013 110.343 262.967 109.85 263.86C109.37 264.753 108.757 265.54 108.01 266.22C107.263 266.887 106.417 267.413 105.47 267.8C104.523 268.173 103.517 268.36 102.45 268.36C101.397 268.36 100.463 268.167 99.6498 267.78C98.8365 267.38 98.1632 266.84 97.6298 266.16C97.1098 265.467 96.7365 264.68 96.5098 263.8C96.2965 262.92 96.2632 261.987 96.4098 261ZM99.4098 261C99.2898 261.787 99.3298 262.527 99.5298 263.22C99.7432 263.913 100.117 264.48 100.65 264.92C101.197 265.36 101.897 265.58 102.75 265.58C103.617 265.593 104.403 265.393 105.11 264.98C105.83 264.553 106.423 263.993 106.89 263.3C107.37 262.593 107.683 261.827 107.83 261C107.963 260.213 107.923 259.473 107.71 258.78C107.51 258.073 107.137 257.507 106.59 257.08C106.057 256.64 105.357 256.413 104.49 256.4C103.623 256.4 102.83 256.613 102.11 257.04C101.39 257.453 100.797 258.007 100.33 258.7C99.8632 259.393 99.5565 260.16 99.4098 261ZM115.232 261C115.099 261.813 115.159 262.56 115.412 263.24C115.665 263.92 116.072 264.467 116.632 264.88C117.205 265.293 117.899 265.5 118.712 265.5C119.645 265.513 120.485 265.333 121.232 264.96C121.992 264.573 122.665 264.127 123.252 263.62L122.772 266.84C122.132 267.28 121.452 267.633 120.732 267.9C120.025 268.153 119.212 268.28 118.292 268.28C117.239 268.28 116.299 268.087 115.472 267.7C114.659 267.313 113.979 266.787 113.432 266.12C112.885 265.453 112.499 264.687 112.272 263.82C112.045 262.94 112.005 262 112.152 261C112.312 259.96 112.639 259 113.132 258.12C113.625 257.24 114.245 256.473 114.992 255.82C115.752 255.153 116.605 254.64 117.552 254.28C118.512 253.907 119.525 253.72 120.592 253.72C121.472 253.72 122.239 253.847 122.892 254.1C123.545 254.34 124.152 254.7 124.712 255.18L124.212 258.4C123.785 257.813 123.259 257.347 122.632 257C122.019 256.653 121.285 256.48 120.432 256.48C119.592 256.493 118.805 256.7 118.072 257.1C117.339 257.487 116.719 258.02 116.212 258.7C115.705 259.38 115.379 260.147 115.232 261ZM127.609 254H132.129C133.115 254 133.962 254.187 134.669 254.56C135.375 254.933 135.895 255.46 136.229 256.14C136.575 256.807 136.689 257.587 136.569 258.48C136.422 259.493 136.022 260.36 135.369 261.08C134.729 261.787 133.922 262.293 132.949 262.6L135.689 268H132.449L130.129 262.92H128.929L128.049 268H125.229L127.609 254ZM131.689 256.48H130.029L129.309 260.64H130.829C131.522 260.64 132.129 260.46 132.649 260.1C133.182 259.727 133.509 259.207 133.629 258.54C133.735 257.913 133.602 257.413 133.229 257.04C132.869 256.667 132.355 256.48 131.689 256.48ZM146.46 268L145.58 264.84H140.96L139 268H135.74L145.22 253.12L149.58 268H146.46ZM144.32 258.56L141.98 262.56H145.32L144.32 258.56ZM153.923 261C153.79 261.813 153.85 262.56 154.103 263.24C154.357 263.92 154.763 264.467 155.323 264.88C155.897 265.293 156.59 265.5 157.403 265.5C158.337 265.513 159.177 265.333 159.923 264.96C160.683 264.573 161.357 264.127 161.943 263.62L161.463 266.84C160.823 267.28 160.143 267.633 159.423 267.9C158.717 268.153 157.903 268.28 156.983 268.28C155.93 268.28 154.99 268.087 154.163 267.7C153.35 267.313 152.67 266.787 152.123 266.12C151.577 265.453 151.19 264.687 150.963 263.82C150.737 262.94 150.697 262 150.843 261C151.003 259.96 151.33 259 151.823 258.12C152.317 257.24 152.937 256.473 153.683 255.82C154.443 255.153 155.297 254.64 156.243 254.28C157.203 253.907 158.217 253.72 159.283 253.72C160.163 253.72 160.93 253.847 161.583 254.1C162.237 254.34 162.843 254.7 163.403 255.18L162.903 258.4C162.477 257.813 161.95 257.347 161.323 257C160.71 256.653 159.977 256.48 159.123 256.48C158.283 256.493 157.497 256.7 156.763 257.1C156.03 257.487 155.41 258.02 154.903 258.7C154.397 259.38 154.07 260.147 153.923 261ZM173.215 254H176.535L170.395 262.26L169.415 268H166.515L167.555 262.14L164.295 254H167.455L169.375 259.58L173.215 254Z" fill="#30395C"/>
<path d="M84.0242 53.5494L97.6918 29.0346H106.803L81.7463 69.3864L69.2719 29.0346H77.9497L84.0242 53.5494ZM104.459 48.0173C104.893 45.2332 105.779 42.6479 107.117 40.2615C108.455 37.8751 110.136 35.7961 112.161 34.0243C114.186 32.2165 116.464 30.8063 118.995 29.7939C121.562 28.7815 124.274 28.2753 127.13 28.2753C129.95 28.2753 132.463 28.7996 134.669 29.8481C136.875 30.8967 138.701 32.343 140.147 34.1871C141.629 35.9949 142.66 38.0921 143.238 40.4785C143.853 42.8287 143.962 45.3416 143.564 48.0173C143.13 50.7653 142.244 53.3505 140.906 55.7731C139.605 58.1956 137.941 60.3289 135.916 62.173C133.892 63.9808 131.596 65.4091 129.028 66.4576C126.461 67.47 123.731 67.9763 120.839 67.9763C117.982 67.9763 115.451 67.452 113.246 66.4034C111.04 65.3187 109.214 63.8543 107.768 62.0103C106.358 60.1301 105.345 57.9968 104.731 55.6104C104.152 53.224 104.062 50.693 104.459 48.0173ZM112.595 48.0173C112.269 50.1506 112.378 52.1573 112.92 54.0375C113.499 55.9177 114.511 57.4544 115.958 58.6476C117.44 59.8408 119.338 60.4374 121.652 60.4374C124.003 60.4736 126.136 59.9312 128.052 58.8103C130.005 57.6533 131.614 56.1347 132.879 54.2545C134.181 52.3381 135.031 50.2591 135.428 48.0173C135.79 45.884 135.681 43.8773 135.103 41.9971C134.561 40.0807 133.548 38.544 132.066 37.387C130.619 36.1938 128.721 35.5791 126.371 35.543C124.021 35.543 121.869 36.1215 119.917 37.2785C117.964 38.3994 116.355 39.8999 115.09 41.7801C113.824 43.6603 112.993 45.7394 112.595 48.0173ZM145.941 36.0853L147.189 29.0346H174.795L173.548 36.0853H163.622L158.307 67H150.606L155.921 36.0853H145.941ZM178.842 29.0346H202.489L201.35 35.6514H185.188L183.832 43.6242H198.91L197.771 50.0783H182.693L180.958 60.3832H197.12L195.981 67H172.388L178.842 29.0346ZM47.1084 92.0853L48.3558 85.0346H75.9621L74.7146 92.0853H64.7894L59.4743 123H51.7727L57.0879 92.0853H47.1084ZM80.0095 85.0346H103.656L102.518 91.6514H86.3551L84.9992 99.6242H100.077L98.9379 106.078H83.8602L82.1247 116.383H98.2871L97.1481 123H73.5553L80.0095 85.0346ZM110.888 85.0346H123.146C125.821 85.0346 128.117 85.5408 130.034 86.5532C131.95 87.5656 133.36 88.9939 134.264 90.8379C135.204 92.6458 135.511 94.761 135.186 97.1835C134.788 99.9315 133.704 102.282 131.932 104.234C130.196 106.151 128.009 107.525 125.369 108.356L132.8 123H124.013L117.722 109.224H114.468L112.081 123H104.434L110.888 85.0346ZM121.952 91.7599H117.451L115.498 103.041H119.62C121.5 103.041 123.146 102.553 124.556 101.577C126.002 100.564 126.888 99.1541 127.213 97.3462C127.502 95.6468 127.141 94.2909 126.129 93.2785C125.152 92.2661 123.76 91.7599 121.952 91.7599ZM143.462 85.0346H155.719C158.395 85.0346 160.691 85.5408 162.607 86.5532C164.523 87.5656 165.934 88.9939 166.838 90.8379C167.778 92.6458 168.085 94.761 167.76 97.1835C167.362 99.9315 166.277 102.282 164.505 104.234C162.77 106.151 160.582 107.525 157.943 108.356L165.373 123H156.587L150.295 109.224H147.041L144.655 123H137.008L143.462 85.0346ZM154.526 91.7599H150.024L148.072 103.041H152.194C154.074 103.041 155.719 102.553 157.129 101.577C158.576 100.564 159.461 99.1541 159.787 97.3462C160.076 95.6468 159.714 94.2909 158.702 93.2785C157.726 92.2661 156.334 91.7599 154.526 91.7599ZM194.584 123L192.198 114.431H179.669L174.354 123H165.513L191.221 82.6482L203.045 123H194.584ZM188.781 97.4005L182.435 108.248H191.493L188.781 97.4005ZM213.915 85.0346H222.593L216.681 110.96H211.041L213.915 85.0346ZM207.841 119.963C207.841 118.77 208.257 117.793 209.088 117.034C209.956 116.239 211.041 115.841 212.343 115.841C213.644 115.841 214.711 116.239 215.543 117.034C216.374 117.793 216.79 118.77 216.79 119.963C216.79 121.156 216.374 122.168 215.543 123C214.711 123.795 213.644 124.193 212.343 124.193C211.041 124.193 209.956 123.795 209.088 123C208.257 122.168 207.841 121.156 207.841 119.963Z" fill="#30395C"/>
</svg>
