<svg width="378" height="70" viewBox="0 0 378 70" fill="none" xmlns="http://www.w3.org/2000/svg">
<rect x="314" y="30" width="10" height="250" transform="rotate(90 314 30)" fill="#30395C"/>
<path fill-rule="evenodd" clip-rule="evenodd" d="M343 70C362.33 70 378 54.33 378 35C378 15.67 362.33 0 343 0C323.67 0 308 15.67 308 35C308 54.33 323.67 70 343 70ZM343 60C356.807 60 368 48.8071 368 35C368 21.1929 356.807 10 343 10C329.193 10 318 21.1929 318 35C318 48.8071 329.193 60 343 60Z" fill="#30395C"/>
<path fill-rule="evenodd" clip-rule="evenodd" d="M35 70C15.67 70 0 54.33 0 35C0 15.67 15.67 0 35 0C54.33 0 70 15.67 70 35C70 54.33 54.33 70 35 70ZM35 60C21.1929 60 10 48.8071 10 35C10 21.1929 21.1929 10 35 10C48.8071 10 60 21.1929 60 35C60 48.8071 48.8071 60 35 60Z" fill="#30395C"/>
</svg>
