<svg width="19" height="9" viewBox="0 0 19 9" fill="none" xmlns="http://www.w3.org/2000/svg">
<path d="M14.4631 4.00622L10.7113 1.11701C10.24 0.754025 10.4967 3.8147e-06 11.0916 4.76837e-06L12.9444 5.72205e-06C13.0819 5.72205e-06 13.2156 0.0455198 13.3246 0.129452L18.3588 4.00622C18.6828 4.2557 18.6828 4.7443 18.3588 4.99378L13.3246 8.87055C13.2156 8.95449 13.0819 9 12.9444 9H11.0916C10.4967 9 10.24 8.24598 10.7113 7.883L14.4631 4.99378C14.7871 4.7443 14.7871 4.2557 14.4631 4.00622Z" fill="white"/>
<path d="M4.20229 4.00622L0.450486 1.117C-0.0208627 0.754022 0.235825 9.53674e-07 0.83074 9.53674e-07L2.6835 2.86102e-06C2.82106 2.86102e-06 2.95476 0.045516 3.06375 0.129449L8.09794 4.00622C8.42191 4.2557 8.42191 4.7443 8.09794 4.99378L3.06375 8.87055C2.95476 8.95448 2.82106 9 2.6835 9L0.830734 9C0.235819 9 -0.020866 8.24598 0.450482 7.883L4.20229 4.99377C4.52625 4.74429 4.52625 4.2557 4.20229 4.00622Z" fill="white"/>
</svg>
