<svg width="19" height="16" viewBox="0 0 19 16" fill="none" xmlns="http://www.w3.org/2000/svg">
<g filter="url(#filter0_d)">
<path d="M10.5769 3.08664L16.5292 6.64733C16.9555 6.90235 17.4971 6.59522 17.4971 6.09846L17.4971 4.69827C17.4971 4.47331 17.3789 4.26489 17.1858 4.14941L10.5769 0.195893C10.3747 0.0749464 10.1224 0.0749474 9.92019 0.195894L3.31124 4.14941C3.11819 4.26489 3 4.47332 3 4.69828L3 6.09846C3 6.59522 3.54161 6.90235 3.96791 6.64733L9.9202 3.08664C10.1224 2.96569 10.3747 2.96569 10.5769 3.08664Z" fill="#FAFBFF"/>
<path d="M10.5769 8.65131L16.5292 12.212C16.9555 12.467 17.4971 12.1599 17.4971 11.6631L17.4971 10.263C17.4971 10.038 17.3789 9.82957 17.1858 9.71409L10.5769 5.76057C10.3747 5.63963 10.1224 5.63963 9.9202 5.76057L3.31125 9.71409C3.11819 9.82957 3 10.038 3 10.263L3.00001 11.6631C3.00001 12.1599 3.54161 12.467 3.96792 12.212L9.92021 8.65131C10.1224 8.53037 10.3747 8.53037 10.5769 8.65131Z" fill="#FAFBFF"/>
</g>
<g filter="url(#filter1_d)">
<path d="M9.57687 3.08664L15.5292 6.64733C15.9555 6.90235 16.4971 6.59522 16.4971 6.09846L16.4971 4.69827C16.4971 4.47331 16.3789 4.26489 16.1858 4.14941L9.57687 0.195893C9.37468 0.0749464 9.12238 0.0749474 8.92019 0.195894L2.31124 4.14941C2.11819 4.26489 2 4.47332 2 4.69828L2 6.09846C2 6.59522 2.54161 6.90235 2.96791 6.64733L8.9202 3.08664C9.12238 2.96569 9.37469 2.96569 9.57687 3.08664Z" fill="#FAFBFF"/>
<path d="M9.57688 8.65131L15.5292 12.212C15.9555 12.467 16.4971 12.1599 16.4971 11.6631L16.4971 10.263C16.4971 10.038 16.3789 9.82957 16.1858 9.71409L9.57687 5.76057C9.37469 5.63963 9.12238 5.63963 8.9202 5.76057L2.31125 9.71409C2.11819 9.82957 2 10.038 2 10.263L2.00001 11.6631C2.00001 12.1599 2.54161 12.467 2.96792 12.212L8.92021 8.65131C9.12239 8.53037 9.37469 8.53037 9.57688 8.65131Z" fill="#FAFBFF"/>
</g>
<defs>
<filter id="filter0_d" x="1.5" y="0.105469" width="17.4971" height="15.1985" filterUnits="userSpaceOnUse" color-interpolation-filters="sRGB">
<feFlood flood-opacity="0" result="BackgroundImageFix"/>
<feColorMatrix in="SourceAlpha" type="matrix" values="0 0 0 0 0 0 0 0 0 0 0 0 0 0 0 0 0 0 127 0"/>
<feOffset dy="1.5"/>
<feGaussianBlur stdDeviation="0.75"/>
<feColorMatrix type="matrix" values="0 0 0 0 0 0 0 0 0 0 0 0 0 0 0 0 0 0 0.15 0"/>
<feBlend mode="normal" in2="BackgroundImageFix" result="effect1_dropShadow"/>
<feBlend mode="normal" in="SourceGraphic" in2="effect1_dropShadow" result="shape"/>
</filter>
<filter id="filter1_d" x="0.5" y="0.105469" width="17.4971" height="15.1985" filterUnits="userSpaceOnUse" color-interpolation-filters="sRGB">
<feFlood flood-opacity="0" result="BackgroundImageFix"/>
<feColorMatrix in="SourceAlpha" type="matrix" values="0 0 0 0 0 0 0 0 0 0 0 0 0 0 0 0 0 0 127 0"/>
<feOffset dy="1.5"/>
<feGaussianBlur stdDeviation="0.75"/>
<feColorMatrix type="matrix" values="0 0 0 0 0 0 0 0 0 0 0 0 0 0 0 0 0 0 0.15 0"/>
<feBlend mode="normal" in2="BackgroundImageFix" result="effect1_dropShadow"/>
<feBlend mode="normal" in="SourceGraphic" in2="effect1_dropShadow" result="shape"/>
</filter>
</defs>
</svg>
