<svg width="19" height="17" viewBox="0 0 19 17" fill="none" xmlns="http://www.w3.org/2000/svg">
<g filter="url(#filter0_d)">
<path d="M9.57687 3.98898L15.5292 7.54967C15.9555 7.80469 16.4971 7.49756 16.4971 7.0008L16.4971 5.60062C16.4971 5.37566 16.3789 5.16724 16.1858 5.05175L9.57687 1.09824C9.37468 0.97729 9.12238 0.977291 8.92019 1.09824L2.31124 5.05175C2.11819 5.16724 2 5.37566 2 5.60062L2 7.00081C2 7.49757 2.54161 7.80469 2.96791 7.54967L8.9202 3.98898C9.12238 3.86803 9.37469 3.86803 9.57687 3.98898Z" fill="#FAFBFF"/>
<path d="M9.57688 9.55366L15.5292 13.1143C15.9555 13.3694 16.4971 13.0622 16.4971 12.5655L16.4971 11.1653C16.4971 10.9403 16.3789 10.7319 16.1858 10.6164L9.57687 6.66292C9.37469 6.54197 9.12238 6.54197 8.9202 6.66292L2.31125 10.6164C2.11819 10.7319 2 10.9403 2 11.1653L2.00001 12.5655C2.00001 13.0622 2.54161 13.3694 2.96792 13.1143L8.92021 9.55366C9.12239 9.43271 9.37469 9.43271 9.57688 9.55366Z" fill="#FAFBFF"/>
</g>
<defs>
<filter id="filter0_d" x="0" y="0.0078125" width="18.4971" height="16.1985" filterUnits="userSpaceOnUse" color-interpolation-filters="sRGB">
<feFlood flood-opacity="0" result="BackgroundImageFix"/>
<feColorMatrix in="SourceAlpha" type="matrix" values="0 0 0 0 0 0 0 0 0 0 0 0 0 0 0 0 0 0 127 0"/>
<feOffset dy="1"/>
<feGaussianBlur stdDeviation="1"/>
<feColorMatrix type="matrix" values="0 0 0 0 0 0 0 0 0 0 0 0 0 0 0 0 0 0 0.15 0"/>
<feBlend mode="normal" in2="BackgroundImageFix" result="effect1_dropShadow"/>
<feBlend mode="normal" in="SourceGraphic" in2="effect1_dropShadow" result="shape"/>
</filter>
</defs>
</svg>
