<svg width="510" height="510" viewBox="0 0 510 510" fill="none" xmlns="http://www.w3.org/2000/svg">
<mask id="mask0" mask-type="alpha" maskUnits="userSpaceOnUse" x="0" y="0" width="510" height="511">
<path fill-rule="evenodd" clip-rule="evenodd" d="M456.309 411.785C434.774 439.435 407.676 462.532 376.698 479.392C386.58 460.799 394.66 437.73 400.943 411.785H456.309ZM377.409 411.785C369.32 442.823 358.547 470.832 345.086 493.887C320.524 503.167 294.156 508.763 266.653 510V411.785H377.409ZM472.48 388.462H405.969C412.822 352.519 416.604 312.453 417.328 271.845H509.534C506.763 314.406 493.569 354.122 472.48 388.462ZM382.869 388.462C390.506 351.918 394.729 312.125 395.54 271.845H266.653V388.462H382.869ZM510 248.521H417.408C416.948 206.45 413.22 164.53 406.238 126.721H475.58C496.499 162.667 508.896 204.191 510 248.521ZM395.628 248.521C395.107 206.858 390.951 165.245 383.162 126.721L266.653 126.721V248.521L395.628 248.521ZM460.241 103.398L401.389 103.398C394.855 75.3205 386.332 50.2681 375.825 30.135C409.089 48.0711 437.917 73.1824 460.241 103.398ZM377.903 103.398C369.733 70.7173 358.749 40.9144 344.952 16.0629C320.428 6.81287 294.106 1.23525 266.653 0V103.398L377.903 103.398ZM243.346 388.462V271.845H119.22C119.893 312.136 124.047 351.903 131.71 388.462H243.346ZM137.196 411.785L243.346 411.785V510C218.141 508.866 193.888 504.071 171.105 496.134C156.867 472.522 145.571 443.728 137.196 411.785ZM113.696 411.785C120.024 438.889 128.31 462.94 138.59 482.19C105.404 465.127 76.4423 440.997 53.6913 411.785H113.696ZM108.863 388.462H37.5197C16.4311 354.122 3.2367 314.406 0.466 271.845H98.2677C98.7775 312.45 102.285 352.477 108.863 388.462ZM98.3034 248.521H0C1.10355 204.191 13.5006 162.667 34.4204 126.722H109.696C102.78 164.708 98.9565 206.571 98.3034 248.521ZM119.219 248.521C119.906 206.955 124.274 165.381 132.294 126.722L243.346 126.722V248.521L119.219 248.521ZM137.671 103.398L243.346 103.398V1.0981e-05C218.473 1.11924 194.527 5.80328 172.006 13.5538C157.648 39.2777 146.195 69.9273 137.671 103.398ZM114.448 103.398C121.062 74.2261 129.675 48.0876 140.245 26.9664C104.415 45.0587 73.4304 71.3589 49.7588 103.398H114.448Z" fill="#FF0000"/>
</mask>
<g mask="url(#mask0)">
<mask id="mask1" mask-type="alpha" maskUnits="userSpaceOnUse" x="-70" y="-70" width="648" height="648">
<rect x="-69.9204" y="-69.9702" width="647.413" height="647.872" fill="#C4C4C4"/>
</mask>
<g mask="url(#mask1)">
<path d="M-69.9205 577.902L577.492 -69.9705M-69.9205 -147.715L577.492 -795.587M-69.9205 940.71L577.492 292.838M-69.9205 215.093L577.492 -432.779M-69.9205 759.306L577.492 111.434M-69.9205 33.689L577.492 -614.183M-69.9205 1122.11L577.492 474.242M-69.9205 396.497L577.492 -251.375M-69.9205 668.604L577.492 20.7316M-69.9205 -57.0131L577.492 -704.885M-69.9205 1031.41L577.492 383.54M-69.9205 305.795L577.492 -342.077M-69.9205 850.008L577.492 202.136M-69.9205 124.391L577.492 -523.481M-69.9205 1212.82L577.492 564.944M-69.9205 487.2L577.492 -160.673M-69.9205 596.042L577.492 -51.8301M-69.9205 -129.575L577.492 -777.447M-69.9205 958.851L577.492 310.978M-69.9205 233.234L577.492 -414.639M-69.9205 777.446L577.492 129.574M-69.9205 51.8294L577.492 -596.043M-69.9205 1140.25L577.492 492.383M-69.9205 414.638L577.492 -233.234M-69.9205 686.744L577.492 38.872M-69.9205 -38.8727L577.492 -686.745M-69.9205 1049.55L577.492 401.68M-69.9205 323.936L577.492 -323.936M-69.9205 868.148L577.492 220.276M-69.9205 142.532L577.492 -505.341M-69.9205 1230.96L577.492 583.085M-69.9205 505.34L577.492 -142.532M-69.9205 614.183L577.492 -33.6897M-69.9205 -111.434L577.492 -759.307M-69.9205 976.991L577.492 329.119M-69.9205 251.374L577.492 -396.498M-69.9205 795.587L577.492 147.715M-69.9205 69.9699L577.492 -577.902M-69.9205 1158.4L577.492 510.523M-69.9205 432.778L577.492 -215.094M-69.9205 704.885L577.492 57.0124M-69.9205 -20.7322L577.492 -668.604M-69.9205 1067.69L577.492 419.821M-69.9205 342.076L577.492 -305.796M-69.9205 886.289L577.492 238.417M-69.9205 160.672L577.492 -487.2M-69.9205 1249.1L577.492 601.225M-69.9205 523.48L577.492 -124.392M-69.9205 632.323L577.492 -15.5493M-69.9205 -93.2939L577.492 -741.166M-69.9205 995.131L577.492 347.259M-69.9205 269.515L577.492 -378.358M-69.9205 813.727L577.492 165.855M-69.9205 88.1103L577.492 -559.762M-69.9205 1176.54L577.492 528.663M-69.9205 450.919L577.492 -196.953M-69.9205 723.025L577.492 75.1528M-69.9205 -2.59182L577.492 -650.464M-69.9205 1085.83L577.492 437.961M-69.9205 360.217L577.492 -287.656M-69.9205 904.429L577.492 256.557M-69.9205 178.812L577.492 -469.06M-69.9205 1267.24L577.492 619.366M-69.9205 541.621L577.492 -106.251M-69.9205 650.463L577.492 2.59116M-69.9205 -75.1535L577.492 -723.026M-69.9205 1013.27L577.492 365.4M-69.9205 287.655L577.492 -360.217M-69.9205 831.868L577.492 183.995M-69.9205 106.251L577.492 -541.621M-69.9205 1194.68L577.492 546.804M-69.9205 469.059L577.492 -178.813M-69.9205 741.165L577.492 93.2933M-69.9205 15.5486L577.492 -632.324M-69.9205 1103.97L577.492 456.102M-69.9205 378.357L577.492 -269.515M-69.9205 922.57L577.492 274.697M-69.9205 196.953L577.492 -450.919M-69.9205 1285.38L577.492 637.506M-69.9205 559.761L577.492 -88.1109" stroke="white" stroke-opacity="0.2" stroke-width="3.72263"/>
</g>
</g>
</svg>
