<svg width="400" height="400" viewBox="0 0 400 400" fill="none" xmlns="http://www.w3.org/2000/svg">
<g clip-path="url(#clip0)">
<circle cx="199.866" cy="199.866" r="162.5" transform="rotate(23.44 199.866 199.866)" stroke="#3E529D" stroke-width="15"/>
<path d="M99.6632 88.4492C102.875 85.5636 106.202 82.8269 109.632 80.2437L136.915 66.9231L140.537 68.4933L99.6632 88.4492Z" fill="#3E529D"/>
<path d="M92.484 97.7967L90.8247 97.0772C91.9272 95.9079 93.0468 94.7583 94.183 93.6287L143.253 69.671L146.875 71.2412L92.484 97.7967Z" fill="#3E529D"/>
<path d="M84.5464 104.176L90.4706 101.284L94.0923 102.854L80.2474 109.613C81.6422 107.762 83.0757 105.95 84.5464 104.176Z" fill="#3E529D"/>
<path d="M74.0594 118.477C75.1483 116.79 76.2677 115.131 77.4164 113.499L96.8086 104.031L100.43 105.602L74.0594 118.477Z" fill="#3E529D"/>
<path d="M69.0911 126.745C69.9703 125.169 70.8748 123.615 71.8039 122.082L103.146 106.779L106.768 108.35L69.0911 126.745Z" fill="#3E529D"/>
<path d="M65.0165 134.576C65.7389 133.083 66.4833 131.607 67.2489 130.148L109.484 109.527L113.106 111.097L65.0165 134.576Z" fill="#3E529D"/>
<path d="M65.0532 140.401L62.7793 139.415C63.0142 138.883 63.2518 138.353 63.4921 137.825L115.822 112.275L119.444 113.845L65.0532 140.401Z" fill="#3E529D"/>
<path d="M60.3699 145.191L63.0399 143.888L66.6615 145.458L58.8288 149.282C59.3213 147.915 59.835 146.552 60.3699 145.191Z" fill="#3E529D"/>
<path d="M56.505 156.259C56.9098 154.937 57.3339 153.617 57.7775 152.299L69.3778 146.636L72.9994 148.206L56.505 156.259Z" fill="#3E529D"/>
<path d="M54.6044 163.029C54.9324 161.746 55.2781 160.464 55.6417 159.184L75.7157 149.384L79.3374 150.954L54.6044 163.029Z" fill="#3E529D"/>
<path d="M53.0787 169.616C53.3383 168.368 53.6144 167.12 53.9071 165.874L82.0536 152.131L85.6753 153.702L53.0787 169.616Z" fill="#3E529D"/>
<path d="M51.8898 176.039C52.0877 174.822 52.301 173.605 52.5299 172.388L88.3915 154.879L92.0132 156.45L51.8898 176.039Z" fill="#3E529D"/>
<path d="M51.0068 182.313C51.1484 181.123 51.3046 179.934 51.4755 178.745L94.7294 157.627L97.1511 158.677V159.783L51.0068 182.313Z" fill="#3E529D"/>
<path d="M97.1511 152.544H93.1748L93.1212 152.57L96.7428 154.14L97.1511 153.941V152.544Z" fill="#3E529D"/>
<path d="M111.817 137.6H118.655L119.971 136.958C120.891 135.368 121.828 133.798 122.779 132.248L111.817 137.6Z" fill="#3E529D"/>
<path d="M127.215 137.6V139.263L128.726 138.525V137.6H130.621L151.134 127.585L147.512 126.015L124.408 137.295L124.228 137.6H127.215Z" fill="#3E529D"/>
<path d="M127.215 141.767V145.105L128.726 144.367V141.029L127.215 141.767Z" fill="#3E529D"/>
<path d="M113.391 160.201V161.359L115.757 162.384L128.726 156.052V152.713L113.391 160.201Z" fill="#3E529D"/>
<path d="M113.391 166.043V169.381L117.365 167.441L113.743 165.871L113.391 166.043Z" fill="#3E529D"/>
<path d="M113.391 171.885V175.224L123.703 170.189L120.081 168.619L113.391 171.885Z" fill="#3E529D"/>
<path d="M113.391 177.727V181.066L128.726 173.579V172.367L126.419 171.367L113.391 177.727Z" fill="#3E529D"/>
<path d="M97.1511 192V191.499L79.5486 200.093L83.1702 201.663L96.3905 195.209C96.6547 194.14 96.928 193.071 97.2105 192H97.1511Z" fill="#3E529D"/>
<path d="M97.1511 188.995V185.656L73.2106 197.345L76.8323 198.915L97.1511 188.995Z" fill="#3E529D"/>
<path d="M97.1511 183.153V179.814L66.8728 194.597L70.4944 196.167L97.1511 183.153Z" fill="#3E529D"/>
<path d="M97.1511 177.31V173.972L60.5348 191.849L64.1565 193.419L97.1511 177.31Z" fill="#3E529D"/>
<path d="M97.1511 171.468V168.13L54.1969 189.101L57.8186 190.671L97.1511 171.468Z" fill="#3E529D"/>
<path d="M97.1511 165.626V162.287L50.7156 184.959C50.6304 185.803 50.5524 186.647 50.4817 187.49L51.4807 187.924L97.1511 165.626Z" fill="#3E529D"/>
<path d="M102.962 192H101.35C101.269 192.302 101.188 192.603 101.108 192.905L102.962 192Z" fill="#3E529D"/>
<path d="M113.391 183.57V186.908L128.726 179.421V176.083L113.391 183.57Z" fill="#3E529D"/>
<path d="M113.391 192H108.091L100.373 195.768C100.058 197.03 99.7563 198.29 99.4675 199.549L128.726 185.263V181.925L113.391 189.412V192Z" fill="#3E529D"/>
<path d="M98.8435 202.357L128.726 187.767V191.106L98.0826 206.067C98.3237 204.833 98.5773 203.596 98.8435 202.357Z" fill="#3E529D"/>
<path d="M100.071 207.6L132.023 192H138.861L106.909 207.6H100.071Z" fill="#3E529D"/>
<path d="M112.037 207.6L143.989 192H149.169C149.035 192.335 148.901 192.67 148.768 193.005L118.875 207.6H115.143V209.422L113.875 210.041V207.6H112.037Z" fill="#3E529D"/>
<path d="M152.876 193.503L155.955 192H162.793L151.245 197.638C151.779 196.263 152.323 194.885 152.876 193.503Z" fill="#3E529D"/>
<path d="M168.068 189.425L166.206 190.333V188.617L168.068 189.425Z" fill="#3E529D"/>
<path d="M166.46 184.367L166.206 184.258V181.153L172.109 178.271V181.609L166.46 184.367Z" fill="#3E529D"/>
<path d="M172.109 175.767L166.206 178.649V177.992H160.714L172.109 172.428V175.767Z" fill="#3E529D"/>
<path d="M156.801 174.06C156.214 175.363 155.63 176.674 155.051 177.992H151.755L150.162 177.301L156.801 174.06Z" fill="#3E529D"/>
<path d="M147.446 176.124L144.462 174.83V174.242L152.184 170.472H158.438L158.268 170.84L147.446 176.124Z" fill="#3E529D"/>
<path d="M147.056 170.472L144.462 171.738V170.472H147.056Z" fill="#3E529D"/>
<path d="M162.464 171.295L164.15 170.472H164.766V170.171L172.109 166.586V169.925L160.498 175.594C161.148 174.151 161.804 172.718 162.464 171.295Z" fill="#3E529D"/>
<path d="M172.109 164.082L164.766 167.667V166.411C165.203 165.499 165.642 164.59 166.083 163.686L172.109 160.744V164.082Z" fill="#3E529D"/>
<path d="M165.667 155.543L163.486 156.608H156.648L167.965 151.082C167.195 152.556 166.428 154.043 165.667 155.543Z" fill="#3E529D"/>
<path d="M161.761 151.608L151.52 156.608H144.682L154.923 151.608H161.761Z" fill="#3E529D"/>
<path d="M149.794 151.608L144.462 154.211V151.608H149.794Z" fill="#3E529D"/>
<path d="M166.206 149.437V146.099L172.109 143.217V143.356C171.319 144.793 170.532 146.243 169.75 147.708L166.206 149.437Z" fill="#3E529D"/>
<path d="M166.206 143.595L172.109 140.713V137.6H174.233L172.864 137.006L166.206 140.257V143.595Z" fill="#3E529D"/>
<path d="M184.288 137.6H190.452L235.501 115.606L237.337 111.371L183.931 137.445L184.288 137.6Z" fill="#3E529D"/>
<path d="M195.363 137.706C197.186 137.844 198.899 138.12 200.493 138.54L232.287 123.017L234.124 118.782L195.363 137.706Z" fill="#3E529D"/>
<path d="M203.51 139.57C204.66 140.064 205.729 140.654 206.715 141.345L229.074 130.428L230.91 126.193L203.51 139.57Z" fill="#3E529D"/>
<path d="M208.63 142.913C209.407 143.643 210.101 144.418 210.712 145.235L218.726 141.322V137.984L208.63 142.913Z" fill="#3E529D"/>
<path d="M211.944 147.137C212.429 148.012 212.833 148.928 213.156 149.884L218.726 147.164V143.826L211.944 147.137Z" fill="#3E529D"/>
<path d="M214.11 155.261C214.105 155.134 214.1 155.008 214.093 154.882L214.513 155.064L214.11 155.261Z" fill="#3E529D"/>
<path d="M213.422 161.439C213.748 160.269 213.96 159.051 214.059 157.789L217.229 156.242L217.779 156.48L216.221 160.072L213.422 161.439Z" fill="#3E529D"/>
<path d="M189.543 175.601L188.277 176.219V179.558L191.132 178.164L189.543 175.601Z" fill="#3E529D"/>
<path d="M169.176 185.545L172.109 184.113V186.817L169.176 185.545Z" fill="#3E529D"/>
<path d="M170.784 190.602L172.109 191.177V192H174.008L174.406 192.172L148.532 204.805C149.032 203.447 149.542 202.086 150.061 200.72L170.784 190.602Z" fill="#3E529D"/>
<path d="M185.474 192.611L184.064 192H186.726L185.474 192.611Z" fill="#3E529D"/>
<path d="M196.692 187.134L188.277 191.242V187.904L195.103 184.571L196.692 187.134Z" fill="#3E529D"/>
<path d="M193.912 182.649L188.277 185.4V182.062L192.323 180.086L193.912 182.649Z" fill="#3E529D"/>
<path d="M207.827 175.855L206.105 173.357L211.631 170.659L209.795 174.894L207.827 175.855Z" fill="#3E529D"/>
<path d="M212.132 182.1L213.854 184.597L218.726 182.218V178.88L212.132 182.1Z" fill="#3E529D"/>
<path d="M199.472 191.619L197.883 189.056L188.19 193.789L191.812 195.359L199.472 191.619Z" fill="#3E529D"/>
<path d="M210.658 192H206.738L205.686 194.428L210.658 192Z" fill="#3E529D"/>
<path d="M215.145 186.471L216.867 188.968L218.726 188.061V184.722L215.145 186.471Z" fill="#3E529D"/>
<path d="M204.309 197.604L215.786 192L222.624 192L204.487 200.855L203.15 200.275L204.309 197.604Z" fill="#3E529D"/>
<path d="M207.204 202.033L227.752 192H234.59L210.825 203.603L207.204 202.033Z" fill="#3E529D"/>
<path d="M234.894 188.513V191.851L243.599 187.602L242.01 185.039L234.894 188.513Z" fill="#3E529D"/>
<path d="M259.771 183.582L260.785 185.053L262.606 184.164L264.79 179.759L260.309 181.947C260.132 182.491 259.952 183.036 259.771 183.582Z" fill="#3E529D"/>
<path d="M305.284 165.831L305.295 165.853L305.297 165.825L305.284 165.831Z" fill="#3E529D"/>
<path d="M308.853 173.045L308.942 173.226L343.35 156.427L339.728 154.856L309.088 169.816C309.02 170.889 308.941 171.966 308.853 173.045Z" fill="#3E529D"/>
<path d="M309.94 175.243L311.27 177.932L344.975 161.476C344.713 160.492 344.441 159.512 344.16 158.535L309.94 175.243Z" fill="#3E529D"/>
<path d="M312.267 179.948L313.597 182.638L346.265 166.688C346.036 165.689 345.798 164.693 345.549 163.699L312.267 179.948Z" fill="#3E529D"/>
<path d="M314.595 184.654L315.925 187.343L347.376 171.988C347.182 170.972 346.978 169.959 346.763 168.949L314.595 184.654Z" fill="#3E529D"/>
<path d="M318.228 192H311.516L310.689 192.403L314.311 193.974L348.304 177.377C348.146 176.345 347.977 175.314 347.797 174.286L316.922 189.36L318.228 192Z" fill="#3E529D"/>
<path d="M296.567 185.11L295.249 182.415L291.676 184.16L295.297 185.73L296.567 185.11Z" fill="#3E529D"/>
<path d="M290.397 182.28H287.34L288.959 182.982L290.397 182.28Z" fill="#3E529D"/>
<path d="M258.523 192H256.878C256.798 192.225 256.718 192.451 256.637 192.677C256.602 192.775 256.566 192.874 256.531 192.972L258.523 192Z" fill="#3E529D"/>
<path d="M252.63 192H251.685L219.879 207.528L220.044 207.6H226.571L251.355 195.499C251.787 194.33 252.212 193.163 252.63 192Z" fill="#3E529D"/>
<path d="M246.325 192L244.79 189.524L213.541 204.781L217.163 206.351L246.556 192H246.325Z" fill="#3E529D"/>
<path d="M215.15 209.838L216.09 210.245V212.717L206.641 217.33C206.013 216.51 205.337 215.728 204.612 214.983L215.15 209.838Z" fill="#3E529D"/>
<path d="M207.947 219.197L216.09 215.221V218.559L209.417 221.817C208.972 220.91 208.482 220.036 207.947 219.197Z" fill="#3E529D"/>
<path d="M210.333 223.874L216.09 221.063V224.402L211.309 226.736C211.037 225.759 210.712 224.805 210.333 223.874Z" fill="#3E529D"/>
<path d="M211.834 228.983L216.09 226.906V230.244L212.257 232.115C212.169 231.049 212.029 230.005 211.834 228.983Z" fill="#3E529D"/>
<path d="M212.364 234.567L216.09 232.748V236.086L212.218 237.977C212.316 236.938 212.365 235.879 212.365 234.8C212.365 234.722 212.365 234.644 212.364 234.567Z" fill="#3E529D"/>
<path d="M211.846 240.662L216.09 238.59V241.929L210.871 244.477C211.281 243.24 211.606 241.968 211.846 240.662Z" fill="#3E529D"/>
<path d="M209.648 247.577L216.09 244.432V247.771L206.909 252.253C207.973 250.804 208.886 249.245 209.648 247.577Z" fill="#3E529D"/>
<path d="M206.307 255.051L216.09 250.275V253.613L209.929 256.621L206.307 255.051Z" fill="#3E529D"/>
<path d="M212.645 257.799L216.09 256.117V259.293L212.645 257.799Z" fill="#3E529D"/>
<path d="M225.321 263.295L227.973 262H232.258V259.908L260.949 245.9V249.238L228.942 264.865L225.321 263.295Z" fill="#3E529D"/>
<path d="M260.949 243.396L232.258 257.404V254.066L260.949 240.058V243.396Z" fill="#3E529D"/>
<path d="M260.949 237.554L232.258 251.562V248.49L232.444 248.133L240.308 244.293C244.866 243.712 248.654 242.222 251.526 239.682L251.532 239.677L251.538 239.672C252.117 239.151 252.651 238.603 253.139 238.028L260.949 234.215V237.554Z" fill="#3E529D"/>
<path d="M234.164 244.789L234.272 244.576H234.6L234.164 244.789Z" fill="#3E529D"/>
<path d="M260.949 231.711L255.473 234.385C256.049 233.146 256.477 231.823 256.759 230.419L259.515 229.073L260.949 229.695V231.711Z" fill="#3E529D"/>
<path d="M260.949 220.027L256.819 222.043C256.631 221.016 256.367 220.032 256.025 219.092L260.949 216.688V220.027Z" fill="#3E529D"/>
<path d="M260.949 214.184L255.114 217.033C254.643 216.141 254.09 215.298 253.452 214.506L260.949 210.846V214.184Z" fill="#3E529D"/>
<path d="M260.949 208.342L251.848 212.785C251.743 212.687 251.635 212.59 251.526 212.494C250.925 211.962 250.283 211.476 249.603 211.035C249.686 210.83 249.77 210.626 249.853 210.421L293.284 189.217L296.906 190.787L262.469 207.6H260.949V208.342Z" fill="#3E529D"/>
<path d="M247.414 205.77C246.954 206.926 246.487 208.084 246.013 209.245C244.878 208.82 243.669 208.48 242.39 208.223L247.414 205.77Z" fill="#3E529D"/>
<path d="M248.635 202.67L238.348 207.692C237.454 207.63 236.532 207.6 235.586 207.6H231.699L250.211 198.562C249.695 199.928 249.17 201.297 248.635 202.67Z" fill="#3E529D"/>
<path d="M274.435 207.6H267.598L299.622 191.965L302.091 193.035C302.016 193.426 301.94 193.817 301.863 194.209L274.435 207.6Z" fill="#3E529D"/>
<path d="M277.333 212.028V208.689L301.296 196.99C301.033 198.235 300.757 199.483 300.468 200.732L277.333 212.028Z" fill="#3E529D"/>
<path d="M257.907 224.016L260.949 222.531V225.335L257.907 224.016Z" fill="#3E529D"/>
<path d="M277.333 214.531V217.87L298.816 207.381C299.154 206.108 299.48 204.836 299.792 203.566L277.333 214.531Z" fill="#3E529D"/>
<path d="M277.333 220.374V223.712L296.891 214.164C297.283 212.865 297.661 211.567 298.025 210.271L277.333 220.374Z" fill="#3E529D"/>
<path d="M277.333 226.216V229.554L294.673 221.089C295.122 219.763 295.557 218.438 295.977 217.113L277.333 226.216Z" fill="#3E529D"/>
<path d="M277.333 232.058V232.439L280.542 233.83L292.138 228.168C292.65 226.813 293.146 225.458 293.627 224.103L277.333 232.058Z" fill="#3E529D"/>
<path d="M277.333 241.239V237.901L278.529 237.317L282.151 238.887L277.333 241.239Z" fill="#3E529D"/>
<path d="M231.659 266.043L260.949 251.742V255.081L235.28 267.613L231.659 266.043Z" fill="#3E529D"/>
<path d="M277.333 243.743V247.081L285.991 242.854C286.285 242.216 286.577 241.575 286.866 240.932L284.867 240.065L277.333 243.743Z" fill="#3E529D"/>
<path d="M237.996 268.791L260.949 257.584V260.923L241.618 270.361L237.996 268.791Z" fill="#3E529D"/>
<path d="M277.333 249.585V252.924L282.287 250.505C283.025 249.052 283.75 247.586 284.461 246.105L277.333 249.585Z" fill="#3E529D"/>
<path d="M244.334 271.539L263.871 262H270.709L247.956 273.109L244.334 271.539Z" fill="#3E529D"/>
<path d="M277.333 255.428V258.766L278.067 258.408C278.908 256.908 279.735 255.392 280.547 253.858L277.333 255.428Z" fill="#3E529D"/>
<path d="M276.007 262H275.838L250.672 274.287L254.294 275.857L273.222 266.616C274.165 265.097 275.094 263.558 276.007 262Z" fill="#3E529D"/>
<path d="M194.831 261.499C193.379 262.075 191.868 262.53 190.3 262.866L172.176 271.715L170.34 275.95L205.199 258.931L201.833 257.471C199.739 259.113 197.407 260.454 194.845 261.493L194.838 261.496L194.831 261.499Z" fill="#3E529D"/>
<path d="M183.221 263.584C181.333 263.584 179.504 263.443 177.736 263.158L175.39 264.304L173.554 268.539L183.708 263.581C183.546 263.583 183.384 263.584 183.221 263.584Z" fill="#3E529D"/>
<path d="M171.597 261.493C171.163 261.317 170.736 261.132 170.315 260.939L134.511 278.42L138.132 279.99L171.236 263.828L172.156 261.706C171.977 261.64 171.798 261.572 171.62 261.502L171.608 261.498L171.597 261.493Z" fill="#3E529D"/>
<path d="M167.827 259.65C166.819 259.064 165.855 258.422 164.936 257.723L130.353 274.608C130.268 275.246 130.186 275.88 130.108 276.511L131.794 277.242L167.827 259.65Z" fill="#3E529D"/>
<path d="M162.309 255.452C161.794 254.947 161.301 254.425 160.832 253.884L145.207 261.513V262H144.21L131.28 268.313C131.084 269.527 130.9 270.73 130.727 271.921L163.041 256.144C162.793 255.918 162.549 255.688 162.309 255.452Z" fill="#3E529D"/>
<path d="M159.396 252.082C158.805 251.27 158.258 250.423 157.757 249.543L145.207 255.67V259.009L159.396 252.082Z" fill="#3E529D"/>
<path d="M156.162 246.266C155.964 245.767 155.78 245.261 155.61 244.749L145.207 249.828V253.167L156.723 247.544C156.53 247.133 156.347 246.714 156.172 246.289L156.167 246.278L156.162 246.266Z" fill="#3E529D"/>
<path d="M154.978 242.554C154.733 241.557 154.539 240.539 154.394 239.501L145.207 243.986V247.324L154.978 242.554Z" fill="#3E529D"/>
<path d="M154.152 237.115C154.144 237.007 154.138 236.898 154.132 236.79L150.874 235.377L145.207 238.144V241.482L154.152 237.115Z" fill="#3E529D"/>
<path d="M200.195 211.297C201.132 211.917 202.023 212.594 202.869 213.33L212.434 208.66L208.812 207.09L200.195 211.297Z" fill="#3E529D"/>
<path d="M194.738 208.525C194.875 208.576 195.01 208.629 195.146 208.682L195.565 207.715L194.271 208.347C194.357 208.379 194.444 208.412 194.531 208.445C194.6 208.471 194.669 208.498 194.738 208.525Z" fill="#3E529D"/>
<path d="M154.266 231.217C154.4 229.972 154.607 228.758 154.886 227.576L149.266 230.32L152.887 231.89L154.266 231.217Z" fill="#3E529D"/>
<path d="M196.942 204.539L191.126 207.379C189.463 206.967 187.747 206.692 185.977 206.554L196.136 201.594L197.889 202.354L196.942 204.539Z" fill="#3E529D"/>
<path d="M156.62 222.544H153.226L145.207 226.459V228.56L146.549 229.142L155.753 224.649C155.907 224.219 156.072 223.793 156.248 223.373L156.252 223.361L156.257 223.35C156.375 223.078 156.496 222.81 156.62 222.544Z" fill="#3E529D"/>
<path d="M159.031 217.206L160.446 216.515C161.077 215.76 161.751 215.038 162.467 214.35L162.474 214.343L162.481 214.336C165.169 211.804 168.271 209.866 171.771 208.527C174.649 207.401 177.699 206.737 180.91 206.524L193.42 200.416L189.798 198.846L159.031 213.867V217.206Z" fill="#3E529D"/>
<path d="M145.207 222.544V223.955L148.098 222.544H145.207Z" fill="#3E529D"/>
<path d="M187.082 197.668L159.031 211.363V208.025L183.46 196.098L187.082 197.668Z" fill="#3E529D"/>
<path d="M180.744 194.92L154.774 207.6H147.936L177.122 193.35L180.744 194.92Z" fill="#3E529D"/>
<path d="M143.361 207.33L142.808 207.6H135.97L144.834 203.272C144.334 204.628 143.843 205.981 143.361 207.33Z" fill="#3E529D"/>
<path d="M145.977 200.21L130.841 207.6H124.004L147.55 196.104C147.016 197.476 146.492 198.845 145.977 200.21Z" fill="#3E529D"/>
<path d="M113.875 212.545L115.143 211.926V215.264L114.86 215.403L113.875 214.976V212.545Z" fill="#3E529D"/>
<path d="M113.875 219.336L115.143 219.885V221.106L113.875 221.726V219.336Z" fill="#3E529D"/>
<path d="M113.875 224.23L117.328 222.544H121.275L122.806 223.208L113.875 227.568V224.23Z" fill="#3E529D"/>
<path d="M125.522 224.385L128.967 225.879V226.042L113.875 233.41V230.072L125.522 224.385Z" fill="#3E529D"/>
<path d="M113.875 235.914L128.967 228.546V231.884L113.875 239.253V235.914Z" fill="#3E529D"/>
<path d="M113.875 241.756L128.967 234.388V237.726L113.828 245.118C113.86 244.568 113.875 244.009 113.875 243.44V241.756Z" fill="#3E529D"/>
<path d="M113.542 247.761L128.967 240.23V243.569L112.549 251.585C112.993 250.382 113.323 249.106 113.542 247.761Z" fill="#3E529D"/>
<path d="M110.917 254.885L128.967 246.072V249.411L100.105 263.503L99.2164 263.117C100.405 262.795 101.556 262.391 102.669 261.904C106.087 260.409 108.819 258.117 110.814 255.045C110.849 254.992 110.883 254.939 110.917 254.885Z" fill="#3E529D"/>
<path d="M102.821 264.68L128.967 251.915V255.253L106.443 266.251L102.821 264.68Z" fill="#3E529D"/>
<path d="M109.159 267.428L128.967 257.757V258.551C128.782 259.492 128.603 260.428 128.429 261.358L112.781 268.999L109.159 267.428Z" fill="#3E529D"/>
<path d="M131.734 265.587C131.939 264.401 132.153 263.205 132.379 262H139.081L131.734 265.587Z" fill="#3E529D"/>
<path d="M87.4765 263.826C85.8505 263.611 84.2854 263.263 82.7836 262.779L67.4654 270.258C67.9336 271.142 68.4106 272.022 68.8965 272.897L87.4765 263.826Z" fill="#3E529D"/>
<path d="M79.945 261.661C78.8472 261.136 77.8212 260.523 76.8684 259.824L65.0903 265.575C65.527 266.474 65.9728 267.37 66.4274 268.261L79.945 261.661Z" fill="#3E529D"/>
<path d="M74.9858 258.24C74.3228 257.601 73.7048 256.911 73.1326 256.168L72.7398 255.998L62.8795 260.812C63.2848 261.727 63.6993 262.637 64.1227 263.544L74.9858 258.24Z" fill="#3E529D"/>
<path d="M85.5825 243.885C85.7217 245.032 86.0493 245.978 86.5309 246.761L90.5741 244.787C90.5531 243.684 90.543 242.576 90.5436 241.463L85.5825 243.885Z" fill="#3E529D"/>
<path d="M88.2309 248.435C88.877 248.788 89.6881 249.026 90.7123 249.11C90.6845 248.495 90.6602 247.878 90.6392 247.259L88.2309 248.435Z" fill="#3E529D"/>
<path d="M96.0941 247.474C95.73 247.903 95.2723 248.269 94.6916 248.547C94.6461 247.481 94.611 246.409 94.5865 245.332L97.6336 243.844C97.4478 245.368 96.9161 246.538 96.1168 247.448L96.1053 247.461L96.0941 247.474Z" fill="#3E529D"/>
<path d="M97.7071 237.966V241.304L94.5487 242.846C94.5402 241.737 94.5427 240.623 94.5563 239.504L97.7071 237.966Z" fill="#3E529D"/>
<path d="M97.7071 232.123V235.462L94.6057 236.976C94.6361 235.848 94.6777 234.714 94.7304 233.577L97.7071 232.123Z" fill="#3E529D"/>
<path d="M97.7071 226.281V229.62L94.8685 231.005C94.9385 229.857 95.0198 228.704 95.1126 227.548L97.7071 226.281Z" fill="#3E529D"/>
<path d="M97.7071 223.777V220.439L95.7076 221.415C95.5738 222.591 95.4517 223.764 95.3412 224.932L97.7071 223.777Z" fill="#3E529D"/>
<path d="M97.7071 217.935V214.596L96.522 215.175C96.3459 216.371 96.1817 217.564 96.0293 218.754L97.7071 217.935Z" fill="#3E529D"/>
<path d="M85.5071 238.08V241.418L90.5633 238.95C90.5802 237.828 90.608 236.701 90.6467 235.571L85.5071 238.08Z" fill="#3E529D"/>
<path d="M69.9036 249.036C69.6861 248.04 69.5327 247.001 69.4413 245.924L64.7936 248.193L68.4153 249.763L69.9036 249.036Z" fill="#3E529D"/>
<path d="M90.7524 233.015L85.5071 235.576V232.238L90.9517 229.579C90.8742 230.729 90.8078 231.874 90.7524 233.015Z" fill="#3E529D"/>
<path d="M69.3391 240.131L58.4557 245.445L62.0774 247.015L69.3391 243.47L69.3391 240.131Z" fill="#3E529D"/>
<path d="M91.1452 226.981L85.5071 229.734V226.395L91.463 223.487C91.3458 224.655 91.2399 225.82 91.1452 226.981Z" fill="#3E529D"/>
<path d="M69.3391 237.627V234.289L55.6938 240.951C55.9713 241.927 56.2586 242.899 56.5556 243.869L69.3391 237.627Z" fill="#3E529D"/>
<path d="M91.7466 220.845L85.5071 223.891V220.553L92.1863 217.292C92.0282 218.479 91.8817 219.664 91.7466 220.845Z" fill="#3E529D"/>
<path d="M69.3391 231.785V228.447L54.3215 235.779C54.5658 236.77 54.8201 237.759 55.0844 238.745L69.3391 231.785Z" fill="#3E529D"/>
<path d="M92.563 214.604L85.5071 218.049V214.711L93.129 210.989C92.9285 212.197 92.7399 213.402 92.563 214.604Z" fill="#3E529D"/>
<path d="M69.3391 225.943V222.604L53.1254 230.52C53.3357 231.528 53.5563 232.533 53.7871 233.536L69.3391 225.943Z" fill="#3E529D"/>
<path d="M91.1165 209.468L85.5071 212.207V208.868L87.4948 207.898L91.1165 209.468Z" fill="#3E529D"/>
<path d="M69.3391 220.101V216.762L52.1102 225.174C52.2855 226.198 52.4714 227.22 52.6679 228.24L69.3391 220.101Z" fill="#3E529D"/>
<path d="M84.7786 206.72L82.9766 207.6H76.1388L81.1569 205.15L84.7786 206.72Z" fill="#3E529D"/>
<path d="M69.3391 214.258V210.92L51.2816 219.736C51.4208 220.778 51.5709 221.817 51.7318 222.855L69.3391 214.258Z" fill="#3E529D"/>
<path d="M69.3391 207.6H71.0104L78.4406 203.972L74.8189 202.402L50.6464 214.204C50.7481 215.263 50.8611 216.321 50.9852 217.377L69.3391 208.416V207.6Z" fill="#3E529D"/>
<path d="M145.207 232.92V235.64L148.158 234.199L145.207 232.92Z" fill="#3E529D"/>
<path d="M270.489 192H263.651L255.428 196.015C254.93 197.371 254.424 198.732 253.908 200.095L270.489 192Z" fill="#3E529D"/>
<path d="M280.941 183.865L279.033 187.828L284.23 185.291L280.941 183.865Z" fill="#3E529D"/>
<path d="M277.024 192H275.617L252.73 203.174C252.198 204.548 251.658 205.925 251.108 207.305L290.568 188.039L286.946 186.469L277.457 191.102L277.024 192Z" fill="#3E529D"/>
<path d="M302.957 161.125L304.287 163.814L305.388 163.277C305.42 162.149 305.44 161.026 305.45 159.908L302.957 161.125Z" fill="#3E529D"/>
<path d="M305.453 157.402L301.959 159.108L300.629 156.419L305.4 154.09C305.429 155.189 305.446 156.293 305.453 157.402Z" fill="#3E529D"/>
<path d="M267.752 173.787L268.614 172.05L266.324 173.168L267.752 173.787Z" fill="#3E529D"/>
<path d="M305.316 151.627L299.631 154.402L298.301 151.713L305.147 148.371C305.214 149.45 305.271 150.536 305.316 151.627Z" fill="#3E529D"/>
<path d="M270.252 168.746L272.437 164.341L264.526 168.203C264.173 169.436 263.812 170.675 263.442 171.918L263.608 171.99L270.252 168.746Z" fill="#3E529D"/>
<path d="M304.977 145.95L297.304 149.696L295.974 147.007L304.694 142.75C304.799 143.81 304.894 144.877 304.977 145.95Z" fill="#3E529D"/>
<path d="M274.076 161.037L276.261 156.632L266.389 161.452C266.05 162.728 265.702 164.011 265.344 165.3L274.076 161.037Z" fill="#3E529D"/>
<path d="M304.438 140.371L294.976 144.991L293.646 142.302L301.701 138.369L304.336 139.511C304.371 139.797 304.405 140.084 304.438 140.371Z" fill="#3E529D"/>
<path d="M277.899 153.328L280.084 148.923L268.088 154.78C267.781 156.04 267.464 157.308 267.137 158.583L277.899 153.328Z" fill="#3E529D"/>
<path d="M298.985 137.191L292.649 140.285L291.318 137.596L295.363 135.621L298.985 137.191Z" fill="#3E529D"/>
<path d="M281.723 145.619L283.907 141.214L269.622 148.189C269.346 149.433 269.061 150.685 268.766 151.945L281.723 145.619Z" fill="#3E529D"/>
<path d="M292.647 134.443L290.321 135.579L288.991 132.89L289.025 132.873L292.647 134.443Z" fill="#3E529D"/>
<path d="M285.546 137.91L287.731 133.505L270.987 141.68C270.744 142.907 270.491 144.144 270.228 145.389L285.546 137.91Z" fill="#3E529D"/>
<path d="M256.05 178.184L256.917 179.443C257.133 178.777 257.346 178.112 257.556 177.449L256.05 178.184Z" fill="#3E529D"/>
<path d="M258.481 174.493L254.758 176.311L253.037 173.813L255.256 172.729L258.581 174.171L258.481 174.493Z" fill="#3E529D"/>
<path d="M252.54 171.552L251.745 171.94L251.673 171.835C251.9 171.715 252.123 171.593 252.343 171.466L252.54 171.552Z" fill="#3E529D"/>
<path d="M238.039 178.632L236.45 176.069L234.894 176.828V180.167L238.039 178.632Z" fill="#3E529D"/>
<path d="M239.23 180.554L234.894 182.671V186.009L240.819 183.117L239.23 180.554Z" fill="#3E529D"/>
<path d="M218.726 191.665V190.564L218.159 190.842L218.726 191.665Z" fill="#3E529D"/>
<path d="M257.27 169.242L255.955 168.673C256.65 167.956 257.275 167.174 257.826 166.324C258.037 166.001 258.237 165.673 258.425 165.34L261.614 163.783C261.26 165.067 260.896 166.358 260.522 167.655L257.27 169.242Z" fill="#3E529D"/>
<path d="M262.397 160.897L259.824 162.153C260.21 160.962 260.474 159.719 260.616 158.428L263.395 157.071C263.072 158.339 262.74 159.614 262.397 160.897Z" fill="#3E529D"/>
<path d="M264.107 154.22L260.741 155.863C260.73 154.758 260.639 153.689 260.466 152.659L265.009 150.441C264.719 151.692 264.418 152.952 264.107 154.22Z" fill="#3E529D"/>
<path d="M265.65 147.624L259.942 150.411C259.649 149.441 259.274 148.51 258.819 147.621L266.455 143.893C266.197 145.128 265.928 146.372 265.65 147.624Z" fill="#3E529D"/>
<path d="M267.022 141.112L257.655 145.685C257.074 144.853 256.411 144.064 255.665 143.318L267.727 137.429C267.503 138.647 267.268 139.875 267.022 141.112Z" fill="#3E529D"/>
<path d="M268.219 134.685L253.832 141.709C252.894 140.998 251.873 140.384 250.776 139.863L268.822 131.052C268.632 132.253 268.431 133.464 268.219 134.685Z" fill="#3E529D"/>
<path d="M269.234 128.347L247.901 138.763C246.388 138.307 244.762 137.989 243.03 137.802L269.73 124.767C269.576 125.948 269.411 127.142 269.234 128.347Z" fill="#3E529D"/>
<path d="M267.295 123.452L238.316 137.6H231.479L263.673 121.881L267.295 123.452Z" fill="#3E529D"/>
<path d="M227.697 133.604L225.965 137.6H219.513L227.697 133.604Z" fill="#3E529D"/>
<path d="M218.726 176.376V173.038L213.948 175.37L212.112 179.605L218.726 176.376Z" fill="#3E529D"/>
<path d="M218.726 170.534V167.195L217.162 167.959L215.325 172.194L218.726 170.534Z" fill="#3E529D"/>
<path d="M218.726 164.691V164.35L218.539 164.783L218.726 164.691Z" fill="#3E529D"/>
<path d="M218.726 152.531V149.668L215.621 151.185L218.726 152.531Z" fill="#3E529D"/>
<path d="M211.209 166.324C210.304 167.718 209.201 168.933 207.913 169.971L213.008 167.483L214.844 163.248L212.243 164.518C211.936 165.137 211.592 165.739 211.209 166.324Z" fill="#3E529D"/>
<path d="M128.726 161.894V158.556L118.473 163.562L122.094 165.132L128.726 161.894Z" fill="#3E529D"/>
<path d="M170.147 135.829L166.206 137.753V137.6H159.682L166.526 134.258L170.147 135.829Z" fill="#3E529D"/>
<path d="M163.809 133.081L154.553 137.6H147.715L160.188 131.511L163.809 133.081Z" fill="#3E529D"/>
<path d="M127.215 147.609L128.726 146.871V150.21L127.215 150.947V147.609Z" fill="#3E529D"/>
<path d="M113.861 157.468L123.945 152.544H117.107L115.908 153.13C115.213 154.562 114.53 156.008 113.861 157.468Z" fill="#3E529D"/>
<path d="M157.471 130.333L142.587 137.6H135.749L153.85 128.763L157.471 130.333Z" fill="#3E529D"/>
<path d="M171.683 152.606C171.825 152.335 171.967 152.064 172.109 151.794V152.398L171.683 152.606Z" fill="#3E529D"/>
<path d="M169.946 155.958L172.109 154.902V158.24L167.707 160.389C168.449 158.9 169.195 157.422 169.946 155.958Z" fill="#3E529D"/>
<path d="M128.726 167.736L128.726 164.398L124.811 166.31L128.432 167.88L128.726 167.736Z" fill="#3E529D"/>
<path d="M99.8507 137.6H106.688L125.043 128.639C126.113 126.971 127.199 125.328 128.303 123.709L99.8507 137.6Z" fill="#3E529D"/>
<path d="M83.3271 148.324V145.667L80.4453 147.074L83.3271 148.324Z" fill="#3E529D"/>
<path d="M130.954 119.911L94.7223 137.6H87.8845L128.498 117.771L131.542 119.091C131.346 119.363 131.149 119.637 130.954 119.911Z" fill="#3E529D"/>
<path d="M83.3271 143.164V139.825L74.1074 144.326L77.7291 145.897L83.3271 143.164Z" fill="#3E529D"/>
<path d="M49.9626 200.349C49.9594 199.233 49.9688 198.115 49.9907 196.997L55.8052 194.158L59.4269 195.729L49.9626 200.349Z" fill="#3E529D"/>
<path d="M50.091 206.129C50.0455 205.034 50.0119 203.937 49.9905 202.84L62.1431 196.906L65.7648 198.476L50.091 206.129Z" fill="#3E529D"/>
<path d="M50.4354 211.803C50.3496 210.728 50.2754 209.651 50.2128 208.573L68.481 199.654L72.1027 201.224L50.4354 211.803Z" fill="#3E529D"/>
<path d="M58.9523 251.045L60.064 250.502L63.6857 252.072L60.0068 253.868C59.6459 252.931 59.2944 251.99 58.9523 251.045Z" fill="#3E529D"/>
<path d="M61.9823 258.746C61.5901 257.824 61.207 256.898 60.8332 255.969L66.4019 253.25L70.0236 254.82L61.9823 258.746Z" fill="#3E529D"/>
<path d="M71.5308 277.454C71.0135 276.594 70.5049 275.729 70.0052 274.86L91.7535 264.242L92.1546 264.415C92.2895 265.34 92.4328 266.26 92.5845 267.174L71.5308 277.454Z" fill="#3E529D"/>
<path d="M74.3316 281.928C73.7826 281.085 73.2422 280.235 72.7106 279.381L92.9869 269.482C93.1742 270.505 93.3722 271.521 93.5808 272.53L74.3316 281.928Z" fill="#3E529D"/>
<path d="M77.3012 286.321C76.7199 285.493 76.1473 284.66 75.5835 283.821L94.0694 274.796C94.2954 275.8 94.5321 276.798 94.7794 277.787L77.3012 286.321Z" fill="#3E529D"/>
<path d="M80.4422 290.63C79.8282 289.818 79.2228 289.001 78.6261 288.178L95.3561 280.01C95.6216 280.996 95.8979 281.974 96.185 282.943L80.4422 290.63Z" fill="#3E529D"/>
<path d="M83.7583 294.853C83.1108 294.058 82.4719 293.257 81.8417 292.45L96.8522 285.121C97.1585 286.088 97.4757 287.046 97.8037 287.995L83.7583 294.853Z" fill="#3E529D"/>
<path d="M87.2538 298.989C86.5719 298.211 85.8987 297.427 85.2341 296.636L98.5646 290.128C98.9131 291.074 99.2728 292.012 99.6435 292.939L87.2538 298.989Z" fill="#3E529D"/>
<path d="M90.9341 303.034C90.2168 302.274 89.5081 301.507 88.8081 300.734L100.502 295.024C100.895 295.95 101.299 296.866 101.714 297.771L90.9341 303.034Z" fill="#3E529D"/>
<path d="M94.8053 306.986C94.0513 306.245 93.306 305.495 92.5694 304.739L102.675 299.806C103.114 300.709 103.565 301.602 104.027 302.484L94.8053 306.986Z" fill="#3E529D"/>
<path d="M98.8751 310.842C98.0829 310.119 97.2994 309.389 96.5247 308.651L105.097 304.465C105.585 305.346 106.086 306.214 106.598 307.071L98.8751 310.842Z" fill="#3E529D"/>
<path d="M103.152 314.596C102.32 313.893 101.497 313.182 100.682 312.463L107.783 308.996C108.325 309.851 108.879 310.694 109.445 311.523L103.152 314.596Z" fill="#3E529D"/>
<path d="M107.646 318.244C106.772 317.562 105.907 316.871 105.051 316.172L110.755 313.387C111.354 314.216 111.966 315.03 112.591 315.83L107.646 318.244Z" fill="#3E529D"/>
<path d="M112.37 321.78C111.452 321.12 110.542 320.451 109.642 319.773L114.037 317.627C114.699 318.426 115.374 319.209 116.063 319.977L112.37 321.78Z" fill="#3E529D"/>
<path d="M117.337 325.197C116.372 324.561 115.415 323.915 114.468 323.259L117.66 321.701C118.392 322.467 119.138 323.216 119.898 323.947L117.337 325.197Z" fill="#3E529D"/>
<path d="M122.565 328.487C121.549 327.876 120.542 327.255 119.545 326.623L121.663 325.589C122.474 326.318 123.299 327.028 124.14 327.718L122.565 328.487Z" fill="#3E529D"/>
<path d="M128.073 331.64C127.002 331.057 125.941 330.462 124.89 329.856L126.097 329.266C126.999 329.953 127.917 330.618 128.85 331.26L128.073 331.64Z" fill="#3E529D"/>
<path d="M133.884 334.645C132.754 334.092 131.634 333.525 130.524 332.947L131.031 332.7C132.039 333.337 133.065 333.95 134.109 334.535L133.884 334.645Z" fill="#3E529D"/>
<path d="M153.469 342.61C152.127 342.171 150.789 341.712 149.453 341.232L149.991 340.97C151.534 341.378 153.09 341.731 154.657 342.03L153.469 342.61Z" fill="#3E529D"/>
<path d="M160.887 344.831C159.45 344.441 158.015 344.028 156.583 343.593L158.506 342.654C160.408 342.909 162.324 343.086 164.251 343.188L160.887 344.831Z" fill="#3E529D"/>
<path d="M168.887 346.767C167.335 346.436 165.785 346.08 164.238 345.698L169.18 343.285C171.783 343.252 174.402 343.085 177.034 342.789L168.887 346.767Z" fill="#3E529D"/>
<path d="M177.601 348.355C175.908 348.098 174.215 347.812 172.524 347.495L184.629 341.585C191.149 340.254 197.708 338.16 204.226 335.356L177.601 348.355Z" fill="#3E529D"/>
<path d="M187.23 349.496C185.354 349.335 183.477 349.139 181.6 348.906L231.188 324.696L234.809 326.266L187.23 349.496Z" fill="#3E529D"/>
<path d="M198.109 350.027C195.98 350.001 193.847 349.929 191.713 349.811L237.526 327.444L241.147 329.014L198.109 350.027Z" fill="#3E529D"/>
<path d="M210.877 349.635C208.357 349.821 205.828 349.942 203.293 350L243.863 330.192L247.485 331.762L210.877 349.635Z" fill="#3E529D"/>
<path d="M227.133 347.541C223.859 348.146 220.562 348.643 217.245 349.03L250.201 332.939L253.823 334.51L227.133 347.541Z" fill="#3E529D"/>
<path d="M257.717 338.451C250.798 341.334 243.667 343.701 236.385 345.528L256.539 335.687L260.161 337.258L257.717 338.451Z" fill="#3E529D"/>
<path d="M273.797 330.6L264.891 334.948L261.269 333.378L292.463 318.148C286.543 322.773 280.3 326.932 273.797 330.6Z" fill="#3E529D"/>
<path d="M306.948 305.234C304.609 307.61 302.197 309.9 299.719 312.102L258.553 332.201L254.931 330.63L306.948 305.234Z" fill="#3E529D"/>
<path d="M323.203 285.613C321.986 287.368 320.736 289.091 319.453 290.782L304.997 297.84L301.376 296.27L323.203 285.613Z" fill="#3E529D"/>
<path d="M328.694 277.09C327.724 278.713 326.727 280.313 325.704 281.888L298.659 295.092L295.038 293.522L328.694 277.09Z" fill="#3E529D"/>
<path d="M333.16 269.067C332.368 270.597 331.554 272.107 330.716 273.599L292.321 292.344L288.7 290.774L333.16 269.067Z" fill="#3E529D"/>
<path d="M335.57 262.048L336.401 262.408C335.888 263.532 335.362 264.646 334.825 265.75L285.983 289.596L282.362 288.026L335.57 262.048Z" fill="#3E529D"/>
<path d="M338.23 258.246L337.583 258.561L334.543 257.243L334.33 256.811L339.912 254.086C339.373 255.476 338.813 256.863 338.23 258.246Z" fill="#3E529D"/>
<path d="M330.54 262H323.702L276.024 285.278L279.646 286.848L330.54 262Z" fill="#3E529D"/>
<path d="M318.598 261.988L317.28 259.293L269.686 282.53L273.308 284.101L318.598 261.988Z" fill="#3E529D"/>
<path d="M268.771 280.473L316.292 257.272L314.974 254.577L272.289 275.417C271.135 277.13 269.962 278.815 268.771 280.473Z" fill="#3E529D"/>
<path d="M313.041 252.28H307.712L298.117 256.965L296.015 261.329L313.84 252.627L313.041 252.28Z" fill="#3E529D"/>
<path d="M311.053 209.753L312.383 212.442L328.595 204.527L324.973 202.956L311.053 209.753Z" fill="#3E529D"/>
<path d="M313.381 214.458L314.711 217.148L334.933 207.275L331.311 205.704L313.381 214.458Z" fill="#3E529D"/>
<path d="M337.649 208.452L315.709 219.164L317.039 221.853L341.271 210.022L337.649 208.452Z" fill="#3E529D"/>
<path d="M343.987 211.2L318.036 223.87L319.366 226.559L347.609 212.77L343.987 211.2Z" fill="#3E529D"/>
<path d="M349.345 214.426L320.364 228.576L321.694 231.265L348.962 217.952C349.104 216.777 349.232 215.602 349.345 214.426Z" fill="#3E529D"/>
<path d="M348.614 220.626L322.692 233.282L324.022 235.971L348.066 224.232C348.264 223.03 348.446 221.828 348.614 220.626Z" fill="#3E529D"/>
<path d="M347.59 226.968L325.019 237.988L326.349 240.677L346.863 230.661C347.121 229.431 347.364 228.2 347.59 226.968Z" fill="#3E529D"/>
<path d="M346.246 233.466L327.347 242.694L328.677 245.383L345.322 237.256C345.648 235.994 345.955 234.731 346.246 233.466Z" fill="#3E529D"/>
<path d="M344.549 240.137L329.674 247.4L331.005 250.089L343.405 244.034C343.805 242.737 344.186 241.438 344.549 240.137Z" fill="#3E529D"/>
<path d="M342.456 247.002L332.002 252.105L333.332 254.795L341.061 251.021C341.546 249.684 342.011 248.344 342.456 247.002Z" fill="#3E529D"/>
<path d="M308.726 205.047L310.056 207.736L322.257 201.779L318.636 200.208L308.726 205.047Z" fill="#3E529D"/>
<path d="M302.462 211.444L304.646 207.038L302.806 207.937C302.468 209.22 302.117 210.504 301.753 211.79L302.462 211.444Z" fill="#3E529D"/>
<path d="M307.182 201.926L307.728 203.03L315.919 199.031L312.298 197.461L304.443 201.296C304.154 202.554 303.853 203.814 303.539 205.075L306.285 203.735L307.182 201.926Z" fill="#3E529D"/>
<path d="M282.675 262H280.629C280.363 262.465 280.096 262.929 279.827 263.391L282.675 262Z" fill="#3E529D"/>
<path d="M300.372 252.28L299.693 253.692L302.584 252.28H300.372Z" fill="#3E529D"/>
<path d="M277.729 266.919L287.804 262H294.642L274.722 271.725C275.741 270.144 276.743 268.542 277.729 266.919Z" fill="#3E529D"/>
<path d="M350.02 202.412C350.002 203.539 349.972 204.667 349.928 205.796L346.001 207.713L342.379 206.143L350.02 202.412Z" fill="#3E529D"/>
<path d="M349.997 196.581C350.023 197.686 350.037 198.792 350.038 199.9L339.663 204.965L336.041 203.395L349.997 196.581Z" fill="#3E529D"/>
<path d="M349.753 190.858C349.82 191.942 349.876 193.028 349.919 194.115L333.325 202.217L329.703 200.647L349.753 190.858Z" fill="#3E529D"/>
<path d="M349.299 185.237C349.406 186.302 349.5 187.369 349.584 188.437L326.987 199.47L323.365 197.899L349.299 185.237Z" fill="#3E529D"/>
<path d="M348.644 179.715C348.788 180.761 348.921 181.809 349.043 182.859L320.649 196.722L317.027 195.151L348.644 179.715Z" fill="#3E529D"/>
<path d="M341.877 151.304L341.742 151.37L338.12 149.799L340.867 148.458C341.213 149.403 341.55 150.352 341.877 151.304Z" fill="#3E529D"/>
<path d="M338.97 143.542C339.347 144.471 339.716 145.405 340.074 146.341L335.404 148.622L331.782 147.051L338.97 143.542Z" fill="#3E529D"/>
<path d="M336.907 138.707C337.316 139.621 337.716 140.538 338.106 141.46L329.066 145.874L325.444 144.303L336.907 138.707Z" fill="#3E529D"/>
<path d="M334.68 133.952C335.12 134.85 335.551 135.753 335.973 136.659L322.728 143.126L319.106 141.556L334.68 133.952Z" fill="#3E529D"/>
<path d="M332.288 129.277C332.759 130.16 333.222 131.047 333.675 131.939L316.39 140.378L312.768 138.808L332.288 129.277Z" fill="#3E529D"/>
<path d="M329.732 124.683C330.235 125.55 330.728 126.422 331.213 127.299L310.052 137.63L308.01 136.745C307.948 136.29 307.883 135.836 307.816 135.383L329.732 124.683Z" fill="#3E529D"/>
<path d="M327.01 120.17C327.544 121.021 328.069 121.878 328.586 122.739L307.454 133.056C307.285 132.024 307.105 130.999 306.914 129.981L327.01 120.17Z" fill="#3E529D"/>
<path d="M324.12 115.738C324.686 116.574 325.244 117.415 325.792 118.261L306.466 127.696C306.259 126.683 306.04 125.676 305.811 124.677L324.12 115.738Z" fill="#3E529D"/>
<path d="M321.06 111.39C321.659 112.209 322.249 113.034 322.83 113.865L305.276 122.435C305.03 121.44 304.772 120.453 304.504 119.473L321.06 111.39Z" fill="#3E529D"/>
<path d="M317.827 107.126C318.459 107.929 319.082 108.738 319.696 109.552L303.88 117.274C303.593 116.298 303.295 115.331 302.987 114.372L317.827 107.126Z" fill="#3E529D"/>
<path d="M314.417 102.949C315.083 103.735 315.74 104.527 316.388 105.325L302.27 112.218C301.942 111.262 301.603 110.314 301.252 109.376L314.417 102.949Z" fill="#3E529D"/>
<path d="M310.825 98.8605C311.525 99.629 312.217 100.404 312.9 101.186L300.44 107.269C300.069 106.333 299.686 105.407 299.292 104.491L310.825 98.8605Z" fill="#3E529D"/>
<path d="M307.044 94.864C307.781 95.6144 308.509 96.3719 309.228 97.1363L298.38 102.433C297.963 101.518 297.535 100.615 297.095 99.7217L307.044 94.864Z" fill="#3E529D"/>
<path d="M303.069 90.9625C303.843 91.6942 304.608 92.4334 305.365 93.18L296.077 97.7145C295.612 96.8229 295.136 95.9427 294.647 95.0743L303.069 90.9625Z" fill="#3E529D"/>
<path d="M298.891 87.16C299.704 87.8722 300.508 88.5925 301.304 89.3205L293.518 93.1219C293.002 92.2545 292.473 91.3995 291.933 90.5572L298.891 87.16Z" fill="#3E529D"/>
<path d="M294.5 83.4613C295.355 84.1531 296.2 84.8533 297.036 85.5619L290.683 88.6636C290.112 87.8222 289.528 86.9943 288.931 86.1804L294.5 83.4613Z" fill="#3E529D"/>
<path d="M289.886 79.8717C290.784 80.5419 291.672 81.2211 292.551 81.9092L287.551 84.3506C286.919 83.5374 286.275 82.7392 285.617 81.9563L289.886 79.8717Z" fill="#3E529D"/>
<path d="M285.036 76.3977C285.979 77.0449 286.913 77.7019 287.838 78.3683L284.093 80.1965C283.395 79.4144 282.683 78.6489 281.958 77.9004L285.036 76.3977Z" fill="#3E529D"/>
<path d="M279.933 73.0466C280.925 73.6694 281.908 74.3026 282.881 74.946L280.275 76.2183C279.503 75.471 278.716 74.7422 277.914 74.0324L279.933 73.0466Z" fill="#3E529D"/>
<path d="M274.56 69.8275C275.605 70.424 276.64 71.0317 277.665 71.6503L276.051 72.4383C275.194 71.7303 274.321 71.0434 273.433 70.3779L274.56 69.8275Z" fill="#3E529D"/>
<path d="M268.896 66.7509C269.997 67.3189 271.088 67.8989 272.17 68.4909L271.362 68.8851C270.407 68.2228 269.435 67.5846 268.445 66.971L268.896 66.7509Z" fill="#3E529D"/>
<path d="M262.913 63.8296C264.076 64.3664 265.229 64.9163 266.372 65.4791L266.13 65.5976C265.057 64.9895 263.965 64.4095 262.855 63.8582L262.913 63.8296Z" fill="#3E529D"/>
<path d="M249.855 58.5203C251.156 58.9802 252.454 59.4592 253.75 59.9574L253.533 60.0629C252.109 59.6028 250.673 59.1911 249.227 58.8271L249.855 58.5203Z" fill="#3E529D"/>
<path d="M242.677 56.1828C244.066 56.5971 245.454 57.0326 246.838 57.4894L245.711 58.0399C244.001 57.7037 242.278 57.4321 240.544 57.224L242.677 56.1828Z" fill="#3E529D"/>
<path d="M234.965 54.1058C236.459 54.4658 237.952 54.8499 239.442 55.258L236.209 56.8366C234.01 56.7064 231.796 56.6749 229.57 56.7398L234.965 54.1058Z" fill="#3E529D"/>
<path d="M226.607 52.3438C228.23 52.6376 229.851 52.9589 231.47 53.3081L223.626 57.138C220.174 57.498 216.701 58.0814 213.219 58.8804L226.607 52.3438Z" fill="#3E529D"/>
<path d="M217.441 50.9769C219.224 51.1863 221.008 51.4285 222.79 51.7036L199.044 63.2972C193.478 65.4847 187.932 68.1951 182.456 71.3959L170.618 77.1758L166.996 75.6056L217.441 50.9769Z" fill="#3E529D"/>
<path d="M207.205 50.1319C209.204 50.2276 211.204 50.3638 213.205 50.5409L164.28 74.4279L160.659 72.8577L207.205 50.1319Z" fill="#3E529D"/>
<path d="M195.441 50.0332C197.752 49.9614 200.069 49.9432 202.39 49.9792L157.942 71.68L154.321 70.1097L195.441 50.0332Z" fill="#3E529D"/>
<path d="M181.16 51.1638C184.001 50.8013 186.857 50.5198 189.724 50.3206L151.604 68.9321L147.983 67.3618L181.16 51.1638Z" fill="#3E529D"/>
<path d="M161.054 55.1376C165.217 54.0156 169.431 53.0713 173.685 52.3092L145.266 66.1842L141.645 64.6139L161.054 55.1376Z" fill="#3E529D"/>
<path d="M145.267 60.3418C142.964 61.2444 140.683 62.2037 138.427 63.2186L138.929 63.4362L145.267 60.3418Z" fill="#3E529D"/>
<path d="M134.199 65.7454L133.608 65.4892C130.146 67.1959 126.747 69.0366 123.421 71.0078L134.199 65.7454Z" fill="#3E529D"/>
<path d="M149.591 72.4189L95.2003 98.9743L98.822 100.545L153.213 73.9892L149.591 72.4189Z" fill="#3E529D"/>
<path d="M155.929 75.1668L101.538 101.722L105.16 103.292L159.551 76.7371L155.929 75.1668Z" fill="#3E529D"/>
<path d="M162.267 77.9147L107.876 104.47L111.498 106.04L165.889 79.485L162.267 77.9147Z" fill="#3E529D"/>
<path d="M168.586 80.6719L114.214 107.218L117.836 108.788L158.59 88.8905C161.867 85.9694 165.203 83.227 168.586 80.6719Z" fill="#3E529D"/>
<path d="M166.091 87.7323L174.943 83.4106L178.564 84.9808L157.634 95.1997C160.409 92.5742 163.231 90.0833 166.091 87.7323Z" fill="#3E529D"/>
<path d="M152.959 94.1435L120.552 109.966L124.174 111.536L146.743 100.517C148.784 98.3193 150.857 96.194 152.959 94.1435Z" fill="#3E529D"/>
<path d="M142.73 104.98L126.89 112.714L130.512 114.284L137.998 110.629C139.552 108.701 141.13 106.818 142.73 104.98Z" fill="#3E529D"/>
<path d="M134.813 114.688L133.228 115.462L133.979 115.787C134.256 115.419 134.534 115.053 134.813 114.688Z" fill="#3E529D"/>
<path d="M125.782 116.593L122.16 115.023L67.7695 141.579L71.3912 143.149L125.782 116.593Z" fill="#3E529D"/>
<path d="M139.566 118.21L143.187 119.78L197.578 93.2246L193.956 91.6543L139.566 118.21Z" fill="#3E529D"/>
<path d="M198.686 89.3451L202.308 90.9154L211.965 86.2005C214.084 83.9211 216.189 81.7792 218.274 79.7817L198.686 89.3451Z" fill="#3E529D"/>
<path d="M224.382 74.2956L195.97 88.1675L192.348 86.5972L243.38 61.6815C244.008 61.789 244.633 61.9056 245.256 62.0312C238.848 63.8988 231.789 68.0986 224.382 74.2956Z" fill="#3E529D"/>
<path d="M239.397 61.1225C237.404 60.9036 235.393 60.7725 233.368 60.7278L186.01 83.8493L189.632 85.4196L239.397 61.1225Z" fill="#3E529D"/>
<path d="M184.902 87.7287L146.919 106.273C148.785 104.171 150.681 102.133 152.602 100.16L181.281 86.1585L184.902 87.7287Z" fill="#3E529D"/>
<path d="M187.618 88.9064L143.202 110.592C141.707 112.383 140.233 114.215 138.782 116.088L191.24 90.4766L187.618 88.9064Z" fill="#3E529D"/>
<path d="M183.294 82.6716L179.672 81.1014L219.295 61.756C222.244 61.2702 225.176 60.9519 228.081 60.8048L183.294 82.6716Z" fill="#3E529D"/>
<path d="M209.84 63.8687L176.956 79.9237L176.66 79.7954C177.6 79.1545 178.542 78.5286 179.487 77.918C189.498 71.4493 199.721 66.7154 209.84 63.8687Z" fill="#3E529D"/>
<path d="M233.584 72.3067C230.202 74.6202 226.676 77.4569 223.044 80.7914L255.07 65.155C252.769 64.7542 250.17 64.8865 247.269 65.6252L233.584 72.3067Z" fill="#3E529D"/>
<path d="M256.524 61.1067C257.269 61.3863 258.01 61.6796 258.748 61.9868L258.75 61.983C258.028 61.6756 257.305 61.3743 256.581 61.079L256.524 61.1067Z" fill="#3E529D"/>
<path d="M217.842 85.8347L256.616 66.904L254.78 71.1389L212.139 91.9576C212.337 91.7347 212.535 91.5129 212.733 91.2923C214.451 89.375 216.156 87.5551 217.842 85.8347Z" fill="#3E529D"/>
<path d="M207.949 90.6648L205.024 92.0931L206.26 92.629C206.824 91.9651 207.387 91.3103 207.949 90.6648Z" fill="#3E529D"/>
<path d="M200.294 94.4022L145.904 120.958L149.525 122.528L203.191 96.3266C203.325 96.1614 203.459 95.9967 203.593 95.8325L200.294 94.4022Z" fill="#3E529D"/>
<path d="M199.947 100.414L152.242 123.706L155.863 125.276L195.95 105.704C197.282 103.894 198.615 102.13 199.947 100.414Z" fill="#3E529D"/>
<path d="M193.153 109.573L158.579 126.453L162.201 128.024L189.644 114.625C190.812 112.907 191.982 111.223 193.153 109.573Z" fill="#3E529D"/>
<path d="M197.038 111.015C198.31 109.238 199.583 107.503 200.855 105.813L212.97 99.8981L216.592 101.468L197.038 111.015Z" fill="#3E529D"/>
<path d="M187.154 118.345L164.917 129.201L168.539 130.772L183.998 123.224C185.047 121.571 186.1 119.944 187.154 118.345Z" fill="#3E529D"/>
<path d="M190.976 119.817C192.1 118.122 193.226 116.459 194.354 114.829L219.308 102.646L222.93 104.216L190.976 119.817Z" fill="#3E529D"/>
<path d="M181.74 126.83L171.255 131.949L174.877 133.52L178.859 131.575C179.816 129.972 180.777 128.39 181.74 126.83Z" fill="#3E529D"/>
<path d="M185.521 128.323C186.535 126.688 187.553 125.078 188.573 123.494L225.646 105.394L229.268 106.964L185.521 128.323Z" fill="#3E529D"/>
<path d="M243.051 108.581L246.673 110.151L271.176 98.1878C271.131 97.0807 271.071 95.9971 270.995 94.9375L243.051 108.581Z" fill="#3E529D"/>
<path d="M270.791 92.5331L244.244 105.494L246.08 101.259L270.421 89.3755C270.562 90.4001 270.685 91.4529 270.791 92.5331Z" fill="#3E529D"/>
<path d="M274.857 93.052C274.95 94.1058 275.027 95.1811 275.088 96.2774L287.05 90.4375C286.471 89.5984 285.879 88.7743 285.275 87.9656L274.857 93.052Z" fill="#3E529D"/>
<path d="M283.873 86.1463L274.615 90.6662C274.492 89.5974 274.352 88.5528 274.194 87.5333L281.903 83.7693C282.573 84.5448 283.23 85.3373 283.873 86.1463Z" fill="#3E529D"/>
<path d="M280.348 82.0251C279.633 81.2493 278.905 80.4921 278.162 79.7539L273.154 82.1989C273.388 83.1776 273.603 84.1858 273.799 85.2226L280.348 82.0251Z" fill="#3E529D"/>
<path d="M270.062 87.0467C269.883 85.9981 269.684 84.9822 269.465 84L249.294 93.8483L247.458 98.0832L270.062 87.0467Z" fill="#3E529D"/>
<path d="M241.927 100.783L243.763 96.5484L230.376 103.085L233.997 104.655L241.927 100.783Z" fill="#3E529D"/>
<path d="M231.984 108.142L235.606 109.712L181.215 136.267L180.83 136.101C181.662 134.682 182.496 133.28 183.334 131.895L231.984 108.142Z" fill="#3E529D"/>
<path d="M236.713 105.833L240.55 103.96L239.259 106.936L236.713 105.833Z" fill="#3E529D"/>
<path d="M227.659 101.907L245.14 93.3723L246.976 89.1373L224.038 100.337L227.659 101.907Z" fill="#3E529D"/>
<path d="M221.321 99.1591L248.354 85.9611L250.19 81.7262L217.7 97.5889L221.321 99.1591Z" fill="#3E529D"/>
<path d="M214.984 96.4112L251.567 78.5501L253.403 74.3151L211.362 94.841L214.984 96.4112Z" fill="#3E529D"/>
<path d="M258.933 71.615L257.097 75.8499L264.83 72.0745C264.242 71.1746 263.62 70.3656 262.969 69.6445L258.933 71.615Z" fill="#3E529D"/>
<path d="M261.236 67.987C261.056 67.8398 260.874 67.6983 260.69 67.5623L260.31 68.4388L261.236 67.987Z" fill="#3E529D"/>
<path d="M265.974 74.0197L255.72 79.026L253.884 83.261L267.242 76.739C266.844 75.7685 266.421 74.8626 265.974 74.0197Z" fill="#3E529D"/>
<path d="M268.035 78.8559L252.507 86.4372L250.671 90.6721L268.917 81.7637C268.643 80.7443 268.349 79.7754 268.035 78.8559Z" fill="#3E529D"/>
<path d="M272.573 79.9785C272.29 78.9803 271.983 78.0167 271.654 77.0888L274.001 75.9428C274.827 76.6387 275.638 77.3559 276.433 78.0939L272.573 79.9785Z" fill="#3E529D"/>
<path d="M272.075 74.3795L270.842 74.9816C270.505 74.1764 270.148 73.4024 269.772 72.6605C270.552 73.2161 271.319 73.7892 272.075 74.3795Z" fill="#3E529D"/>
<path d="M288.313 92.3244L275.198 98.7276C275.235 99.8109 275.257 100.913 275.265 102.033L289.912 94.8825C289.391 94.016 288.858 93.1632 288.313 92.3244Z" fill="#3E529D"/>
<path d="M291.048 96.8315L275.259 104.54C275.246 105.65 275.219 106.776 275.179 107.918L292.484 99.469C292.017 98.5772 291.539 97.6979 291.048 96.8315Z" fill="#3E529D"/>
<path d="M293.503 101.475L275.068 110.476C275.01 111.608 274.939 112.756 274.856 113.918L294.787 104.187C294.371 103.271 293.942 102.367 293.503 101.475Z" fill="#3E529D"/>
<path d="M295.696 106.247L274.65 116.522C274.55 117.677 274.438 118.844 274.315 120.024L296.838 109.028C296.468 108.09 296.088 107.163 295.696 106.247Z" fill="#3E529D"/>
<path d="M297.643 111.139L274.741 122.32L278.363 123.89L298.65 113.986C298.325 113.027 297.99 112.077 297.643 111.139Z" fill="#3E529D"/>
<path d="M299.356 116.145L281.079 125.068L284.701 126.638L300.234 119.055C299.952 118.075 299.659 117.105 299.356 116.145Z" fill="#3E529D"/>
<path d="M300.845 121.26L287.417 127.816L291.038 129.386L301.598 124.231C301.358 123.232 301.107 122.241 300.845 121.26Z" fill="#3E529D"/>
<path d="M302.118 126.481L293.755 130.564L297.376 132.134L302.751 129.51C302.551 128.492 302.34 127.482 302.118 126.481Z" fill="#3E529D"/>
<path d="M303.181 131.804L300.093 133.312L303.694 134.873C303.534 133.843 303.363 132.82 303.181 131.804Z" fill="#3E529D"/>
<path d="M206.096 205.912L199.259 209.25L201.095 205.015L202.474 204.342L206.096 205.912Z" fill="#3E529D"/>
<path d="M265.216 177.047L261.268 178.975C261.609 177.904 261.944 176.836 262.273 175.771L265.216 177.047Z" fill="#3E529D"/>
<path d="M309.456 157.952C309.459 159.064 309.452 160.18 309.433 161.301L330.674 150.931L327.053 149.361L309.456 157.952Z" fill="#3E529D"/>
<path d="M324.336 148.183L309.431 155.46C309.411 154.357 309.381 153.259 309.341 152.166L320.715 146.613L324.336 148.183Z" fill="#3E529D"/>
<path d="M317.998 145.435L314.377 143.865L309.029 146.476C309.107 147.55 309.174 148.63 309.231 149.716L317.998 145.435Z" fill="#3E529D"/>
<path d="M308.835 144.067L311.661 142.687L308.571 141.347C308.667 142.25 308.755 143.156 308.835 144.067Z" fill="#3E529D"/>
<path d="M200.155 197.128L201.991 192.893L194.528 196.537L198.149 198.107L200.155 197.128Z" fill="#3E529D"/>
<path d="M333.391 152.108L337.012 153.679L309.235 167.24C309.292 166.101 309.338 164.966 309.373 163.835L333.391 152.108Z" fill="#3E529D"/>
<path d="M115.497 270.176L127.932 264.105C127.717 265.327 127.513 266.54 127.32 267.742L119.119 271.746L115.497 270.176Z" fill="#3E529D"/>
<path d="M108.051 271.308L104.429 269.737L97.7667 272.99C97.9857 273.999 98.2155 275 98.4561 275.992L108.051 271.308Z" fill="#3E529D"/>
<path d="M99.0185 278.221L110.767 272.485L114.389 274.056L99.83 281.164C99.5486 280.192 99.2781 279.211 99.0185 278.221Z" fill="#3E529D"/>
<path d="M100.486 283.348C100.787 284.317 101.1 285.278 101.424 286.228L120.727 276.804L117.105 275.233L100.486 283.348Z" fill="#3E529D"/>
<path d="M121.835 272.924L125.457 274.494L126.393 274.037C126.551 272.853 126.72 271.657 126.9 270.451L121.835 272.924Z" fill="#3E529D"/>
<path d="M123.443 277.981L102.176 288.365C102.521 289.314 102.878 290.253 103.245 291.181L125.658 280.238C125.701 279.827 125.745 279.413 125.79 278.999L123.443 277.981Z" fill="#3E529D"/>
<path d="M129.621 280.807L129.781 280.729L133.403 282.299L129.295 284.305C129.314 284.07 129.335 283.834 129.355 283.598C129.436 282.676 129.524 281.746 129.621 280.807Z" fill="#3E529D"/>
<path d="M125.404 282.866L104.099 293.268C104.49 294.195 104.893 295.112 105.307 296.017L125.126 286.34C125.207 285.196 125.299 284.038 125.404 282.866Z" fill="#3E529D"/>
<path d="M124.964 288.923L106.267 298.052C106.706 298.956 107.158 299.849 107.621 300.729L124.813 292.336C124.85 291.214 124.901 290.076 124.964 288.923Z" fill="#3E529D"/>
<path d="M124.75 294.87L108.694 302.709C109.186 303.589 109.69 304.456 110.205 305.31L124.737 298.215C124.727 297.117 124.732 296.002 124.75 294.87Z" fill="#3E529D"/>
<path d="M128.735 296.263C128.741 295.16 128.762 294.037 128.797 292.894L142.457 286.225L146.079 287.795L128.735 296.263Z" fill="#3E529D"/>
<path d="M124.784 300.696L111.4 307.23C111.948 308.084 112.508 308.924 113.08 309.748L124.926 303.965C124.863 302.895 124.816 301.805 124.784 300.696Z" fill="#3E529D"/>
<path d="M128.835 302.056C128.789 300.981 128.759 299.882 128.744 298.762L148.795 288.973L152.416 290.543L128.835 302.056Z" fill="#3E529D"/>
<path d="M125.096 306.386L114.407 311.604C115.015 312.43 115.637 313.239 116.271 314.033L125.413 309.569C125.291 308.531 125.185 307.47 125.096 306.386Z" fill="#3E529D"/>
<path d="M129.233 307.704C129.127 306.661 129.039 305.591 128.966 304.496L155.133 291.721L158.508 293.184L158.383 293.472L129.233 307.704Z" fill="#3E529D"/>
<path d="M125.724 311.921L117.744 315.818C118.419 316.611 119.109 317.388 119.812 318.146L126.245 315.005C126.053 314.004 125.879 312.976 125.724 311.921Z" fill="#3E529D"/>
<path d="M129.978 313.183C129.802 312.177 129.645 311.141 129.506 310.075L157.006 296.648L155.17 300.883L129.978 313.183Z" fill="#3E529D"/>
<path d="M126.723 317.276L121.446 319.852C122.198 320.611 122.964 321.35 123.744 322.069L127.49 320.24C127.213 319.284 126.958 318.295 126.723 317.276Z" fill="#3E529D"/>
<path d="M131.143 318.456C131.106 318.319 131.069 318.181 131.032 318.042C130.813 317.212 130.609 316.355 130.42 315.471L153.793 304.059L151.957 308.294L131.143 318.456Z" fill="#3E529D"/>
<path d="M128.172 322.411L125.562 323.685C126.4 324.403 127.254 325.1 128.123 325.773L129.246 325.225C128.864 324.326 128.506 323.387 128.172 322.411Z" fill="#3E529D"/>
<path d="M132.844 323.468C132.474 322.581 132.124 321.639 131.797 320.641L150.58 311.47L148.744 315.705L132.844 323.468Z" fill="#3E529D"/>
<path d="M130.192 327.267L130.154 327.285L130.228 327.338L130.192 327.267Z" fill="#3E529D"/>
<path d="M133.785 325.513L147.367 318.882L145.531 323.117L135.296 328.114C134.765 327.32 134.261 326.454 133.785 325.513Z" fill="#3E529D"/>
<path d="M136.673 329.945C137.397 330.798 138.16 331.537 138.958 332.168L142.317 330.528L144.153 326.293L136.673 329.945Z" fill="#3E529D"/>
<path d="M149.684 323.592L147.848 327.827L187.466 308.484C188.049 307.833 188.632 307.171 189.216 306.498L186.822 305.46L149.684 323.592Z" fill="#3E529D"/>
<path d="M191.552 303.151L191.926 303.313C192.086 303.121 192.247 302.928 192.407 302.734L191.552 303.151Z" fill="#3E529D"/>
<path d="M195.745 298.6L188.836 301.973L185.214 300.403L199.835 293.265C198.471 295.094 197.107 296.873 195.745 298.6Z" fill="#3E529D"/>
<path d="M200.778 298.647C199.341 300.516 197.905 302.331 196.471 304.088L249.564 278.166L245.943 276.596L200.778 298.647Z" fill="#3E529D"/>
<path d="M243.226 275.418L203.761 294.686C205.001 293.008 206.24 291.29 207.478 289.533L239.605 273.848L243.226 275.418Z" fill="#3E529D"/>
<path d="M236.888 272.67L233.267 271.1L213.411 280.794C212.31 282.475 211.206 284.127 210.101 285.749L236.888 272.67Z" fill="#3E529D"/>
<path d="M202.686 289.369C203.876 287.713 205.065 286.019 206.253 284.289L178.876 297.655L182.498 299.226L202.686 289.369Z" fill="#3E529D"/>
<path d="M177.768 301.535L174.146 299.964L156.11 308.77L154.274 313.005L177.768 301.535Z" fill="#3E529D"/>
<path d="M152.897 316.181L151.061 320.416L184.106 304.283L180.484 302.712L152.897 316.181Z" fill="#3E529D"/>
<path d="M157.488 305.594L171.43 298.787L167.809 297.217L159.324 301.359L157.488 305.594Z" fill="#3E529D"/>
<path d="M160.701 298.183L165.092 296.039L162.178 294.775L160.701 298.183Z" fill="#3E529D"/>
<path d="M172.538 294.907L176.16 296.478L208.778 280.552C209.845 278.948 210.911 277.315 211.973 275.654L172.538 294.907Z" fill="#3E529D"/>
<path d="M214.256 272.035L169.822 293.73L166.2 292.16L217.165 267.276C216.199 268.885 215.229 270.472 214.256 272.035Z" fill="#3E529D"/>
<path d="M218.774 272.333C217.777 273.958 216.775 275.56 215.771 277.138L230.551 269.922L226.929 268.352L218.774 272.333Z" fill="#3E529D"/>
<path d="M224.213 267.174L220.93 268.777C221.407 267.98 221.883 267.178 222.358 266.37L224.213 267.174Z" fill="#3E529D"/>
<path d="M289.257 235.417L286.88 236.578L283.259 235.008L290.948 231.253C290.4 232.642 289.837 234.03 289.257 235.417Z" fill="#3E529D"/>
<path d="M217.875 264.426L214.253 262.856L165.75 286.537L163.914 290.772L217.875 264.426Z" fill="#3E529D"/>
<path d="M167.127 283.361L211.537 261.678L207.915 260.108L168.963 279.126L167.127 283.361Z" fill="#3E529D"/>
<path d="M163.433 281.826L161.597 286.061L157.146 288.234L153.524 286.664L163.433 281.826Z" fill="#3E529D"/>
<path d="M166.646 274.415L164.81 278.65L150.808 285.486L147.186 283.916L166.646 274.415Z" fill="#3E529D"/>
<path d="M169.859 267.004L168.023 271.239L144.47 282.738L140.849 281.168L169.859 267.004Z" fill="#3E529D"/>
<path d="M305.828 194.777C305.586 196.011 305.332 197.248 305.066 198.487L309.581 196.283L305.96 194.713L305.828 194.777Z" fill="#3E529D"/>
<path d="M136.119 283.477L129.097 286.906C129.017 288.068 128.95 289.214 128.897 290.342L139.741 285.047L136.119 283.477Z" fill="#3E529D"/>
<path d="M159.862 289.412L160.22 289.237L160.099 289.514L159.862 289.412Z" fill="#3E529D"/>
<path d="M348.717 208.891L349.75 209.339C349.77 209.012 349.79 208.685 349.808 208.358L348.717 208.891Z" fill="#3E529D"/>
<path d="M268.578 286.41L265.4 285.032C264.172 286.644 262.928 288.229 261.668 289.784L268.578 286.41Z" fill="#3E529D"/>
<path d="M258.144 294.008L271.294 287.587L274.916 289.158L252.829 299.941C254.627 298.019 256.399 296.04 258.144 294.008Z" fill="#3E529D"/>
<path d="M252.686 294.169C254.352 292.304 255.995 290.389 257.612 288.425L210.566 311.395L214.187 312.965L252.686 294.169Z" fill="#3E529D"/>
<path d="M216.904 314.143L248.465 298.733C246.281 301.015 244.063 303.211 241.814 305.319L220.525 315.713L216.904 314.143Z" fill="#3E529D"/>
<path d="M209.458 315.274L205.836 313.704L155.743 338.161C157.488 338.484 159.249 338.738 161.024 338.921L209.458 315.274Z" fill="#3E529D"/>
<path d="M165.505 339.237L212.174 316.452L215.796 318.022L172.496 339.163C170.148 339.299 167.817 339.325 165.505 339.237Z" fill="#3E529D"/>
<path d="M178.958 338.511C183.081 337.923 187.241 337.005 191.417 335.767L222.133 320.77L218.512 319.2L178.958 338.511Z" fill="#3E529D"/>
<path d="M223.241 316.891L226.224 318.184C229.388 315.909 232.516 313.465 235.599 310.857L223.241 316.891Z" fill="#3E529D"/>
<path d="M248.218 304.696C245.777 307.122 243.297 309.446 240.782 311.665L281.254 291.906L277.632 290.335L248.218 304.696Z" fill="#3E529D"/>
<path d="M283.97 293.083L233.495 317.727C232.494 318.51 231.488 319.278 230.478 320.028L233.201 321.209L287.592 294.653L283.97 293.083Z" fill="#3E529D"/>
<path d="M290.308 295.831L235.917 322.387L239.539 323.957L293.93 297.401L290.308 295.831Z" fill="#3E529D"/>
<path d="M296.646 298.579L242.255 325.134L245.877 326.705L300.268 300.149L296.646 298.579Z" fill="#3E529D"/>
<path d="M302.984 301.327L306.606 302.897L252.215 329.453L248.593 327.882L302.984 301.327Z" fill="#3E529D"/>
<path d="M307.713 299.018L311.331 300.586C313.016 298.721 314.659 296.807 316.256 294.847L307.713 299.018Z" fill="#3E529D"/>
<path d="M228.471 323.518L226.697 322.749C222.616 325.587 218.477 328.154 214.304 330.435L228.471 323.518Z" fill="#3E529D"/>
<path d="M174.883 326.313L203.12 312.526L199.498 310.956L182.94 319.04C180.217 321.712 177.527 324.141 174.883 326.313Z" fill="#3E529D"/>
<path d="M168.99 325.851C166.227 327.912 163.55 329.641 160.98 331.027C157.154 333.088 153.71 334.315 150.639 334.811L168.99 325.851Z" fill="#3E529D"/>
<path d="M176.366 319.746L145.317 334.906C145.148 334.881 144.98 334.853 144.815 334.823L146.471 331.004L183.236 313.054C180.91 315.473 178.617 317.706 176.366 319.746Z" fill="#3E529D"/>
<path d="M187.606 314.258L196.782 309.778L193.16 308.208L192.926 308.322C191.145 310.394 189.371 312.374 187.606 314.258Z" fill="#3E529D"/>
<path d="M197.89 305.899L201.511 307.469L255.902 280.914L252.281 279.344L197.89 305.899Z" fill="#3E529D"/>
<path d="M257.01 277.034L260.632 278.605L267.589 275.208C268.715 273.58 269.824 271.925 270.916 270.245L257.01 277.034Z" fill="#3E529D"/>
<path d="M264.874 279.038L263.348 279.782L264.093 280.105C264.354 279.751 264.614 279.395 264.874 279.038Z" fill="#3E529D"/>
<path d="M258.618 282.092L204.228 308.647L207.849 310.217L260.905 284.314C261.143 284.008 261.381 283.7 261.618 283.392L258.618 282.092Z" fill="#3E529D"/>
<path d="M136.556 335.844C137.496 336.323 138.45 336.78 139.417 337.216L139.416 337.22C138.428 336.784 137.447 336.339 136.474 335.884L136.556 335.844Z" fill="#3E529D"/>
<path d="M97.2946 270.717L101.713 268.56L98.0915 266.99L96.7241 267.657C96.7716 267.93 96.82 268.201 96.869 268.473C97.0051 269.225 97.1469 269.973 97.2946 270.717Z" fill="#3E529D"/>
<path d="M96.9402 212.467L97.4543 212.216L97.0122 212.024L96.9859 212.186L96.9402 212.467Z" fill="#3E529D"/>
<path d="M271.519 138.916L286.309 131.695L282.687 130.125L272.179 135.255C271.97 136.466 271.75 137.686 271.519 138.916Z" fill="#3E529D"/>
<path d="M272.636 132.529L279.971 128.947L276.349 127.377L273.193 128.918C273.018 130.111 272.833 131.314 272.636 132.529Z" fill="#3E529D"/>
<path d="M273.571 126.23L273.633 126.2L273.578 126.176L273.571 126.23Z" fill="#3E529D"/>
<path d="M95.7098 198.045C95.4188 199.295 95.1402 200.544 94.8741 201.791L89.5082 204.411L85.8865 202.841L95.7098 198.045Z" fill="#3E529D"/>
<path d="M239.654 116.082L237.818 120.316L248.281 115.208L244.66 113.638L239.654 116.082Z" fill="#3E529D"/>
<path d="M241.943 112.46L241.338 112.197L241.031 112.905L241.943 112.46Z" fill="#3E529D"/>
<path d="M249.389 111.328L253.011 112.899L271.264 103.987C271.273 102.856 271.267 101.746 271.247 100.657L249.389 111.328Z" fill="#3E529D"/>
<path d="M271.22 106.512L255.727 114.076L259.349 115.647L271.091 109.914C271.148 108.761 271.191 107.627 271.22 106.512Z" fill="#3E529D"/>
<path d="M270.944 112.489L262.065 116.824L265.687 118.395L270.683 115.955C270.783 114.783 270.87 113.628 270.944 112.489Z" fill="#3E529D"/>
<path d="M270.442 118.577L268.403 119.572L270.255 120.375C270.32 119.772 270.382 119.173 270.442 118.577Z" fill="#3E529D"/>
<path d="M260.957 120.704L257.336 119.133L233.228 130.904L231.391 135.139L260.957 120.704Z" fill="#3E529D"/>
<path d="M236.441 123.493L234.605 127.728L254.619 117.956L250.998 116.386L236.441 123.493Z" fill="#3E529D"/>
<path d="M92.2244 205.589L94.2998 204.575C94.1826 205.164 94.0682 205.752 93.9566 206.34L92.2244 205.589Z" fill="#3E529D"/>
<path d="M53.089 192.981L50.1878 191.723C50.1375 192.635 50.0957 193.547 50.0622 194.458L53.089 192.981Z" fill="#3E529D"/>
<path d="M126.556 133.742L144.796 124.837L141.174 123.267L129.644 128.896C128.599 130.488 127.569 132.104 126.556 133.742Z" fill="#3E529D"/>
<path d="M132.151 125.168L138.458 122.089L135.302 120.721C134.238 122.181 133.187 123.663 132.151 125.168Z" fill="#3E529D"/>
<path d="M210.254 98.7204L203.935 101.805C205.095 100.328 206.254 98.8881 207.41 97.4872L210.254 98.7204Z" fill="#3E529D"/>
<path d="M146.777 340.035L146.538 340.152C145.388 339.712 144.241 339.257 143.096 338.787L143.111 338.754C144.324 339.217 145.546 339.644 146.777 340.035Z" fill="#3E529D"/>
<path d="M85.3271 139.6V150.544H99.1511L99.1511 190H111.391L111.391 150.544H125.215V139.6H85.3271Z" fill="#3E529D"/>
<path d="M164.206 139.6L130.726 139.6V190H164.206V179.992H142.462V168.472L162.766 168.472V158.608H142.462V149.608H164.206V139.6Z" fill="#3E529D"/>
<path d="M188.277 156.189V152.85L190.084 151.968H191.605C193.242 151.968 194.452 152.261 195.344 152.738L188.277 156.189Z" fill="#3E529D"/>
<path d="M188.277 158.692L197.044 154.412C197.307 154.96 197.453 155.646 197.453 156.52C197.453 156.912 197.422 157.27 197.361 157.596L190.241 161.072H188.277V158.692Z" fill="#3E529D"/>
<path fill-rule="evenodd" clip-rule="evenodd" d="M192.469 139.6H174.109V190H186.277V172.576H190.021L200.821 190H215.149L202.045 170.992C205.357 169.744 207.853 167.824 209.533 165.232C211.261 162.592 212.125 159.544 212.125 156.088C212.125 151.24 210.445 147.28 207.085 144.208C203.773 141.136 198.901 139.6 192.469 139.6ZM186.277 149.968H191.605C194.053 149.968 195.973 150.544 197.365 151.696C198.757 152.8 199.453 154.408 199.453 156.52C199.453 158.584 198.757 160.192 197.365 161.344C195.973 162.496 194.053 163.072 191.605 163.072H186.277V149.968Z" fill="#3E529D"/>
<path d="M238.222 151.968H237.949L234.894 153.459V156.798L242.507 153.081C241.583 152.404 240.221 151.968 238.222 151.968Z" fill="#3E529D"/>
<path d="M243.86 154.924L234.894 159.301V159.541L238.256 160.999L243.786 158.299C243.972 157.801 244.07 157.216 244.07 156.52C244.07 155.899 243.997 155.373 243.86 154.924Z" fill="#3E529D"/>
<path fill-rule="evenodd" clip-rule="evenodd" d="M239.086 139.6H220.726V190H232.894V172.576H236.638L247.438 190H261.766L248.662 170.992C251.974 169.744 254.47 167.824 256.15 165.232C257.878 162.592 258.742 159.544 258.742 156.088C258.742 151.24 257.062 147.28 253.702 144.208C250.39 141.136 245.518 139.6 239.086 139.6ZM232.894 149.968H238.222C240.67 149.968 242.59 150.544 243.982 151.696C245.374 152.8 246.07 154.408 246.07 156.52C246.07 158.584 245.374 160.192 243.982 161.344C242.59 162.496 240.67 163.072 238.222 163.072H232.894V149.968Z" fill="#3E529D"/>
<path d="M291.011 168.992L290.285 167.312L286.844 168.992H291.011Z" fill="#3E529D"/>
<path d="M287.11 166.358L289.39 165.245L288.5 163.186L287.11 166.358Z" fill="#3E529D"/>
<path fill-rule="evenodd" clip-rule="evenodd" d="M296.432 180.28L301.184 190H315.008L288.512 136.432L261.944 190H275.768L280.448 180.28H296.432ZM282.896 170.992L288.512 158.176L294.056 170.992H282.896Z" fill="#3E529D"/>
<path d="M83.5071 209.6H71.3391V243.44C71.3391 247.664 72.2271 251.168 74.0031 253.952C75.8271 256.688 78.2511 258.728 81.2751 260.072C84.3471 261.416 87.7791 262.088 91.5711 262.088C95.3631 262.088 98.7951 261.416 101.867 260.072C104.939 258.728 107.363 256.688 109.139 253.952C110.963 251.168 111.875 247.664 111.875 243.44V209.6H99.7071L99.7071 242.576C99.7071 245.12 99.0111 247.184 97.6191 248.768C96.2751 250.352 94.2591 251.144 91.5711 251.144C88.8831 251.144 86.8671 250.352 85.5231 248.768C84.1791 247.184 83.5071 245.12 83.5071 242.576V209.6Z" fill="#3E529D"/>
<path d="M117.143 209.6V220.544H130.967V260H143.207V220.544H157.031V209.6H117.143Z" fill="#3E529D"/>
<path d="M189.663 246.343C189.161 246.651 188.629 246.918 188.065 247.142L187.293 246.807L191.876 244.57C191.224 245.248 190.487 245.838 189.663 246.343Z" fill="#3E529D"/>
<path d="M195.267 237.072C195.091 238.464 194.75 239.739 194.252 240.906L184.577 245.63L183.659 245.232L185.029 242.07L195.267 237.072Z" fill="#3E529D"/>
<path d="M195.08 231.321C195.277 232.31 195.387 233.368 195.403 234.502L186.406 238.894L188.243 234.659L195.08 231.321Z" fill="#3E529D"/>
<path d="M193.896 227.862C194.102 228.266 194.288 228.686 194.454 229.123L189.62 231.483L191.456 227.248L193.078 226.456C193.372 226.891 193.642 227.354 193.888 227.846L193.892 227.854L193.896 227.862Z" fill="#3E529D"/>
<path d="M189.003 222.849C188.92 222.807 188.837 222.766 188.752 222.726L171.306 231.244C171.084 232.325 170.968 233.492 170.965 234.749L187.302 226.772L189.003 222.849Z" fill="#3E529D"/>
<path d="M172.471 227.868C172.404 227.999 172.339 228.132 172.277 228.266L185.565 221.778C184.83 221.666 184.05 221.608 183.221 221.608C180.705 221.608 178.574 222.18 176.762 223.267C174.931 224.365 173.505 225.885 172.471 227.868Z" fill="#3E529D"/>
<path d="M171.11 237.182C171.241 238.208 171.458 239.17 171.758 240.072L171.901 240.134L184.089 234.183L185.925 229.948L171.11 237.182Z" fill="#3E529D"/>
<path d="M180.876 241.594L178.239 242.882L174.617 241.312L182.712 237.359L180.876 241.594Z" fill="#3E529D"/>
<path fill-rule="evenodd" clip-rule="evenodd" d="M158.093 224.144C156.749 227.36 156.077 230.912 156.077 234.8C156.077 238.688 156.725 242.264 158.021 245.528C159.365 248.792 161.261 251.624 163.709 254.024C166.157 256.424 169.037 258.296 172.349 259.64C175.661 260.936 179.285 261.584 183.221 261.584C187.205 261.584 190.829 260.936 194.093 259.64C197.405 258.296 200.285 256.424 202.733 254.024C205.181 251.624 207.053 248.792 208.349 245.528C209.693 242.264 210.365 238.688 210.365 234.8C210.365 230.912 209.669 227.36 208.277 224.144C206.933 220.928 205.037 218.144 202.589 215.792C200.189 213.44 197.333 211.64 194.021 210.392C190.709 209.096 187.109 208.448 183.221 208.448C179.381 208.448 175.805 209.096 172.493 210.392C169.229 211.64 166.349 213.44 163.853 215.792C161.405 218.144 159.485 220.928 158.093 224.144ZM170.693 242.72C169.541 240.416 168.965 237.776 168.965 234.8C168.965 231.824 169.541 229.208 170.693 226.952C171.893 224.648 173.573 222.848 175.733 221.552C177.893 220.256 180.389 219.608 183.221 219.608C186.149 219.608 188.669 220.256 190.781 221.552C192.893 222.848 194.525 224.648 195.677 226.952C196.829 229.208 197.405 231.824 197.405 234.8C197.405 237.776 196.805 240.416 195.605 242.72C194.453 244.976 192.821 246.752 190.709 248.048C188.597 249.344 186.101 249.992 183.221 249.992C180.389 249.992 177.893 249.344 175.733 248.048C173.573 246.752 171.893 244.976 170.693 242.72Z" fill="#3E529D"/>
<path d="M232.258 224.854V228.193L239.358 224.726C239.633 224.117 239.907 223.507 240.181 222.894C240.166 222.882 240.151 222.87 240.136 222.857C240.125 222.848 240.114 222.84 240.103 222.831C239.628 222.454 239.022 222.142 238.251 221.928L232.258 224.854Z" fill="#3E529D"/>
<path d="M235.586 230.496C235.99 230.496 236.368 230.479 236.723 230.446C237.112 229.617 237.499 228.785 237.885 227.949L232.668 230.496H235.586Z" fill="#3E529D"/>
<path d="M232.258 222.35L233.778 221.608H232.258V222.35Z" fill="#3E529D"/>
<path fill-rule="evenodd" clip-rule="evenodd" d="M235.586 209.6H218.09V260H230.258V242.576H235.586C242.018 242.576 246.89 241.112 250.202 238.184C253.514 235.208 255.17 231.176 255.17 226.088C255.17 220.952 253.514 216.92 250.202 213.992C246.89 211.064 242.018 209.6 235.586 209.6ZM230.258 219.608H235.586C238.034 219.608 239.954 220.16 241.346 221.264C242.738 222.368 243.434 223.976 243.434 226.088C243.434 228.152 242.738 229.736 241.346 230.84C239.954 231.944 238.034 232.496 235.586 232.496L230.258 232.496V219.608Z" fill="#3E529D"/>
<path d="M275.333 209.6H262.949V260H275.333V209.6Z" fill="#3E529D"/>
<path d="M307.822 234.699L306.146 235.518L304.624 238.992H305.868L309.015 237.456L307.822 234.699Z" fill="#3E529D"/>
<path fill-rule="evenodd" clip-rule="evenodd" d="M315.1 250.28L319.852 260H333.676L307.18 206.432L280.612 260H294.436L299.116 250.28H315.1ZM301.564 240.992L307.18 228.176L312.724 240.992H301.564Z" fill="#3E529D"/>
</g>
<defs>
<clipPath id="clip0">
<rect width="400" height="400" fill="white"/>
</clipPath>
</defs>
</svg>
