<svg width="70" height="378" viewBox="0 0 70 378" fill="none" xmlns="http://www.w3.org/2000/svg">
<rect x="30" y="64" width="10" height="250" fill="#30395C"/>
<path fill-rule="evenodd" clip-rule="evenodd" d="M35 378C54.33 378 70 362.33 70 343C70 323.67 54.33 308 35 308C15.67 308 0 323.67 0 343C0 362.33 15.67 378 35 378ZM35 368C48.8071 368 60 356.807 60 343C60 329.193 48.8071 318 35 318C21.1929 318 10 329.193 10 343C10 356.807 21.1929 368 35 368Z" fill="#30395C"/>
<path fill-rule="evenodd" clip-rule="evenodd" d="M35 0C54.33 0 70 15.67 70 35C70 54.33 54.33 70 35 70C15.67 70 0 54.33 0 35C0 15.67 15.67 0 35 0ZM35 10C48.8071 10 60 21.1929 60 35C60 48.8071 48.8071 60 35 60C21.1929 60 10 48.8071 10 35C10 21.1929 21.1929 10 35 10Z" fill="#30395C"/>
</svg>
